M48
;DRILL file {KiCad 4.0.5} date 10/23/17 11:59:48
;FORMAT={-:-/ absolute / metric / decimal}
FMAT,2
METRIC,TZ
T1C0.300
T2C0.900
%
G90
G05
M71
T1
X101.Y-53.5
X101.Y-79.1
X101.5Y-88.75
X101.5Y-94.75
X103.85Y-75.25
X104.Y-53.5
X104.Y-77.25
X104.5Y-79.5
X104.75Y-82.75
X105.5Y-98.75
X105.75Y-88.75
X105.9Y-80.9
X106.3Y-56.7
X106.5Y-58.5
X106.8Y-63.25
X107.65Y-75.85
X107.75Y-66.2
X107.9Y-72.05
X108.6Y-73.05
X108.6Y-75.25
X109.Y-56.4
X109.55Y-75.85
X109.8Y-70.8
X110.25Y-66.2
X110.6Y-84.7
X111.6Y-81.
X111.8Y-75.2
X111.8Y-83.05
X112.05Y-57.
X112.05Y-62.2
X112.15Y-71.65
X112.6Y-84.7
X113.4Y-60.7
X113.5Y-54.
X114.1Y-58.35
X114.75Y-63.8
X115.Y-50.5
X115.Y-67.5
X116.2Y-63.
X118.75Y-97.
X120.5Y-98.75
X121.7Y-94.3
X123.6Y-54.85
X123.6Y-57.2
T2
X101.85Y-61.5
X101.85Y-64.04
X101.85Y-66.58
X101.85Y-69.76
X101.85Y-72.3
X102.Y-83.
X102.Y-85.54
X104.39Y-61.5
X104.39Y-64.04
X104.39Y-66.58
X106.05Y-91.66
X106.05Y-94.2
X108.59Y-91.66
X108.59Y-94.2
X111.13Y-91.66
X111.13Y-94.2
X113.67Y-91.66
X113.67Y-94.2
X116.21Y-91.66
X116.21Y-94.2
X116.48Y-59.5
X117.66Y-50.5
X118.75Y-91.66
X118.75Y-94.2
X119.Y-63.95
X119.Y-66.49
X119.Y-69.03
X119.Y-71.57
X119.Y-74.11
X119.Y-76.65
X119.Y-79.19
X119.Y-81.73
X119.Y-84.27
X119.Y-86.81
X119.02Y-59.5
X120.2Y-50.5
X121.54Y-63.95
X121.54Y-66.49
X121.54Y-69.03
X121.54Y-71.57
X121.54Y-74.11
X121.54Y-76.65
X121.54Y-79.19
X121.54Y-81.73
X121.54Y-84.27
X121.54Y-86.81
X121.56Y-59.5
X124.08Y-63.95
X124.08Y-66.49
X124.08Y-69.03
X124.08Y-71.57
X124.08Y-74.11
X124.08Y-76.65
X124.08Y-79.19
X124.08Y-81.73
X124.08Y-84.27
X124.08Y-86.81
X124.1Y-59.5
T0
M30
