G04 #@! TF.GenerationSoftware,KiCad,Pcbnew,(5.0.0)*
G04 #@! TF.CreationDate,2019-10-15T14:43:01+03:00*
G04 #@! TF.ProjectId,RDC2-0051,524443322D303035312E6B696361645F,rev?*
G04 #@! TF.SameCoordinates,Original*
G04 #@! TF.FileFunction,Soldermask,Bot*
G04 #@! TF.FilePolarity,Negative*
%FSLAX46Y46*%
G04 Gerber Fmt 4.6, Leading zero omitted, Abs format (unit mm)*
G04 Created by KiCad (PCBNEW (5.0.0)) date 10/15/19 14:43:01*
%MOMM*%
%LPD*%
G01*
G04 APERTURE LIST*
%ADD10C,3.600000*%
%ADD11C,3.700000*%
%ADD12C,2.200000*%
%ADD13R,1.900000X1.900000*%
%ADD14C,1.900000*%
%ADD15C,2.400000*%
%ADD16R,1.400000X1.000000*%
%ADD17O,1.900000X1.900000*%
G04 APERTURE END LIST*
D10*
G04 #@! TO.C,REF\002A\002A*
X185000000Y-97000000D03*
G04 #@! TD*
G04 #@! TO.C,REF\002A\002A*
X185000000Y-69000000D03*
G04 #@! TD*
G04 #@! TO.C,REF\002A\002A*
X105000000Y-97000000D03*
G04 #@! TD*
G04 #@! TO.C,REF\002A\002A*
X105000000Y-69000000D03*
G04 #@! TD*
D11*
G04 #@! TO.C,R8*
X159400000Y-83500000D03*
X150600000Y-83500000D03*
D12*
X157500000Y-76500000D03*
X152500000Y-76500000D03*
X155000000Y-76500000D03*
G04 #@! TD*
D11*
G04 #@! TO.C,R7*
X119400000Y-83500000D03*
X110600000Y-83500000D03*
D12*
X117500000Y-76500000D03*
X112500000Y-76500000D03*
X115000000Y-76500000D03*
G04 #@! TD*
D13*
G04 #@! TO.C,XP2*
X196240000Y-97500000D03*
D14*
X193700000Y-97500000D03*
X191160000Y-97500000D03*
G04 #@! TD*
D15*
G04 #@! TO.C,SW1*
X177500000Y-77000000D03*
X173000000Y-77000000D03*
X177500000Y-83500000D03*
X173000000Y-83500000D03*
G04 #@! TD*
G04 #@! TO.C,SW2*
X197500000Y-77000000D03*
X193000000Y-77000000D03*
X197500000Y-83500000D03*
X193000000Y-83500000D03*
G04 #@! TD*
D16*
G04 #@! TO.C,HL2*
X194250000Y-89350000D03*
X194250000Y-88050000D03*
X196250000Y-89350000D03*
X196250000Y-88050000D03*
G04 #@! TD*
G04 #@! TO.C,HL1*
X176250000Y-88050000D03*
X176250000Y-89350000D03*
X174250000Y-88050000D03*
X174250000Y-89350000D03*
G04 #@! TD*
D13*
G04 #@! TO.C,XP1*
X166760000Y-94960000D03*
D17*
X166760000Y-97500000D03*
G04 #@! TD*
G04 #@! TO.C,XP3*
X102360000Y-75200000D03*
D13*
X104900000Y-75200000D03*
G04 #@! TD*
G04 #@! TO.C,XP4*
X110880000Y-97500000D03*
D17*
X113420000Y-97500000D03*
X115960000Y-97500000D03*
X118500000Y-97500000D03*
G04 #@! TD*
D13*
G04 #@! TO.C,XP6*
X141360000Y-97500000D03*
D17*
X143900000Y-97500000D03*
X146440000Y-97500000D03*
X148980000Y-97500000D03*
G04 #@! TD*
G04 #@! TO.C,XP7*
X161680000Y-97500000D03*
X159140000Y-97500000D03*
X156600000Y-97500000D03*
D13*
X154060000Y-97500000D03*
G04 #@! TD*
D17*
G04 #@! TO.C,XP8*
X118500000Y-68500000D03*
X115960000Y-68500000D03*
X113420000Y-68500000D03*
D13*
X110880000Y-68500000D03*
G04 #@! TD*
G04 #@! TO.C,XP11*
X146440000Y-68500000D03*
D14*
X146440000Y-71040000D03*
X146440000Y-73580000D03*
G04 #@! TD*
G04 #@! TO.C,XP12*
X143900000Y-73580000D03*
X143900000Y-71040000D03*
D13*
X143900000Y-68500000D03*
G04 #@! TD*
D14*
G04 #@! TO.C,XP13*
X141360000Y-73580000D03*
X141360000Y-71040000D03*
D13*
X141360000Y-68500000D03*
G04 #@! TD*
D14*
G04 #@! TO.C,XP14*
X138820000Y-73580000D03*
X138820000Y-71040000D03*
D13*
X138820000Y-68500000D03*
G04 #@! TD*
G04 #@! TO.C,XP15*
X136280000Y-68500000D03*
D14*
X136280000Y-71040000D03*
X136280000Y-73580000D03*
G04 #@! TD*
G04 #@! TO.C,XP16*
X133740000Y-73580000D03*
X133740000Y-71040000D03*
D13*
X133740000Y-68500000D03*
G04 #@! TD*
G04 #@! TO.C,XP17*
X131200000Y-68500000D03*
D14*
X131200000Y-71040000D03*
X131200000Y-73580000D03*
G04 #@! TD*
G04 #@! TO.C,XP18*
X128660000Y-73580000D03*
X128660000Y-71040000D03*
D13*
X128660000Y-68500000D03*
G04 #@! TD*
G04 #@! TO.C,XP19*
X126120000Y-68500000D03*
D14*
X126120000Y-71040000D03*
X126120000Y-73580000D03*
G04 #@! TD*
D13*
G04 #@! TO.C,XP20*
X123580000Y-68500000D03*
D14*
X123580000Y-71040000D03*
X123580000Y-73580000D03*
G04 #@! TD*
D13*
G04 #@! TO.C,XP5*
X123580000Y-97500000D03*
D14*
X126120000Y-97500000D03*
X128660000Y-97500000D03*
X131200000Y-97500000D03*
X133740000Y-97500000D03*
X136280000Y-97500000D03*
G04 #@! TD*
M02*
