G04 #@! TF.GenerationSoftware,KiCad,Pcbnew,(5.0.0)*
G04 #@! TF.CreationDate,2019-10-15T14:43:01+03:00*
G04 #@! TF.ProjectId,RDC2-0051,524443322D303035312E6B696361645F,rev?*
G04 #@! TF.SameCoordinates,Original*
G04 #@! TF.FileFunction,Legend,Bot*
G04 #@! TF.FilePolarity,Positive*
%FSLAX46Y46*%
G04 Gerber Fmt 4.6, Leading zero omitted, Abs format (unit mm)*
G04 Created by KiCad (PCBNEW (5.0.0)) date 10/15/19 14:43:01*
%MOMM*%
%LPD*%
G01*
G04 APERTURE LIST*
%ADD10C,0.150000*%
%ADD11C,0.120000*%
G04 APERTURE END LIST*
D10*
G04 #@! TO.C,R8*
X160000000Y-76500000D02*
X159000000Y-76500000D01*
X160000000Y-81500000D02*
X160000000Y-76500000D01*
X160000000Y-89500000D02*
X160000000Y-85500000D01*
X150000000Y-76500000D02*
X150000000Y-81500000D01*
X150000000Y-89500000D02*
X150000000Y-85500000D01*
X151000000Y-76500000D02*
X150000000Y-76500000D01*
X150000000Y-89500000D02*
X160000000Y-89500000D01*
G04 #@! TO.C,R7*
X120000000Y-76500000D02*
X119000000Y-76500000D01*
X120000000Y-81500000D02*
X120000000Y-76500000D01*
X120000000Y-89500000D02*
X120000000Y-85500000D01*
X110000000Y-76500000D02*
X110000000Y-81500000D01*
X110000000Y-89500000D02*
X110000000Y-85500000D01*
X111000000Y-76500000D02*
X110000000Y-76500000D01*
X110000000Y-89500000D02*
X120000000Y-89500000D01*
D11*
G04 #@! TO.C,SW1*
X174500000Y-76750000D02*
X176000000Y-76750000D01*
X178500000Y-78000000D02*
X178500000Y-82500000D01*
X176000000Y-83750000D02*
X174500000Y-83750000D01*
X172000000Y-82500000D02*
X172000000Y-78000000D01*
G04 #@! TO.C,SW2*
X198500000Y-78000000D02*
X198500000Y-82500000D01*
X194500000Y-76750000D02*
X196000000Y-76750000D01*
X192000000Y-82500000D02*
X192000000Y-78000000D01*
X196000000Y-83750000D02*
X194500000Y-83750000D01*
G04 #@! TO.C,HL2*
X197150000Y-87300000D02*
X193350000Y-87300000D01*
X197150000Y-90100000D02*
X193350000Y-90100000D01*
X197150000Y-90100000D02*
X197150000Y-89350000D01*
G04 #@! TO.C,HL1*
X177150000Y-90100000D02*
X177150000Y-89350000D01*
X177150000Y-90100000D02*
X173350000Y-90100000D01*
X177150000Y-87300000D02*
X173350000Y-87300000D01*
G04 #@! TO.C,HL2*
X197185714Y-88389285D02*
X197614285Y-88389285D01*
X197400000Y-88389285D02*
X197400000Y-87639285D01*
X197471428Y-87746428D01*
X197542857Y-87817857D01*
X197614285Y-87853571D01*
G04 #@! TO.C,HL1*
X177185714Y-88389285D02*
X177614285Y-88389285D01*
X177400000Y-88389285D02*
X177400000Y-87639285D01*
X177471428Y-87746428D01*
X177542857Y-87817857D01*
X177614285Y-87853571D01*
G04 #@! TD*
M02*
