G04 #@! TF.GenerationSoftware,KiCad,Pcbnew,(5.0.0)*
G04 #@! TF.CreationDate,2019-10-15T14:43:01+03:00*
G04 #@! TF.ProjectId,RDC2-0051,524443322D303035312E6B696361645F,rev?*
G04 #@! TF.SameCoordinates,Original*
G04 #@! TF.FileFunction,Copper,L2,Bot,Signal*
G04 #@! TF.FilePolarity,Positive*
%FSLAX46Y46*%
G04 Gerber Fmt 4.6, Leading zero omitted, Abs format (unit mm)*
G04 Created by KiCad (PCBNEW (5.0.0)) date 10/15/19 14:43:01*
%MOMM*%
%LPD*%
G01*
G04 APERTURE LIST*
G04 #@! TA.AperFunction,ComponentPad*
%ADD10C,3.300000*%
G04 #@! TD*
G04 #@! TA.AperFunction,ComponentPad*
%ADD11C,1.800000*%
G04 #@! TD*
G04 #@! TA.AperFunction,ComponentPad*
%ADD12R,1.500000X1.500000*%
G04 #@! TD*
G04 #@! TA.AperFunction,ComponentPad*
%ADD13C,1.500000*%
G04 #@! TD*
G04 #@! TA.AperFunction,ComponentPad*
%ADD14C,2.000000*%
G04 #@! TD*
G04 #@! TA.AperFunction,SMDPad,CuDef*
%ADD15R,1.000000X0.600000*%
G04 #@! TD*
G04 #@! TA.AperFunction,ComponentPad*
%ADD16O,1.500000X1.500000*%
G04 #@! TD*
G04 #@! TA.AperFunction,ViaPad*
%ADD17C,0.700000*%
G04 #@! TD*
G04 #@! TA.AperFunction,Conductor*
%ADD18C,0.500000*%
G04 #@! TD*
G04 #@! TA.AperFunction,Conductor*
%ADD19C,0.300000*%
G04 #@! TD*
G04 #@! TA.AperFunction,Conductor*
%ADD20C,0.700000*%
G04 #@! TD*
G04 APERTURE END LIST*
D10*
G04 #@! TO.P,R8,4*
G04 #@! TO.N,GND*
X159400000Y-83500000D03*
X150600000Y-83500000D03*
D11*
G04 #@! TO.P,R8,3*
X157500000Y-76500000D03*
G04 #@! TO.P,R8,1*
G04 #@! TO.N,VDD*
X152500000Y-76500000D03*
G04 #@! TO.P,R8,2*
G04 #@! TO.N,AIN2*
X155000000Y-76500000D03*
G04 #@! TD*
D10*
G04 #@! TO.P,R7,4*
G04 #@! TO.N,GND*
X119400000Y-83500000D03*
X110600000Y-83500000D03*
D11*
G04 #@! TO.P,R7,3*
X117500000Y-76500000D03*
G04 #@! TO.P,R7,1*
G04 #@! TO.N,VDD*
X112500000Y-76500000D03*
G04 #@! TO.P,R7,2*
G04 #@! TO.N,AIN1*
X115000000Y-76500000D03*
G04 #@! TD*
D12*
G04 #@! TO.P,XP2,1*
G04 #@! TO.N,LED_OUT*
X196240000Y-97500000D03*
D13*
G04 #@! TO.P,XP2,2*
G04 #@! TO.N,5V*
X193700000Y-97500000D03*
G04 #@! TO.P,XP2,3*
G04 #@! TO.N,GND*
X191160000Y-97500000D03*
G04 #@! TD*
D14*
G04 #@! TO.P,SW1,1*
G04 #@! TO.N,KEY_1*
X177500000Y-77000000D03*
G04 #@! TO.P,SW1,2*
G04 #@! TO.N,GND*
X173000000Y-77000000D03*
G04 #@! TO.P,SW1,1*
G04 #@! TO.N,KEY_1*
X177500000Y-83500000D03*
G04 #@! TO.P,SW1,2*
G04 #@! TO.N,GND*
X173000000Y-83500000D03*
G04 #@! TD*
G04 #@! TO.P,SW2,2*
G04 #@! TO.N,GND*
X197500000Y-77000000D03*
G04 #@! TO.P,SW2,1*
G04 #@! TO.N,KEY_2*
X193000000Y-77000000D03*
G04 #@! TO.P,SW2,2*
G04 #@! TO.N,GND*
X197500000Y-83500000D03*
G04 #@! TO.P,SW2,1*
G04 #@! TO.N,KEY_2*
X193000000Y-83500000D03*
G04 #@! TD*
D15*
G04 #@! TO.P,HL2,3*
G04 #@! TO.N,Net-(HL1-Pad1)*
X194250000Y-89350000D03*
G04 #@! TO.P,HL2,4*
G04 #@! TO.N,5V*
X194250000Y-88050000D03*
G04 #@! TO.P,HL2,2*
G04 #@! TO.N,GND*
X196250000Y-89350000D03*
G04 #@! TO.P,HL2,1*
G04 #@! TO.N,LED_OUT*
X196250000Y-88050000D03*
G04 #@! TD*
G04 #@! TO.P,HL1,1*
G04 #@! TO.N,Net-(HL1-Pad1)*
X176250000Y-88050000D03*
G04 #@! TO.P,HL1,2*
G04 #@! TO.N,GND*
X176250000Y-89350000D03*
G04 #@! TO.P,HL1,4*
G04 #@! TO.N,5V*
X174250000Y-88050000D03*
G04 #@! TO.P,HL1,3*
G04 #@! TO.N,Net-(DD1-Pad4)*
X174250000Y-89350000D03*
G04 #@! TD*
D12*
G04 #@! TO.P,XP1,1*
G04 #@! TO.N,Pixel*
X166760000Y-94960000D03*
D16*
G04 #@! TO.P,XP1,2*
G04 #@! TO.N,VDD*
X166760000Y-97500000D03*
G04 #@! TD*
G04 #@! TO.P,XP3,2*
G04 #@! TO.N,GND*
X102360000Y-75200000D03*
D12*
G04 #@! TO.P,XP3,1*
G04 #@! TO.N,5V*
X104900000Y-75200000D03*
G04 #@! TD*
G04 #@! TO.P,XP4,1*
G04 #@! TO.N,5V*
X110880000Y-97500000D03*
D16*
G04 #@! TO.P,XP4,2*
G04 #@! TO.N,GND*
X113420000Y-97500000D03*
G04 #@! TO.P,XP4,3*
G04 #@! TO.N,VDD*
X115960000Y-97500000D03*
G04 #@! TO.P,XP4,4*
G04 #@! TO.N,GND*
X118500000Y-97500000D03*
G04 #@! TD*
D12*
G04 #@! TO.P,XP6,1*
G04 #@! TO.N,GND*
X141360000Y-97500000D03*
D16*
G04 #@! TO.P,XP6,2*
G04 #@! TO.N,I2C1_SDA*
X143900000Y-97500000D03*
G04 #@! TO.P,XP6,3*
G04 #@! TO.N,I2C1_SCL*
X146440000Y-97500000D03*
G04 #@! TO.P,XP6,4*
G04 #@! TO.N,VDD*
X148980000Y-97500000D03*
G04 #@! TD*
G04 #@! TO.P,XP7,4*
G04 #@! TO.N,GND*
X161680000Y-97500000D03*
G04 #@! TO.P,XP7,3*
G04 #@! TO.N,DSP_RST*
X159140000Y-97500000D03*
G04 #@! TO.P,XP7,2*
G04 #@! TO.N,GND*
X156600000Y-97500000D03*
D12*
G04 #@! TO.P,XP7,1*
G04 #@! TO.N,DSP_MUTE*
X154060000Y-97500000D03*
G04 #@! TD*
D16*
G04 #@! TO.P,XP8,4*
G04 #@! TO.N,GND*
X118500000Y-68500000D03*
G04 #@! TO.P,XP8,3*
G04 #@! TO.N,VDD*
X115960000Y-68500000D03*
G04 #@! TO.P,XP8,2*
G04 #@! TO.N,GND*
X113420000Y-68500000D03*
D12*
G04 #@! TO.P,XP8,1*
G04 #@! TO.N,5V*
X110880000Y-68500000D03*
G04 #@! TD*
G04 #@! TO.P,XP11,1*
G04 #@! TO.N,VDD*
X146440000Y-68500000D03*
D13*
G04 #@! TO.P,XP11,2*
G04 #@! TO.N,GPIO0\005CSPI_CS*
X146440000Y-71040000D03*
G04 #@! TO.P,XP11,3*
G04 #@! TO.N,GND*
X146440000Y-73580000D03*
G04 #@! TD*
G04 #@! TO.P,XP12,3*
G04 #@! TO.N,GND*
X143900000Y-73580000D03*
G04 #@! TO.P,XP12,2*
G04 #@! TO.N,GPIO1\005CSPI_SCK*
X143900000Y-71040000D03*
D12*
G04 #@! TO.P,XP12,1*
G04 #@! TO.N,VDD*
X143900000Y-68500000D03*
G04 #@! TD*
D13*
G04 #@! TO.P,XP13,3*
G04 #@! TO.N,GND*
X141360000Y-73580000D03*
G04 #@! TO.P,XP13,2*
G04 #@! TO.N,GPIO2\005CSPI_MISO*
X141360000Y-71040000D03*
D12*
G04 #@! TO.P,XP13,1*
G04 #@! TO.N,VDD*
X141360000Y-68500000D03*
G04 #@! TD*
D13*
G04 #@! TO.P,XP14,3*
G04 #@! TO.N,GND*
X138820000Y-73580000D03*
G04 #@! TO.P,XP14,2*
G04 #@! TO.N,GPIO3\005CSPI_MOSI*
X138820000Y-71040000D03*
D12*
G04 #@! TO.P,XP14,1*
G04 #@! TO.N,VDD*
X138820000Y-68500000D03*
G04 #@! TD*
G04 #@! TO.P,XP15,1*
G04 #@! TO.N,VDD*
X136280000Y-68500000D03*
D13*
G04 #@! TO.P,XP15,2*
G04 #@! TO.N,GPIO4*
X136280000Y-71040000D03*
G04 #@! TO.P,XP15,3*
G04 #@! TO.N,GND*
X136280000Y-73580000D03*
G04 #@! TD*
G04 #@! TO.P,XP16,3*
G04 #@! TO.N,GND*
X133740000Y-73580000D03*
G04 #@! TO.P,XP16,2*
G04 #@! TO.N,GPIO5*
X133740000Y-71040000D03*
D12*
G04 #@! TO.P,XP16,1*
G04 #@! TO.N,VDD*
X133740000Y-68500000D03*
G04 #@! TD*
G04 #@! TO.P,XP17,1*
G04 #@! TO.N,VDD*
X131200000Y-68500000D03*
D13*
G04 #@! TO.P,XP17,2*
G04 #@! TO.N,GPIO6\005CI2C_SCL*
X131200000Y-71040000D03*
G04 #@! TO.P,XP17,3*
G04 #@! TO.N,GND*
X131200000Y-73580000D03*
G04 #@! TD*
G04 #@! TO.P,XP18,3*
G04 #@! TO.N,GND*
X128660000Y-73580000D03*
G04 #@! TO.P,XP18,2*
G04 #@! TO.N,GPIO7\005CI2C_SDA*
X128660000Y-71040000D03*
D12*
G04 #@! TO.P,XP18,1*
G04 #@! TO.N,VDD*
X128660000Y-68500000D03*
G04 #@! TD*
G04 #@! TO.P,XP19,1*
G04 #@! TO.N,VDD*
X126120000Y-68500000D03*
D13*
G04 #@! TO.P,XP19,2*
G04 #@! TO.N,GPIO8\005CSWDIO*
X126120000Y-71040000D03*
G04 #@! TO.P,XP19,3*
G04 #@! TO.N,GND*
X126120000Y-73580000D03*
G04 #@! TD*
D12*
G04 #@! TO.P,XP20,1*
G04 #@! TO.N,VDD*
X123580000Y-68500000D03*
D13*
G04 #@! TO.P,XP20,2*
G04 #@! TO.N,GPIO9\005CSWCLK*
X123580000Y-71040000D03*
G04 #@! TO.P,XP20,3*
G04 #@! TO.N,GND*
X123580000Y-73580000D03*
G04 #@! TD*
D12*
G04 #@! TO.P,XP5,1*
G04 #@! TO.N,GND*
X123580000Y-97500000D03*
D13*
G04 #@! TO.P,XP5,2*
G04 #@! TO.N,SPI1_MOSI*
X126120000Y-97500000D03*
G04 #@! TO.P,XP5,3*
G04 #@! TO.N,SPI1_SCK*
X128660000Y-97500000D03*
G04 #@! TO.P,XP5,4*
G04 #@! TO.N,SPI1_MISO*
X131200000Y-97500000D03*
G04 #@! TO.P,XP5,5*
G04 #@! TO.N,SPI1_NSS1*
X133740000Y-97500000D03*
G04 #@! TO.P,XP5,6*
G04 #@! TO.N,VDD*
X136280000Y-97500000D03*
G04 #@! TD*
D17*
G04 #@! TO.N,5V*
X193100000Y-88050000D03*
X168150000Y-75150000D03*
X113000000Y-92750000D03*
X107750000Y-80900000D03*
X174250000Y-86600000D03*
X164850000Y-71850000D03*
G04 #@! TO.N,GND*
X101000000Y-67000000D03*
X101000000Y-72000000D03*
X110650000Y-87800000D03*
X128150000Y-77450000D03*
X133700000Y-90500000D03*
X156600000Y-93850000D03*
X158400000Y-93850000D03*
X186500000Y-84400000D03*
X184500000Y-84400000D03*
X106050000Y-85750000D03*
X109000000Y-73000000D03*
X112500000Y-73000000D03*
X116500000Y-73000000D03*
X120500000Y-73000000D03*
X121000000Y-68000000D03*
X107500000Y-78000000D03*
X112000000Y-80000000D03*
X117000000Y-80000000D03*
X122500000Y-80000000D03*
X115000000Y-83500000D03*
X116000000Y-86000000D03*
X121500000Y-86000000D03*
X125500000Y-83500000D03*
X128900000Y-82700000D03*
X101000000Y-89500000D03*
X101000000Y-99000000D03*
X101000000Y-95000000D03*
X108500000Y-99000000D03*
X104000000Y-88500000D03*
X107000000Y-88500000D03*
X107000000Y-91500000D03*
X110000000Y-94500000D03*
X110000000Y-91500000D03*
X115000000Y-94500000D03*
X121500000Y-94500000D03*
X121500000Y-91000000D03*
X117000000Y-91000000D03*
X125000000Y-92500000D03*
X123500000Y-89000000D03*
X126000000Y-86500000D03*
X128000000Y-87500000D03*
X131500000Y-87500000D03*
X130000000Y-86500000D03*
X119000000Y-92500000D03*
X120500000Y-76500000D03*
X123000000Y-77000000D03*
X130800000Y-77500000D03*
X132600000Y-76300000D03*
X130500000Y-75700000D03*
X136500000Y-80100000D03*
X138000000Y-80100000D03*
X138000000Y-84500000D03*
X138000000Y-82500000D03*
X140400000Y-86800000D03*
X145700000Y-87500000D03*
X148000000Y-87500000D03*
X145700000Y-89500000D03*
X150000000Y-89500000D03*
X152000000Y-91500000D03*
X144300000Y-91500000D03*
X144300000Y-95000000D03*
X148000000Y-92000000D03*
X121000000Y-97500000D03*
X135000000Y-95800000D03*
X145700000Y-80400000D03*
X153200000Y-80400000D03*
X150300000Y-80400000D03*
X154800000Y-81900000D03*
X154800000Y-86000000D03*
X154800000Y-90000000D03*
X159400000Y-91800000D03*
X159400000Y-90100000D03*
X156000000Y-79000000D03*
X159000000Y-79000000D03*
X149000000Y-69700000D03*
X154700000Y-69700000D03*
X149000000Y-72300000D03*
X154700000Y-72300000D03*
X145000000Y-75900000D03*
X156400000Y-68000000D03*
X159300000Y-68000000D03*
X161000000Y-69700000D03*
X158000000Y-69700000D03*
X159300000Y-72000000D03*
X162700000Y-72000000D03*
X160000000Y-75500000D03*
X165500000Y-75500000D03*
X165000000Y-83500000D03*
X167000000Y-86000000D03*
X168500000Y-89500000D03*
X166000000Y-91500000D03*
X170500000Y-88000000D03*
X170000000Y-91500000D03*
X164000000Y-94000000D03*
X176000000Y-80000000D03*
X165000000Y-67000000D03*
X180000000Y-67000000D03*
X170000000Y-67000000D03*
X175000000Y-67000000D03*
X175000000Y-72000000D03*
X180000000Y-72000000D03*
X170000000Y-72000000D03*
X190000000Y-72000000D03*
X190000000Y-67000000D03*
X195000000Y-67000000D03*
X195000000Y-72000000D03*
X199000000Y-72000000D03*
X185000000Y-74000000D03*
X183000000Y-77000000D03*
X190000000Y-77000000D03*
X183000000Y-82000000D03*
X188000000Y-82000000D03*
X187000000Y-79500000D03*
X195000000Y-80500000D03*
X199000000Y-89000000D03*
X199000000Y-99000000D03*
X199000000Y-94000000D03*
X195500000Y-91500000D03*
X196500000Y-94000000D03*
X184500000Y-86500000D03*
X186500000Y-86500000D03*
X191500000Y-91000000D03*
X191500000Y-93500000D03*
X187500000Y-93500000D03*
X185000000Y-91000000D03*
X180000000Y-91000000D03*
X180000000Y-95000000D03*
X180000000Y-99000000D03*
X175000000Y-99000000D03*
X170000000Y-99000000D03*
X176000000Y-95000000D03*
X172500000Y-97000000D03*
G04 #@! TO.N,VDD*
X140600000Y-90900000D03*
X128350000Y-79100000D03*
X143800000Y-86750000D03*
X143800000Y-80400000D03*
X180350000Y-76550000D03*
X125550000Y-95400000D03*
X157850000Y-71150000D03*
G04 #@! TO.N,AIN1*
X138900000Y-81000000D03*
G04 #@! TO.N,SPI1_MISO*
X139050000Y-93100000D03*
X134950000Y-88600000D03*
G04 #@! TO.N,SPI1_NSS1*
X133400000Y-87700000D03*
G04 #@! TO.N,Pixel*
X152750000Y-92900000D03*
G04 #@! TO.N,Net-(DD1-Pad4)*
X174250000Y-90300000D03*
G04 #@! TO.N,SPI1_NSS2*
X139050000Y-94350000D03*
X135600000Y-84750000D03*
G04 #@! TO.N,GPIO8\005CSWDIO*
X126900000Y-81750000D03*
X134250000Y-82300000D03*
G04 #@! TO.N,GPIO9\005CSWCLK*
X135350000Y-81850000D03*
X124850000Y-79900000D03*
G04 #@! TD*
D18*
G04 #@! TO.N,5V*
X193100000Y-88050000D02*
X194250000Y-88050000D01*
X104900000Y-76800000D02*
X104900000Y-75200000D01*
X102450000Y-79250000D02*
X104900000Y-76800000D01*
X110880000Y-97500000D02*
X102450000Y-89070000D01*
D19*
X113000000Y-95380000D02*
X110880000Y-97500000D01*
X113000000Y-92750000D02*
X113000000Y-95380000D01*
D18*
X107750000Y-80900000D02*
X102450000Y-80900000D01*
X102450000Y-89070000D02*
X102450000Y-80900000D01*
X102450000Y-80900000D02*
X102450000Y-79250000D01*
X174250000Y-86600000D02*
X174250000Y-88050000D01*
D20*
X179650000Y-88050000D02*
X193100000Y-88050000D01*
X178200000Y-86600000D02*
X179650000Y-88050000D01*
X168150000Y-75150000D02*
X168150000Y-82750000D01*
X172000000Y-86600000D02*
X178200000Y-86600000D01*
X168150000Y-82750000D02*
X172000000Y-86600000D01*
X164850000Y-71850000D02*
X168150000Y-75150000D01*
D19*
G04 #@! TO.N,VDD*
X140600000Y-92750000D02*
X140600000Y-90900000D01*
X140050000Y-93300000D02*
X140600000Y-92750000D01*
X140050000Y-94750000D02*
X140050000Y-93300000D01*
X139450000Y-95350000D02*
X140050000Y-94750000D01*
X136280000Y-97500000D02*
X138430000Y-95350000D01*
X138430000Y-95350000D02*
X139450000Y-95350000D01*
D18*
X115960000Y-97500000D02*
X117410000Y-98950000D01*
X165310000Y-98950000D02*
X166760000Y-97500000D01*
X148980000Y-98930000D02*
X149000000Y-98950000D01*
X148980000Y-97500000D02*
X148980000Y-98930000D01*
X149000000Y-98950000D02*
X165310000Y-98950000D01*
X136280000Y-98920000D02*
X136250000Y-98950000D01*
X136280000Y-97500000D02*
X136280000Y-98920000D01*
X136250000Y-98950000D02*
X149000000Y-98950000D01*
X143800000Y-85200000D02*
X143800000Y-86750000D01*
X143800000Y-80400000D02*
X146200000Y-82800000D01*
X152500000Y-76500000D02*
X146200000Y-82800000D01*
X146200000Y-82800000D02*
X143800000Y-85200000D01*
D19*
X124850000Y-96100000D02*
X124850000Y-98950000D01*
X125550000Y-95400000D02*
X124850000Y-96100000D01*
D18*
X117410000Y-98950000D02*
X124850000Y-98950000D01*
X124850000Y-98950000D02*
X136250000Y-98950000D01*
X142500000Y-79100000D02*
X143800000Y-80400000D01*
X128400000Y-79100000D02*
X128350000Y-79150000D01*
X142500000Y-79100000D02*
X128400000Y-79100000D01*
X157850000Y-71150000D02*
X152500000Y-76500000D01*
D19*
X158300000Y-70700000D02*
X165200000Y-70700000D01*
X157850000Y-71150000D02*
X158300000Y-70700000D01*
X165200000Y-70700000D02*
X168650000Y-74150000D01*
X177950000Y-74150000D02*
X180350000Y-76550000D01*
X168650000Y-74150000D02*
X177950000Y-74150000D01*
G04 #@! TO.N,KEY_2*
X193000000Y-77000000D02*
X193000000Y-83500000D01*
G04 #@! TO.N,AIN1*
X134950000Y-80150000D02*
X135800000Y-81000000D01*
X135800000Y-81000000D02*
X138900000Y-81000000D01*
X126450000Y-80150000D02*
X134950000Y-80150000D01*
X124550000Y-78250000D02*
X126450000Y-80150000D01*
X115000000Y-76500000D02*
X116750000Y-78250000D01*
X116750000Y-78250000D02*
X124550000Y-78250000D01*
G04 #@! TO.N,SPI1_MISO*
X135400000Y-89050000D02*
X134950000Y-88600000D01*
X136600000Y-89050000D02*
X135400000Y-89050000D01*
X139550000Y-92000000D02*
X136600000Y-89050000D01*
X139050000Y-93100000D02*
X139550000Y-92600000D01*
X139550000Y-92600000D02*
X139550000Y-92000000D01*
G04 #@! TO.N,SPI1_NSS1*
X133740000Y-93440000D02*
X133740000Y-97500000D01*
X133400000Y-87700000D02*
X132600000Y-88500000D01*
X132600000Y-92300000D02*
X133740000Y-93440000D01*
X132600000Y-88500000D02*
X132600000Y-92300000D01*
G04 #@! TO.N,Pixel*
X152750000Y-92900000D02*
X164700000Y-92900000D01*
X164700000Y-92900000D02*
X166760000Y-94960000D01*
G04 #@! TO.N,LED_OUT*
X196300000Y-97450000D02*
X196240000Y-97450000D01*
X198050000Y-95700000D02*
X196300000Y-97450000D01*
X198050000Y-88700000D02*
X198050000Y-95700000D01*
X196250000Y-88050000D02*
X197400000Y-88050000D01*
X197400000Y-88050000D02*
X198050000Y-88700000D01*
G04 #@! TO.N,Net-(DD1-Pad4)*
X174250000Y-89350000D02*
X174250000Y-90300000D01*
G04 #@! TO.N,SPI1_NSS2*
X138150000Y-93450000D02*
X139050000Y-94350000D01*
X138150000Y-91650000D02*
X138150000Y-93450000D01*
X136350000Y-89850000D02*
X138150000Y-91650000D01*
X134400000Y-85950000D02*
X134400000Y-87950000D01*
X135600000Y-84750000D02*
X134400000Y-85950000D01*
X134400000Y-87950000D02*
X134050000Y-88300000D01*
X134050000Y-88300000D02*
X134050000Y-89050000D01*
X134050000Y-89050000D02*
X134850000Y-89850000D01*
X134850000Y-89850000D02*
X136350000Y-89850000D01*
G04 #@! TO.N,GPIO8\005CSWDIO*
X133700000Y-81750000D02*
X134250000Y-82300000D01*
X126900000Y-81750000D02*
X133700000Y-81750000D01*
G04 #@! TO.N,GPIO9\005CSWCLK*
X134350000Y-80850000D02*
X135350000Y-81850000D01*
X124850000Y-79900000D02*
X125800000Y-80850000D01*
X125800000Y-80850000D02*
X134350000Y-80850000D01*
G04 #@! TO.N,Net-(HL1-Pad1)*
X176250000Y-88050000D02*
X177750000Y-88050000D01*
X179050000Y-89350000D02*
X194250000Y-89350000D01*
X177750000Y-88050000D02*
X179050000Y-89350000D01*
G04 #@! TD*
G04 #@! TO.N,GND*
G36*
X199475001Y-99475000D02*
X165784247Y-99475000D01*
X165814671Y-99454671D01*
X165853724Y-99396224D01*
X166565190Y-98684759D01*
X166641812Y-98700000D01*
X166878188Y-98700000D01*
X167228217Y-98630375D01*
X167625152Y-98365152D01*
X167890375Y-97968217D01*
X167983509Y-97500000D01*
X167890375Y-97031783D01*
X167625152Y-96634848D01*
X167561370Y-96592230D01*
X182950000Y-96592230D01*
X182950000Y-97407770D01*
X183262094Y-98161232D01*
X183838768Y-98737906D01*
X184592230Y-99050000D01*
X185407770Y-99050000D01*
X186161232Y-98737906D01*
X186596057Y-98303081D01*
X190392274Y-98303081D01*
X190461214Y-98504328D01*
X190898746Y-98695291D01*
X191376051Y-98704282D01*
X191820464Y-98529933D01*
X191858786Y-98504328D01*
X191927726Y-98303081D01*
X191160000Y-97535355D01*
X190392274Y-98303081D01*
X186596057Y-98303081D01*
X186737906Y-98161232D01*
X186922305Y-97716051D01*
X189955718Y-97716051D01*
X190130067Y-98160464D01*
X190155672Y-98198786D01*
X190356919Y-98267726D01*
X191124645Y-97500000D01*
X191195355Y-97500000D01*
X191963081Y-98267726D01*
X192164328Y-98198786D01*
X192355291Y-97761254D01*
X192364282Y-97283949D01*
X192355399Y-97261305D01*
X192500000Y-97261305D01*
X192500000Y-97738695D01*
X192682689Y-98179745D01*
X193020255Y-98517311D01*
X193461305Y-98700000D01*
X193938695Y-98700000D01*
X194379745Y-98517311D01*
X194717311Y-98179745D01*
X194900000Y-97738695D01*
X194900000Y-97261305D01*
X194717311Y-96820255D01*
X194647056Y-96750000D01*
X195031184Y-96750000D01*
X195031184Y-98250000D01*
X195066109Y-98425581D01*
X195165568Y-98574432D01*
X195314419Y-98673891D01*
X195490000Y-98708816D01*
X196990000Y-98708816D01*
X197165581Y-98673891D01*
X197314432Y-98574432D01*
X197413891Y-98425581D01*
X197448816Y-98250000D01*
X197448816Y-97149711D01*
X198432481Y-96166047D01*
X198482575Y-96132575D01*
X198543825Y-96040909D01*
X198615187Y-95934109D01*
X198634151Y-95838768D01*
X198650000Y-95759091D01*
X198650000Y-95759088D01*
X198661753Y-95700000D01*
X198650000Y-95640912D01*
X198650000Y-88759088D01*
X198661753Y-88700000D01*
X198650000Y-88640910D01*
X198650000Y-88640909D01*
X198622601Y-88503164D01*
X198615187Y-88465891D01*
X198516047Y-88317519D01*
X198482575Y-88267425D01*
X198432481Y-88233954D01*
X197866048Y-87667521D01*
X197832575Y-87617425D01*
X197634108Y-87484813D01*
X197459091Y-87450000D01*
X197459086Y-87450000D01*
X197400000Y-87438247D01*
X197340914Y-87450000D01*
X197090757Y-87450000D01*
X197074432Y-87425568D01*
X196925581Y-87326109D01*
X196750000Y-87291184D01*
X195750000Y-87291184D01*
X195574419Y-87326109D01*
X195425568Y-87425568D01*
X195326109Y-87574419D01*
X195291184Y-87750000D01*
X195291184Y-88350000D01*
X195326109Y-88525581D01*
X195425568Y-88674432D01*
X195463696Y-88699908D01*
X195368508Y-88795096D01*
X195300000Y-88960490D01*
X195300000Y-89212500D01*
X195412500Y-89325000D01*
X196225000Y-89325000D01*
X196225000Y-89305000D01*
X196275000Y-89305000D01*
X196275000Y-89325000D01*
X197087500Y-89325000D01*
X197200000Y-89212500D01*
X197200000Y-88960490D01*
X197131492Y-88795096D01*
X197036304Y-88699908D01*
X197074432Y-88674432D01*
X197090757Y-88650000D01*
X197151473Y-88650000D01*
X197450000Y-88948528D01*
X197450001Y-95451471D01*
X196610289Y-96291184D01*
X195490000Y-96291184D01*
X195314419Y-96326109D01*
X195165568Y-96425568D01*
X195066109Y-96574419D01*
X195031184Y-96750000D01*
X194647056Y-96750000D01*
X194379745Y-96482689D01*
X193938695Y-96300000D01*
X193461305Y-96300000D01*
X193020255Y-96482689D01*
X192682689Y-96820255D01*
X192500000Y-97261305D01*
X192355399Y-97261305D01*
X192189933Y-96839536D01*
X192164328Y-96801214D01*
X191963081Y-96732274D01*
X191195355Y-97500000D01*
X191124645Y-97500000D01*
X190356919Y-96732274D01*
X190155672Y-96801214D01*
X189964709Y-97238746D01*
X189955718Y-97716051D01*
X186922305Y-97716051D01*
X187050000Y-97407770D01*
X187050000Y-96696919D01*
X190392274Y-96696919D01*
X191160000Y-97464645D01*
X191927726Y-96696919D01*
X191858786Y-96495672D01*
X191421254Y-96304709D01*
X190943949Y-96295718D01*
X190499536Y-96470067D01*
X190461214Y-96495672D01*
X190392274Y-96696919D01*
X187050000Y-96696919D01*
X187050000Y-96592230D01*
X186737906Y-95838768D01*
X186161232Y-95262094D01*
X185407770Y-94950000D01*
X184592230Y-94950000D01*
X183838768Y-95262094D01*
X183262094Y-95838768D01*
X182950000Y-96592230D01*
X167561370Y-96592230D01*
X167228217Y-96369625D01*
X166878188Y-96300000D01*
X166641812Y-96300000D01*
X166291783Y-96369625D01*
X165894848Y-96634848D01*
X165629625Y-97031783D01*
X165536491Y-97500000D01*
X165575241Y-97694810D01*
X165020052Y-98250000D01*
X162591752Y-98250000D01*
X162689886Y-98148179D01*
X162861060Y-97712373D01*
X162767242Y-97525000D01*
X161705000Y-97525000D01*
X161705000Y-97545000D01*
X161655000Y-97545000D01*
X161655000Y-97525000D01*
X160592758Y-97525000D01*
X160498940Y-97712373D01*
X160670114Y-98148179D01*
X160768248Y-98250000D01*
X160082094Y-98250000D01*
X160270375Y-97968217D01*
X160363509Y-97500000D01*
X160321266Y-97287627D01*
X160498940Y-97287627D01*
X160592758Y-97475000D01*
X161655000Y-97475000D01*
X161655000Y-96412787D01*
X161705000Y-96412787D01*
X161705000Y-97475000D01*
X162767242Y-97475000D01*
X162861060Y-97287627D01*
X162689886Y-96851821D01*
X162364966Y-96514694D01*
X161935766Y-96327571D01*
X161892373Y-96318942D01*
X161705000Y-96412787D01*
X161655000Y-96412787D01*
X161467627Y-96318942D01*
X161424234Y-96327571D01*
X160995034Y-96514694D01*
X160670114Y-96851821D01*
X160498940Y-97287627D01*
X160321266Y-97287627D01*
X160270375Y-97031783D01*
X160005152Y-96634848D01*
X159608217Y-96369625D01*
X159258188Y-96300000D01*
X159021812Y-96300000D01*
X158671783Y-96369625D01*
X158274848Y-96634848D01*
X158009625Y-97031783D01*
X157916491Y-97500000D01*
X158009625Y-97968217D01*
X158197906Y-98250000D01*
X157511752Y-98250000D01*
X157609886Y-98148179D01*
X157781060Y-97712373D01*
X157687242Y-97525000D01*
X156625000Y-97525000D01*
X156625000Y-97545000D01*
X156575000Y-97545000D01*
X156575000Y-97525000D01*
X155512758Y-97525000D01*
X155418940Y-97712373D01*
X155590114Y-98148179D01*
X155688248Y-98250000D01*
X155268816Y-98250000D01*
X155268816Y-97287627D01*
X155418940Y-97287627D01*
X155512758Y-97475000D01*
X156575000Y-97475000D01*
X156575000Y-96412787D01*
X156625000Y-96412787D01*
X156625000Y-97475000D01*
X157687242Y-97475000D01*
X157781060Y-97287627D01*
X157609886Y-96851821D01*
X157284966Y-96514694D01*
X156855766Y-96327571D01*
X156812373Y-96318942D01*
X156625000Y-96412787D01*
X156575000Y-96412787D01*
X156387627Y-96318942D01*
X156344234Y-96327571D01*
X155915034Y-96514694D01*
X155590114Y-96851821D01*
X155418940Y-97287627D01*
X155268816Y-97287627D01*
X155268816Y-96750000D01*
X155233891Y-96574419D01*
X155134432Y-96425568D01*
X154985581Y-96326109D01*
X154810000Y-96291184D01*
X153310000Y-96291184D01*
X153134419Y-96326109D01*
X152985568Y-96425568D01*
X152886109Y-96574419D01*
X152851184Y-96750000D01*
X152851184Y-98250000D01*
X149922094Y-98250000D01*
X150110375Y-97968217D01*
X150203509Y-97500000D01*
X150110375Y-97031783D01*
X149845152Y-96634848D01*
X149448217Y-96369625D01*
X149098188Y-96300000D01*
X148861812Y-96300000D01*
X148511783Y-96369625D01*
X148114848Y-96634848D01*
X147849625Y-97031783D01*
X147756491Y-97500000D01*
X147849625Y-97968217D01*
X148037906Y-98250000D01*
X147382094Y-98250000D01*
X147570375Y-97968217D01*
X147663509Y-97500000D01*
X147570375Y-97031783D01*
X147305152Y-96634848D01*
X146908217Y-96369625D01*
X146558188Y-96300000D01*
X146321812Y-96300000D01*
X145971783Y-96369625D01*
X145574848Y-96634848D01*
X145309625Y-97031783D01*
X145216491Y-97500000D01*
X145309625Y-97968217D01*
X145497906Y-98250000D01*
X144842094Y-98250000D01*
X145030375Y-97968217D01*
X145123509Y-97500000D01*
X145030375Y-97031783D01*
X144765152Y-96634848D01*
X144368217Y-96369625D01*
X144018188Y-96300000D01*
X143781812Y-96300000D01*
X143431783Y-96369625D01*
X143034848Y-96634848D01*
X142769625Y-97031783D01*
X142676491Y-97500000D01*
X142769625Y-97968217D01*
X142957906Y-98250000D01*
X142560000Y-98250000D01*
X142560000Y-97637500D01*
X142447500Y-97525000D01*
X141385000Y-97525000D01*
X141385000Y-97545000D01*
X141335000Y-97545000D01*
X141335000Y-97525000D01*
X140272500Y-97525000D01*
X140160000Y-97637500D01*
X140160000Y-98250000D01*
X137227056Y-98250000D01*
X137297311Y-98179745D01*
X137480000Y-97738695D01*
X137480000Y-97261305D01*
X137446968Y-97181559D01*
X137968038Y-96660489D01*
X140160000Y-96660489D01*
X140160000Y-97362500D01*
X140272500Y-97475000D01*
X141335000Y-97475000D01*
X141335000Y-96412500D01*
X141385000Y-96412500D01*
X141385000Y-97475000D01*
X142447500Y-97475000D01*
X142560000Y-97362500D01*
X142560000Y-96660489D01*
X142491491Y-96495095D01*
X142364904Y-96368508D01*
X142199510Y-96300000D01*
X141497500Y-96300000D01*
X141385000Y-96412500D01*
X141335000Y-96412500D01*
X141222500Y-96300000D01*
X140520490Y-96300000D01*
X140355096Y-96368508D01*
X140228509Y-96495095D01*
X140160000Y-96660489D01*
X137968038Y-96660489D01*
X138678528Y-95950000D01*
X139390914Y-95950000D01*
X139450000Y-95961753D01*
X139509086Y-95950000D01*
X139509091Y-95950000D01*
X139684108Y-95915187D01*
X139882575Y-95782575D01*
X139916048Y-95732479D01*
X140432481Y-95216046D01*
X140482575Y-95182575D01*
X140615187Y-94984108D01*
X140650000Y-94809091D01*
X140650000Y-94809087D01*
X140661753Y-94750001D01*
X140650000Y-94690914D01*
X140650000Y-93548527D01*
X140982481Y-93216046D01*
X141032575Y-93182575D01*
X141165187Y-92984108D01*
X141200000Y-92809091D01*
X141200000Y-92809087D01*
X141211753Y-92750001D01*
X141209937Y-92740870D01*
X151950000Y-92740870D01*
X151950000Y-93059130D01*
X152071793Y-93353164D01*
X152296836Y-93578207D01*
X152590870Y-93700000D01*
X152909130Y-93700000D01*
X153203164Y-93578207D01*
X153281371Y-93500000D01*
X164451473Y-93500000D01*
X165551184Y-94599712D01*
X165551184Y-95710000D01*
X165586109Y-95885581D01*
X165685568Y-96034432D01*
X165834419Y-96133891D01*
X166010000Y-96168816D01*
X167510000Y-96168816D01*
X167685581Y-96133891D01*
X167834432Y-96034432D01*
X167933891Y-95885581D01*
X167968816Y-95710000D01*
X167968816Y-94210000D01*
X167933891Y-94034419D01*
X167834432Y-93885568D01*
X167685581Y-93786109D01*
X167510000Y-93751184D01*
X166399712Y-93751184D01*
X165166049Y-92517522D01*
X165132575Y-92467425D01*
X164934108Y-92334813D01*
X164759091Y-92300000D01*
X164759086Y-92300000D01*
X164700000Y-92288247D01*
X164640914Y-92300000D01*
X153281371Y-92300000D01*
X153203164Y-92221793D01*
X152909130Y-92100000D01*
X152590870Y-92100000D01*
X152296836Y-92221793D01*
X152071793Y-92446836D01*
X151950000Y-92740870D01*
X141209937Y-92740870D01*
X141200000Y-92690915D01*
X141200000Y-91431371D01*
X141278207Y-91353164D01*
X141400000Y-91059130D01*
X141400000Y-90740870D01*
X141278207Y-90446836D01*
X141053164Y-90221793D01*
X140759130Y-90100000D01*
X140440870Y-90100000D01*
X140146836Y-90221793D01*
X139921793Y-90446836D01*
X139800000Y-90740870D01*
X139800000Y-91059130D01*
X139921793Y-91353164D01*
X140000001Y-91431372D01*
X140000001Y-91593504D01*
X139982575Y-91567425D01*
X139932481Y-91533953D01*
X137066049Y-88667522D01*
X137032575Y-88617425D01*
X136834108Y-88484813D01*
X136659091Y-88450000D01*
X136659086Y-88450000D01*
X136600000Y-88438247D01*
X136540914Y-88450000D01*
X135750000Y-88450000D01*
X135750000Y-88440870D01*
X135628207Y-88146836D01*
X135403164Y-87921793D01*
X135109130Y-87800000D01*
X135000000Y-87800000D01*
X135000000Y-86198527D01*
X135648528Y-85550000D01*
X135759130Y-85550000D01*
X136053164Y-85428207D01*
X136278207Y-85203164D01*
X136400000Y-84909130D01*
X136400000Y-84590870D01*
X136278207Y-84296836D01*
X136053164Y-84071793D01*
X135759130Y-83950000D01*
X135440870Y-83950000D01*
X135146836Y-84071793D01*
X134921793Y-84296836D01*
X134800000Y-84590870D01*
X134800000Y-84701472D01*
X134017521Y-85483951D01*
X133967425Y-85517425D01*
X133834813Y-85715893D01*
X133800000Y-85890910D01*
X133800000Y-85890914D01*
X133788247Y-85950000D01*
X133800000Y-86009087D01*
X133800001Y-86999772D01*
X133559130Y-86900000D01*
X133240870Y-86900000D01*
X132946836Y-87021793D01*
X132721793Y-87246836D01*
X132600000Y-87540870D01*
X132600000Y-87651472D01*
X132217521Y-88033952D01*
X132167425Y-88067425D01*
X132034813Y-88265893D01*
X132000000Y-88440910D01*
X132000000Y-88440914D01*
X131988247Y-88500000D01*
X132000000Y-88559086D01*
X132000001Y-92240909D01*
X131988247Y-92300000D01*
X132034814Y-92534108D01*
X132122870Y-92665892D01*
X132167426Y-92732575D01*
X132217519Y-92766047D01*
X133140000Y-93688528D01*
X133140001Y-96449657D01*
X133060255Y-96482689D01*
X132722689Y-96820255D01*
X132540000Y-97261305D01*
X132540000Y-97738695D01*
X132722689Y-98179745D01*
X132792944Y-98250000D01*
X132147056Y-98250000D01*
X132217311Y-98179745D01*
X132400000Y-97738695D01*
X132400000Y-97261305D01*
X132217311Y-96820255D01*
X131879745Y-96482689D01*
X131438695Y-96300000D01*
X130961305Y-96300000D01*
X130520255Y-96482689D01*
X130182689Y-96820255D01*
X130000000Y-97261305D01*
X130000000Y-97738695D01*
X130182689Y-98179745D01*
X130252944Y-98250000D01*
X129607056Y-98250000D01*
X129677311Y-98179745D01*
X129860000Y-97738695D01*
X129860000Y-97261305D01*
X129677311Y-96820255D01*
X129339745Y-96482689D01*
X128898695Y-96300000D01*
X128421305Y-96300000D01*
X127980255Y-96482689D01*
X127642689Y-96820255D01*
X127460000Y-97261305D01*
X127460000Y-97738695D01*
X127642689Y-98179745D01*
X127712944Y-98250000D01*
X127067056Y-98250000D01*
X127137311Y-98179745D01*
X127320000Y-97738695D01*
X127320000Y-97261305D01*
X127137311Y-96820255D01*
X126799745Y-96482689D01*
X126358695Y-96300000D01*
X125881305Y-96300000D01*
X125450000Y-96478652D01*
X125450000Y-96348527D01*
X125598527Y-96200000D01*
X125709130Y-96200000D01*
X126003164Y-96078207D01*
X126228207Y-95853164D01*
X126350000Y-95559130D01*
X126350000Y-95240870D01*
X126228207Y-94946836D01*
X126003164Y-94721793D01*
X125709130Y-94600000D01*
X125390870Y-94600000D01*
X125096836Y-94721793D01*
X124871793Y-94946836D01*
X124750000Y-95240870D01*
X124750000Y-95351473D01*
X124467521Y-95633952D01*
X124417425Y-95667425D01*
X124284813Y-95865893D01*
X124250000Y-96040910D01*
X124250000Y-96040914D01*
X124238247Y-96100000D01*
X124250000Y-96159086D01*
X124250000Y-96300000D01*
X123717500Y-96300000D01*
X123605000Y-96412500D01*
X123605000Y-97475000D01*
X123625000Y-97475000D01*
X123625000Y-97525000D01*
X123605000Y-97525000D01*
X123605000Y-97545000D01*
X123555000Y-97545000D01*
X123555000Y-97525000D01*
X122492500Y-97525000D01*
X122380000Y-97637500D01*
X122380000Y-98250000D01*
X119411752Y-98250000D01*
X119509886Y-98148179D01*
X119681060Y-97712373D01*
X119587242Y-97525000D01*
X118525000Y-97525000D01*
X118525000Y-97545000D01*
X118475000Y-97545000D01*
X118475000Y-97525000D01*
X117412758Y-97525000D01*
X117318940Y-97712373D01*
X117420247Y-97970298D01*
X117144759Y-97694810D01*
X117183509Y-97500000D01*
X117141266Y-97287627D01*
X117318940Y-97287627D01*
X117412758Y-97475000D01*
X118475000Y-97475000D01*
X118475000Y-96412787D01*
X118525000Y-96412787D01*
X118525000Y-97475000D01*
X119587242Y-97475000D01*
X119681060Y-97287627D01*
X119509886Y-96851821D01*
X119325482Y-96660489D01*
X122380000Y-96660489D01*
X122380000Y-97362500D01*
X122492500Y-97475000D01*
X123555000Y-97475000D01*
X123555000Y-96412500D01*
X123442500Y-96300000D01*
X122740490Y-96300000D01*
X122575096Y-96368508D01*
X122448509Y-96495095D01*
X122380000Y-96660489D01*
X119325482Y-96660489D01*
X119184966Y-96514694D01*
X118755766Y-96327571D01*
X118712373Y-96318942D01*
X118525000Y-96412787D01*
X118475000Y-96412787D01*
X118287627Y-96318942D01*
X118244234Y-96327571D01*
X117815034Y-96514694D01*
X117490114Y-96851821D01*
X117318940Y-97287627D01*
X117141266Y-97287627D01*
X117090375Y-97031783D01*
X116825152Y-96634848D01*
X116428217Y-96369625D01*
X116078188Y-96300000D01*
X115841812Y-96300000D01*
X115491783Y-96369625D01*
X115094848Y-96634848D01*
X114829625Y-97031783D01*
X114736491Y-97500000D01*
X114829625Y-97968217D01*
X115094848Y-98365152D01*
X115491783Y-98630375D01*
X115841812Y-98700000D01*
X116078188Y-98700000D01*
X116154810Y-98684759D01*
X116866277Y-99396226D01*
X116905329Y-99454671D01*
X116935753Y-99475000D01*
X100525000Y-99475000D01*
X100525000Y-96592230D01*
X102950000Y-96592230D01*
X102950000Y-97407770D01*
X103262094Y-98161232D01*
X103838768Y-98737906D01*
X104592230Y-99050000D01*
X105407770Y-99050000D01*
X106161232Y-98737906D01*
X106737906Y-98161232D01*
X107050000Y-97407770D01*
X107050000Y-96592230D01*
X106737906Y-95838768D01*
X106161232Y-95262094D01*
X105407770Y-94950000D01*
X104592230Y-94950000D01*
X103838768Y-95262094D01*
X103262094Y-95838768D01*
X102950000Y-96592230D01*
X100525000Y-96592230D01*
X100525000Y-80900000D01*
X101736287Y-80900000D01*
X101750001Y-80968945D01*
X101750000Y-89001065D01*
X101736288Y-89070000D01*
X101750000Y-89138935D01*
X101750000Y-89138939D01*
X101790615Y-89343125D01*
X101945329Y-89574670D01*
X102003774Y-89613722D01*
X109671184Y-97281134D01*
X109671184Y-98250000D01*
X109706109Y-98425581D01*
X109805568Y-98574432D01*
X109954419Y-98673891D01*
X110130000Y-98708816D01*
X111630000Y-98708816D01*
X111805581Y-98673891D01*
X111954432Y-98574432D01*
X112053891Y-98425581D01*
X112088816Y-98250000D01*
X112088816Y-97712373D01*
X112238940Y-97712373D01*
X112410114Y-98148179D01*
X112735034Y-98485306D01*
X113164234Y-98672429D01*
X113207627Y-98681058D01*
X113395000Y-98587213D01*
X113395000Y-97525000D01*
X113445000Y-97525000D01*
X113445000Y-98587213D01*
X113632373Y-98681058D01*
X113675766Y-98672429D01*
X114104966Y-98485306D01*
X114429886Y-98148179D01*
X114601060Y-97712373D01*
X114507242Y-97525000D01*
X113445000Y-97525000D01*
X113395000Y-97525000D01*
X112332758Y-97525000D01*
X112238940Y-97712373D01*
X112088816Y-97712373D01*
X112088816Y-97287627D01*
X112238940Y-97287627D01*
X112332758Y-97475000D01*
X113395000Y-97475000D01*
X113395000Y-96412787D01*
X113445000Y-96412787D01*
X113445000Y-97475000D01*
X114507242Y-97475000D01*
X114601060Y-97287627D01*
X114429886Y-96851821D01*
X114104966Y-96514694D01*
X113675766Y-96327571D01*
X113632373Y-96318942D01*
X113445000Y-96412787D01*
X113395000Y-96412787D01*
X113207627Y-96318942D01*
X113164234Y-96327571D01*
X112735034Y-96514694D01*
X112410114Y-96851821D01*
X112238940Y-97287627D01*
X112088816Y-97287627D01*
X112088816Y-97139711D01*
X113382481Y-95846047D01*
X113432575Y-95812575D01*
X113468312Y-95759091D01*
X113565187Y-95614109D01*
X113580960Y-95534813D01*
X113600000Y-95439091D01*
X113600000Y-95439088D01*
X113611753Y-95380000D01*
X113600000Y-95320912D01*
X113600000Y-93281371D01*
X113678207Y-93203164D01*
X113800000Y-92909130D01*
X113800000Y-92590870D01*
X113678207Y-92296836D01*
X113453164Y-92071793D01*
X113159130Y-91950000D01*
X112840870Y-91950000D01*
X112546836Y-92071793D01*
X112321793Y-92296836D01*
X112200000Y-92590870D01*
X112200000Y-92909130D01*
X112321793Y-93203164D01*
X112400000Y-93281371D01*
X112400001Y-95131471D01*
X111240289Y-96291184D01*
X110661134Y-96291184D01*
X103150000Y-88780052D01*
X103150000Y-84952035D01*
X109183321Y-84952035D01*
X109361780Y-85246796D01*
X110124504Y-85587675D01*
X110959618Y-85610725D01*
X111739983Y-85312436D01*
X111838220Y-85246796D01*
X112016679Y-84952035D01*
X117983321Y-84952035D01*
X118161780Y-85246796D01*
X118924504Y-85587675D01*
X119759618Y-85610725D01*
X120539983Y-85312436D01*
X120638220Y-85246796D01*
X120816679Y-84952035D01*
X119400000Y-83535355D01*
X117983321Y-84952035D01*
X112016679Y-84952035D01*
X110600000Y-83535355D01*
X109183321Y-84952035D01*
X103150000Y-84952035D01*
X103150000Y-83859618D01*
X108489275Y-83859618D01*
X108787564Y-84639983D01*
X108853204Y-84738220D01*
X109147965Y-84916679D01*
X110564645Y-83500000D01*
X110635355Y-83500000D01*
X112052035Y-84916679D01*
X112346796Y-84738220D01*
X112687675Y-83975496D01*
X112690873Y-83859618D01*
X117289275Y-83859618D01*
X117587564Y-84639983D01*
X117653204Y-84738220D01*
X117947965Y-84916679D01*
X119364645Y-83500000D01*
X119435355Y-83500000D01*
X120852035Y-84916679D01*
X121146796Y-84738220D01*
X121487675Y-83975496D01*
X121510725Y-83140382D01*
X121212436Y-82360017D01*
X121146796Y-82261780D01*
X120852035Y-82083321D01*
X119435355Y-83500000D01*
X119364645Y-83500000D01*
X117947965Y-82083321D01*
X117653204Y-82261780D01*
X117312325Y-83024504D01*
X117289275Y-83859618D01*
X112690873Y-83859618D01*
X112710725Y-83140382D01*
X112412436Y-82360017D01*
X112346796Y-82261780D01*
X112052035Y-82083321D01*
X110635355Y-83500000D01*
X110564645Y-83500000D01*
X109147965Y-82083321D01*
X108853204Y-82261780D01*
X108512325Y-83024504D01*
X108489275Y-83859618D01*
X103150000Y-83859618D01*
X103150000Y-82047965D01*
X109183321Y-82047965D01*
X110600000Y-83464645D01*
X112016679Y-82047965D01*
X117983321Y-82047965D01*
X119400000Y-83464645D01*
X120816679Y-82047965D01*
X120638220Y-81753204D01*
X119875496Y-81412325D01*
X119040382Y-81389275D01*
X118260017Y-81687564D01*
X118161780Y-81753204D01*
X117983321Y-82047965D01*
X112016679Y-82047965D01*
X111838220Y-81753204D01*
X111075496Y-81412325D01*
X110240382Y-81389275D01*
X109460017Y-81687564D01*
X109361780Y-81753204D01*
X109183321Y-82047965D01*
X103150000Y-82047965D01*
X103150000Y-81600000D01*
X107349449Y-81600000D01*
X107590870Y-81700000D01*
X107909130Y-81700000D01*
X108203164Y-81578207D01*
X108428207Y-81353164D01*
X108550000Y-81059130D01*
X108550000Y-80740870D01*
X108428207Y-80446836D01*
X108203164Y-80221793D01*
X107909130Y-80100000D01*
X107590870Y-80100000D01*
X107349449Y-80200000D01*
X103150000Y-80200000D01*
X103150000Y-79539948D01*
X105346228Y-77343721D01*
X105404670Y-77304671D01*
X105443720Y-77246229D01*
X105443722Y-77246227D01*
X105559384Y-77073127D01*
X105559385Y-77073126D01*
X105600000Y-76868940D01*
X105600000Y-76868936D01*
X105613712Y-76800001D01*
X105600000Y-76731066D01*
X105600000Y-76408816D01*
X105650000Y-76408816D01*
X105825581Y-76373891D01*
X105974432Y-76274432D01*
X106003139Y-76231468D01*
X111150000Y-76231468D01*
X111150000Y-76768532D01*
X111355525Y-77264714D01*
X111735286Y-77644475D01*
X112231468Y-77850000D01*
X112768532Y-77850000D01*
X113264714Y-77644475D01*
X113644475Y-77264714D01*
X113750000Y-77009954D01*
X113855525Y-77264714D01*
X114235286Y-77644475D01*
X114731468Y-77850000D01*
X115268532Y-77850000D01*
X115433246Y-77781773D01*
X116283952Y-78632480D01*
X116317425Y-78682575D01*
X116367519Y-78716047D01*
X116515891Y-78815187D01*
X116557687Y-78823501D01*
X116690909Y-78850000D01*
X116690912Y-78850000D01*
X116750000Y-78861753D01*
X116809088Y-78850000D01*
X124301473Y-78850000D01*
X124592301Y-79140829D01*
X124396836Y-79221793D01*
X124171793Y-79446836D01*
X124050000Y-79740870D01*
X124050000Y-80059130D01*
X124171793Y-80353164D01*
X124396836Y-80578207D01*
X124690870Y-80700000D01*
X124801473Y-80700000D01*
X125333952Y-81232480D01*
X125367425Y-81282575D01*
X125565892Y-81415187D01*
X125740909Y-81450000D01*
X125740913Y-81450000D01*
X125800000Y-81461753D01*
X125859086Y-81450000D01*
X126158350Y-81450000D01*
X126100000Y-81590870D01*
X126100000Y-81909130D01*
X126221793Y-82203164D01*
X126446836Y-82428207D01*
X126740870Y-82550000D01*
X127059130Y-82550000D01*
X127353164Y-82428207D01*
X127431371Y-82350000D01*
X133450000Y-82350000D01*
X133450000Y-82459130D01*
X133571793Y-82753164D01*
X133796836Y-82978207D01*
X134090870Y-83100000D01*
X134409130Y-83100000D01*
X134703164Y-82978207D01*
X134928207Y-82753164D01*
X135003147Y-82572243D01*
X135190870Y-82650000D01*
X135509130Y-82650000D01*
X135803164Y-82528207D01*
X136028207Y-82303164D01*
X136150000Y-82009130D01*
X136150000Y-81690870D01*
X136112360Y-81600000D01*
X138368629Y-81600000D01*
X138446836Y-81678207D01*
X138740870Y-81800000D01*
X139059130Y-81800000D01*
X139353164Y-81678207D01*
X139578207Y-81453164D01*
X139700000Y-81159130D01*
X139700000Y-80840870D01*
X139578207Y-80546836D01*
X139353164Y-80321793D01*
X139059130Y-80200000D01*
X138740870Y-80200000D01*
X138446836Y-80321793D01*
X138368629Y-80400000D01*
X136048529Y-80400000D01*
X135448527Y-79800000D01*
X142210052Y-79800000D01*
X143021792Y-80611741D01*
X143121793Y-80853164D01*
X143346836Y-81078207D01*
X143588260Y-81178208D01*
X145210050Y-82800000D01*
X143353774Y-84656278D01*
X143295329Y-84695330D01*
X143140615Y-84926875D01*
X143100000Y-85131061D01*
X143100000Y-85131065D01*
X143086288Y-85200000D01*
X143100000Y-85268935D01*
X143100001Y-86349447D01*
X143000000Y-86590870D01*
X143000000Y-86909130D01*
X143121793Y-87203164D01*
X143346836Y-87428207D01*
X143640870Y-87550000D01*
X143959130Y-87550000D01*
X144253164Y-87428207D01*
X144478207Y-87203164D01*
X144600000Y-86909130D01*
X144600000Y-86590870D01*
X144500000Y-86349449D01*
X144500000Y-85489948D01*
X145037913Y-84952035D01*
X149183321Y-84952035D01*
X149361780Y-85246796D01*
X150124504Y-85587675D01*
X150959618Y-85610725D01*
X151739983Y-85312436D01*
X151838220Y-85246796D01*
X152016679Y-84952035D01*
X157983321Y-84952035D01*
X158161780Y-85246796D01*
X158924504Y-85587675D01*
X159759618Y-85610725D01*
X160539983Y-85312436D01*
X160638220Y-85246796D01*
X160816679Y-84952035D01*
X159400000Y-83535355D01*
X157983321Y-84952035D01*
X152016679Y-84952035D01*
X150600000Y-83535355D01*
X149183321Y-84952035D01*
X145037913Y-84952035D01*
X146130331Y-83859618D01*
X148489275Y-83859618D01*
X148787564Y-84639983D01*
X148853204Y-84738220D01*
X149147965Y-84916679D01*
X150564645Y-83500000D01*
X150635355Y-83500000D01*
X152052035Y-84916679D01*
X152346796Y-84738220D01*
X152687675Y-83975496D01*
X152690873Y-83859618D01*
X157289275Y-83859618D01*
X157587564Y-84639983D01*
X157653204Y-84738220D01*
X157947965Y-84916679D01*
X159364645Y-83500000D01*
X159435355Y-83500000D01*
X160852035Y-84916679D01*
X161146796Y-84738220D01*
X161487675Y-83975496D01*
X161510725Y-83140382D01*
X161212436Y-82360017D01*
X161146796Y-82261780D01*
X160852035Y-82083321D01*
X159435355Y-83500000D01*
X159364645Y-83500000D01*
X157947965Y-82083321D01*
X157653204Y-82261780D01*
X157312325Y-83024504D01*
X157289275Y-83859618D01*
X152690873Y-83859618D01*
X152710725Y-83140382D01*
X152412436Y-82360017D01*
X152346796Y-82261780D01*
X152052035Y-82083321D01*
X150635355Y-83500000D01*
X150564645Y-83500000D01*
X149147965Y-82083321D01*
X148853204Y-82261780D01*
X148512325Y-83024504D01*
X148489275Y-83859618D01*
X146130331Y-83859618D01*
X146646229Y-83343721D01*
X146704671Y-83304671D01*
X146743721Y-83246229D01*
X146743723Y-83246227D01*
X146743727Y-83246221D01*
X147941983Y-82047965D01*
X149183321Y-82047965D01*
X150600000Y-83464645D01*
X152016679Y-82047965D01*
X157983321Y-82047965D01*
X159400000Y-83464645D01*
X160816679Y-82047965D01*
X160638220Y-81753204D01*
X159875496Y-81412325D01*
X159040382Y-81389275D01*
X158260017Y-81687564D01*
X158161780Y-81753204D01*
X157983321Y-82047965D01*
X152016679Y-82047965D01*
X151838220Y-81753204D01*
X151075496Y-81412325D01*
X150240382Y-81389275D01*
X149460017Y-81687564D01*
X149361780Y-81753204D01*
X149183321Y-82047965D01*
X147941983Y-82047965D01*
X152166755Y-77823195D01*
X152231468Y-77850000D01*
X152768532Y-77850000D01*
X153264714Y-77644475D01*
X153644475Y-77264714D01*
X153750000Y-77009954D01*
X153855525Y-77264714D01*
X154235286Y-77644475D01*
X154731468Y-77850000D01*
X155268532Y-77850000D01*
X155764714Y-77644475D01*
X155997940Y-77411249D01*
X156624106Y-77411249D01*
X156711303Y-77628081D01*
X157203037Y-77844033D01*
X157739981Y-77855367D01*
X158240390Y-77660359D01*
X158288697Y-77628081D01*
X158375894Y-77411249D01*
X157500000Y-76535355D01*
X156624106Y-77411249D01*
X155997940Y-77411249D01*
X156144475Y-77264714D01*
X156249918Y-77010152D01*
X156339641Y-77240390D01*
X156371919Y-77288697D01*
X156588751Y-77375894D01*
X157464645Y-76500000D01*
X157535355Y-76500000D01*
X158411249Y-77375894D01*
X158628081Y-77288697D01*
X158844033Y-76796963D01*
X158855367Y-76260019D01*
X158660359Y-75759610D01*
X158628081Y-75711303D01*
X158411249Y-75624106D01*
X157535355Y-76500000D01*
X157464645Y-76500000D01*
X156588751Y-75624106D01*
X156371919Y-75711303D01*
X156249760Y-75989466D01*
X156144475Y-75735286D01*
X155997940Y-75588751D01*
X156624106Y-75588751D01*
X157500000Y-76464645D01*
X158375894Y-75588751D01*
X158288697Y-75371919D01*
X157796963Y-75155967D01*
X157260019Y-75144633D01*
X156759610Y-75339641D01*
X156711303Y-75371919D01*
X156624106Y-75588751D01*
X155997940Y-75588751D01*
X155764714Y-75355525D01*
X155268532Y-75150000D01*
X154839949Y-75150000D01*
X158061743Y-71928207D01*
X158303164Y-71828207D01*
X158528207Y-71603164D01*
X158650000Y-71309130D01*
X158650000Y-71300000D01*
X164255348Y-71300000D01*
X164228604Y-71340025D01*
X164171793Y-71396836D01*
X164141046Y-71471065D01*
X164096418Y-71537856D01*
X164080747Y-71616641D01*
X164050000Y-71690870D01*
X164050000Y-71771216D01*
X164034329Y-71850000D01*
X164050000Y-71928784D01*
X164050000Y-72009130D01*
X164080747Y-72083359D01*
X164096418Y-72162144D01*
X164141046Y-72228935D01*
X164171793Y-72303164D01*
X164396836Y-72528207D01*
X164396838Y-72528208D01*
X167350000Y-75481371D01*
X167350001Y-82671211D01*
X167334329Y-82750000D01*
X167350001Y-82828789D01*
X167379722Y-82978207D01*
X167396418Y-83062144D01*
X167528603Y-83259973D01*
X167528605Y-83259975D01*
X167573234Y-83326767D01*
X167640026Y-83371396D01*
X171378604Y-87109975D01*
X171423233Y-87176767D01*
X171490025Y-87221396D01*
X171490026Y-87221397D01*
X171539824Y-87254671D01*
X171687856Y-87353583D01*
X171921211Y-87400000D01*
X171921215Y-87400000D01*
X171999999Y-87415671D01*
X172078783Y-87400000D01*
X173463833Y-87400000D01*
X173425568Y-87425568D01*
X173326109Y-87574419D01*
X173291184Y-87750000D01*
X173291184Y-88350000D01*
X173326109Y-88525581D01*
X173425568Y-88674432D01*
X173463833Y-88700000D01*
X173425568Y-88725568D01*
X173326109Y-88874419D01*
X173291184Y-89050000D01*
X173291184Y-89650000D01*
X173326109Y-89825581D01*
X173425568Y-89974432D01*
X173498700Y-90023297D01*
X173450000Y-90140870D01*
X173450000Y-90459130D01*
X173571793Y-90753164D01*
X173796836Y-90978207D01*
X174090870Y-91100000D01*
X174409130Y-91100000D01*
X174703164Y-90978207D01*
X174928207Y-90753164D01*
X175050000Y-90459130D01*
X175050000Y-90140870D01*
X175001300Y-90023297D01*
X175074432Y-89974432D01*
X175173891Y-89825581D01*
X175208816Y-89650000D01*
X175208816Y-89487500D01*
X175300000Y-89487500D01*
X175300000Y-89739510D01*
X175368508Y-89904904D01*
X175495095Y-90031491D01*
X175660489Y-90100000D01*
X176112500Y-90100000D01*
X176225000Y-89987500D01*
X176225000Y-89375000D01*
X176275000Y-89375000D01*
X176275000Y-89987500D01*
X176387500Y-90100000D01*
X176839511Y-90100000D01*
X177004905Y-90031491D01*
X177131492Y-89904904D01*
X177200000Y-89739510D01*
X177200000Y-89487500D01*
X177087500Y-89375000D01*
X176275000Y-89375000D01*
X176225000Y-89375000D01*
X175412500Y-89375000D01*
X175300000Y-89487500D01*
X175208816Y-89487500D01*
X175208816Y-89050000D01*
X175173891Y-88874419D01*
X175074432Y-88725568D01*
X175036167Y-88700000D01*
X175074432Y-88674432D01*
X175173891Y-88525581D01*
X175208816Y-88350000D01*
X175208816Y-87750000D01*
X175173891Y-87574419D01*
X175074432Y-87425568D01*
X175036167Y-87400000D01*
X175463833Y-87400000D01*
X175425568Y-87425568D01*
X175326109Y-87574419D01*
X175291184Y-87750000D01*
X175291184Y-88350000D01*
X175326109Y-88525581D01*
X175425568Y-88674432D01*
X175463696Y-88699908D01*
X175368508Y-88795096D01*
X175300000Y-88960490D01*
X175300000Y-89212500D01*
X175412500Y-89325000D01*
X176225000Y-89325000D01*
X176225000Y-89305000D01*
X176275000Y-89305000D01*
X176275000Y-89325000D01*
X177087500Y-89325000D01*
X177200000Y-89212500D01*
X177200000Y-88960490D01*
X177131492Y-88795096D01*
X177036304Y-88699908D01*
X177074432Y-88674432D01*
X177090757Y-88650000D01*
X177501473Y-88650000D01*
X178583953Y-89732481D01*
X178617425Y-89782575D01*
X178815892Y-89915187D01*
X178990909Y-89950000D01*
X178990912Y-89950000D01*
X179050000Y-89961753D01*
X179109088Y-89950000D01*
X193409243Y-89950000D01*
X193425568Y-89974432D01*
X193574419Y-90073891D01*
X193750000Y-90108816D01*
X194750000Y-90108816D01*
X194925581Y-90073891D01*
X195074432Y-89974432D01*
X195173891Y-89825581D01*
X195208816Y-89650000D01*
X195208816Y-89487500D01*
X195300000Y-89487500D01*
X195300000Y-89739510D01*
X195368508Y-89904904D01*
X195495095Y-90031491D01*
X195660489Y-90100000D01*
X196112500Y-90100000D01*
X196225000Y-89987500D01*
X196225000Y-89375000D01*
X196275000Y-89375000D01*
X196275000Y-89987500D01*
X196387500Y-90100000D01*
X196839511Y-90100000D01*
X197004905Y-90031491D01*
X197131492Y-89904904D01*
X197200000Y-89739510D01*
X197200000Y-89487500D01*
X197087500Y-89375000D01*
X196275000Y-89375000D01*
X196225000Y-89375000D01*
X195412500Y-89375000D01*
X195300000Y-89487500D01*
X195208816Y-89487500D01*
X195208816Y-89050000D01*
X195173891Y-88874419D01*
X195074432Y-88725568D01*
X195036167Y-88700000D01*
X195074432Y-88674432D01*
X195173891Y-88525581D01*
X195208816Y-88350000D01*
X195208816Y-87750000D01*
X195173891Y-87574419D01*
X195074432Y-87425568D01*
X194925581Y-87326109D01*
X194750000Y-87291184D01*
X193750000Y-87291184D01*
X193574419Y-87326109D01*
X193538664Y-87350000D01*
X193500551Y-87350000D01*
X193478938Y-87341048D01*
X193412144Y-87296417D01*
X193333355Y-87280745D01*
X193259130Y-87250000D01*
X179981370Y-87250000D01*
X178821398Y-86090028D01*
X178776767Y-86023233D01*
X178512144Y-85846417D01*
X178278789Y-85800000D01*
X178278784Y-85800000D01*
X178200000Y-85784329D01*
X178121216Y-85800000D01*
X172331371Y-85800000D01*
X171014729Y-84483358D01*
X172051997Y-84483358D01*
X172151364Y-84710580D01*
X172679231Y-84943189D01*
X173255932Y-84956086D01*
X173793671Y-84747307D01*
X173848636Y-84710580D01*
X173948003Y-84483358D01*
X173000000Y-83535355D01*
X172051997Y-84483358D01*
X171014729Y-84483358D01*
X170287303Y-83755932D01*
X171543914Y-83755932D01*
X171752693Y-84293671D01*
X171789420Y-84348636D01*
X172016642Y-84448003D01*
X172964645Y-83500000D01*
X173035355Y-83500000D01*
X173983358Y-84448003D01*
X174210580Y-84348636D01*
X174443189Y-83820769D01*
X174456086Y-83244068D01*
X174443472Y-83211577D01*
X176050000Y-83211577D01*
X176050000Y-83788423D01*
X176270750Y-84321359D01*
X176678641Y-84729250D01*
X177211577Y-84950000D01*
X177788423Y-84950000D01*
X178321359Y-84729250D01*
X178729250Y-84321359D01*
X178950000Y-83788423D01*
X178950000Y-83211577D01*
X178729250Y-82678641D01*
X178321359Y-82270750D01*
X177788423Y-82050000D01*
X177211577Y-82050000D01*
X176678641Y-82270750D01*
X176270750Y-82678641D01*
X176050000Y-83211577D01*
X174443472Y-83211577D01*
X174247307Y-82706329D01*
X174210580Y-82651364D01*
X173983358Y-82551997D01*
X173035355Y-83500000D01*
X172964645Y-83500000D01*
X172016642Y-82551997D01*
X171789420Y-82651364D01*
X171556811Y-83179231D01*
X171543914Y-83755932D01*
X170287303Y-83755932D01*
X169048013Y-82516642D01*
X172051997Y-82516642D01*
X173000000Y-83464645D01*
X173948003Y-82516642D01*
X173848636Y-82289420D01*
X173320769Y-82056811D01*
X172744068Y-82043914D01*
X172206329Y-82252693D01*
X172151364Y-82289420D01*
X172051997Y-82516642D01*
X169048013Y-82516642D01*
X168950000Y-82418630D01*
X168950000Y-77983358D01*
X172051997Y-77983358D01*
X172151364Y-78210580D01*
X172679231Y-78443189D01*
X173255932Y-78456086D01*
X173793671Y-78247307D01*
X173848636Y-78210580D01*
X173948003Y-77983358D01*
X173000000Y-77035355D01*
X172051997Y-77983358D01*
X168950000Y-77983358D01*
X168950000Y-77255932D01*
X171543914Y-77255932D01*
X171752693Y-77793671D01*
X171789420Y-77848636D01*
X172016642Y-77948003D01*
X172964645Y-77000000D01*
X173035355Y-77000000D01*
X173983358Y-77948003D01*
X174210580Y-77848636D01*
X174443189Y-77320769D01*
X174456086Y-76744068D01*
X174443472Y-76711577D01*
X176050000Y-76711577D01*
X176050000Y-77288423D01*
X176270750Y-77821359D01*
X176678641Y-78229250D01*
X177211577Y-78450000D01*
X177788423Y-78450000D01*
X178321359Y-78229250D01*
X178729250Y-77821359D01*
X178950000Y-77288423D01*
X178950000Y-76711577D01*
X178729250Y-76178641D01*
X178321359Y-75770750D01*
X177788423Y-75550000D01*
X177211577Y-75550000D01*
X176678641Y-75770750D01*
X176270750Y-76178641D01*
X176050000Y-76711577D01*
X174443472Y-76711577D01*
X174247307Y-76206329D01*
X174210580Y-76151364D01*
X173983358Y-76051997D01*
X173035355Y-77000000D01*
X172964645Y-77000000D01*
X172016642Y-76051997D01*
X171789420Y-76151364D01*
X171556811Y-76679231D01*
X171543914Y-77255932D01*
X168950000Y-77255932D01*
X168950000Y-76016642D01*
X172051997Y-76016642D01*
X173000000Y-76964645D01*
X173948003Y-76016642D01*
X173848636Y-75789420D01*
X173320769Y-75556811D01*
X172744068Y-75543914D01*
X172206329Y-75752693D01*
X172151364Y-75789420D01*
X172051997Y-76016642D01*
X168950000Y-76016642D01*
X168950000Y-75228784D01*
X168965671Y-75150000D01*
X168950000Y-75071216D01*
X168950000Y-74990870D01*
X168919255Y-74916645D01*
X168903583Y-74837856D01*
X168858952Y-74771062D01*
X168850228Y-74750000D01*
X177701473Y-74750000D01*
X179550000Y-76598529D01*
X179550000Y-76709130D01*
X179671793Y-77003164D01*
X179896836Y-77228207D01*
X180190870Y-77350000D01*
X180509130Y-77350000D01*
X180803164Y-77228207D01*
X181028207Y-77003164D01*
X181148986Y-76711577D01*
X191550000Y-76711577D01*
X191550000Y-77288423D01*
X191770750Y-77821359D01*
X192178641Y-78229250D01*
X192400000Y-78320940D01*
X192400001Y-82179059D01*
X192178641Y-82270750D01*
X191770750Y-82678641D01*
X191550000Y-83211577D01*
X191550000Y-83788423D01*
X191770750Y-84321359D01*
X192178641Y-84729250D01*
X192711577Y-84950000D01*
X193288423Y-84950000D01*
X193821359Y-84729250D01*
X194067251Y-84483358D01*
X196551997Y-84483358D01*
X196651364Y-84710580D01*
X197179231Y-84943189D01*
X197755932Y-84956086D01*
X198293671Y-84747307D01*
X198348636Y-84710580D01*
X198448003Y-84483358D01*
X197500000Y-83535355D01*
X196551997Y-84483358D01*
X194067251Y-84483358D01*
X194229250Y-84321359D01*
X194450000Y-83788423D01*
X194450000Y-83755932D01*
X196043914Y-83755932D01*
X196252693Y-84293671D01*
X196289420Y-84348636D01*
X196516642Y-84448003D01*
X197464645Y-83500000D01*
X197535355Y-83500000D01*
X198483358Y-84448003D01*
X198710580Y-84348636D01*
X198943189Y-83820769D01*
X198956086Y-83244068D01*
X198747307Y-82706329D01*
X198710580Y-82651364D01*
X198483358Y-82551997D01*
X197535355Y-83500000D01*
X197464645Y-83500000D01*
X196516642Y-82551997D01*
X196289420Y-82651364D01*
X196056811Y-83179231D01*
X196043914Y-83755932D01*
X194450000Y-83755932D01*
X194450000Y-83211577D01*
X194229250Y-82678641D01*
X194067251Y-82516642D01*
X196551997Y-82516642D01*
X197500000Y-83464645D01*
X198448003Y-82516642D01*
X198348636Y-82289420D01*
X197820769Y-82056811D01*
X197244068Y-82043914D01*
X196706329Y-82252693D01*
X196651364Y-82289420D01*
X196551997Y-82516642D01*
X194067251Y-82516642D01*
X193821359Y-82270750D01*
X193600000Y-82179060D01*
X193600000Y-78320940D01*
X193821359Y-78229250D01*
X194067251Y-77983358D01*
X196551997Y-77983358D01*
X196651364Y-78210580D01*
X197179231Y-78443189D01*
X197755932Y-78456086D01*
X198293671Y-78247307D01*
X198348636Y-78210580D01*
X198448003Y-77983358D01*
X197500000Y-77035355D01*
X196551997Y-77983358D01*
X194067251Y-77983358D01*
X194229250Y-77821359D01*
X194450000Y-77288423D01*
X194450000Y-77255932D01*
X196043914Y-77255932D01*
X196252693Y-77793671D01*
X196289420Y-77848636D01*
X196516642Y-77948003D01*
X197464645Y-77000000D01*
X197535355Y-77000000D01*
X198483358Y-77948003D01*
X198710580Y-77848636D01*
X198943189Y-77320769D01*
X198956086Y-76744068D01*
X198747307Y-76206329D01*
X198710580Y-76151364D01*
X198483358Y-76051997D01*
X197535355Y-77000000D01*
X197464645Y-77000000D01*
X196516642Y-76051997D01*
X196289420Y-76151364D01*
X196056811Y-76679231D01*
X196043914Y-77255932D01*
X194450000Y-77255932D01*
X194450000Y-76711577D01*
X194229250Y-76178641D01*
X194067251Y-76016642D01*
X196551997Y-76016642D01*
X197500000Y-76964645D01*
X198448003Y-76016642D01*
X198348636Y-75789420D01*
X197820769Y-75556811D01*
X197244068Y-75543914D01*
X196706329Y-75752693D01*
X196651364Y-75789420D01*
X196551997Y-76016642D01*
X194067251Y-76016642D01*
X193821359Y-75770750D01*
X193288423Y-75550000D01*
X192711577Y-75550000D01*
X192178641Y-75770750D01*
X191770750Y-76178641D01*
X191550000Y-76711577D01*
X181148986Y-76711577D01*
X181150000Y-76709130D01*
X181150000Y-76390870D01*
X181028207Y-76096836D01*
X180803164Y-75871793D01*
X180509130Y-75750000D01*
X180398529Y-75750000D01*
X178416049Y-73767521D01*
X178382575Y-73717425D01*
X178184108Y-73584813D01*
X178009091Y-73550000D01*
X178009086Y-73550000D01*
X177950000Y-73538247D01*
X177890914Y-73550000D01*
X168898528Y-73550000D01*
X165666049Y-70317522D01*
X165632575Y-70267425D01*
X165434108Y-70134813D01*
X165259091Y-70100000D01*
X165259086Y-70100000D01*
X165200000Y-70088247D01*
X165140914Y-70100000D01*
X158359086Y-70100000D01*
X158299999Y-70088247D01*
X158240913Y-70100000D01*
X158240909Y-70100000D01*
X158065892Y-70134813D01*
X157867425Y-70267425D01*
X157833953Y-70317519D01*
X157801472Y-70350000D01*
X157690870Y-70350000D01*
X157396836Y-70471793D01*
X157171793Y-70696836D01*
X157071793Y-70938257D01*
X152833246Y-75176805D01*
X152768532Y-75150000D01*
X152231468Y-75150000D01*
X151735286Y-75355525D01*
X151355525Y-75735286D01*
X151150000Y-76231468D01*
X151150000Y-76768532D01*
X151176805Y-76833245D01*
X146200001Y-81810051D01*
X144578208Y-80188260D01*
X144478207Y-79946836D01*
X144253164Y-79721793D01*
X144011741Y-79621792D01*
X143043724Y-78653776D01*
X143004671Y-78595329D01*
X142773126Y-78440615D01*
X142568940Y-78400000D01*
X142568935Y-78400000D01*
X142500000Y-78386288D01*
X142431065Y-78400000D01*
X128750551Y-78400000D01*
X128509130Y-78300000D01*
X128190870Y-78300000D01*
X127896836Y-78421793D01*
X127671793Y-78646836D01*
X127550000Y-78940870D01*
X127550000Y-79259130D01*
X127670482Y-79550000D01*
X126698528Y-79550000D01*
X125016049Y-77867522D01*
X124982575Y-77817425D01*
X124784108Y-77684813D01*
X124609091Y-77650000D01*
X124609086Y-77650000D01*
X124550000Y-77638247D01*
X124490914Y-77650000D01*
X118255893Y-77650000D01*
X118288697Y-77628081D01*
X118375894Y-77411249D01*
X117500000Y-76535355D01*
X117485858Y-76549498D01*
X117450503Y-76514143D01*
X117464645Y-76500000D01*
X117535355Y-76500000D01*
X118411249Y-77375894D01*
X118628081Y-77288697D01*
X118844033Y-76796963D01*
X118855367Y-76260019D01*
X118660359Y-75759610D01*
X118628081Y-75711303D01*
X118411249Y-75624106D01*
X117535355Y-76500000D01*
X117464645Y-76500000D01*
X116588751Y-75624106D01*
X116371919Y-75711303D01*
X116249760Y-75989466D01*
X116144475Y-75735286D01*
X115997940Y-75588751D01*
X116624106Y-75588751D01*
X117500000Y-76464645D01*
X118375894Y-75588751D01*
X118288697Y-75371919D01*
X117796963Y-75155967D01*
X117260019Y-75144633D01*
X116759610Y-75339641D01*
X116711303Y-75371919D01*
X116624106Y-75588751D01*
X115997940Y-75588751D01*
X115764714Y-75355525D01*
X115268532Y-75150000D01*
X114731468Y-75150000D01*
X114235286Y-75355525D01*
X113855525Y-75735286D01*
X113750000Y-75990046D01*
X113644475Y-75735286D01*
X113264714Y-75355525D01*
X112768532Y-75150000D01*
X112231468Y-75150000D01*
X111735286Y-75355525D01*
X111355525Y-75735286D01*
X111150000Y-76231468D01*
X106003139Y-76231468D01*
X106073891Y-76125581D01*
X106108816Y-75950000D01*
X106108816Y-74450000D01*
X106095506Y-74383081D01*
X122812274Y-74383081D01*
X122881214Y-74584328D01*
X123318746Y-74775291D01*
X123796051Y-74784282D01*
X124240464Y-74609933D01*
X124278786Y-74584328D01*
X124347726Y-74383081D01*
X125352274Y-74383081D01*
X125421214Y-74584328D01*
X125858746Y-74775291D01*
X126336051Y-74784282D01*
X126780464Y-74609933D01*
X126818786Y-74584328D01*
X126887726Y-74383081D01*
X127892274Y-74383081D01*
X127961214Y-74584328D01*
X128398746Y-74775291D01*
X128876051Y-74784282D01*
X129320464Y-74609933D01*
X129358786Y-74584328D01*
X129427726Y-74383081D01*
X130432274Y-74383081D01*
X130501214Y-74584328D01*
X130938746Y-74775291D01*
X131416051Y-74784282D01*
X131860464Y-74609933D01*
X131898786Y-74584328D01*
X131967726Y-74383081D01*
X132972274Y-74383081D01*
X133041214Y-74584328D01*
X133478746Y-74775291D01*
X133956051Y-74784282D01*
X134400464Y-74609933D01*
X134438786Y-74584328D01*
X134507726Y-74383081D01*
X135512274Y-74383081D01*
X135581214Y-74584328D01*
X136018746Y-74775291D01*
X136496051Y-74784282D01*
X136940464Y-74609933D01*
X136978786Y-74584328D01*
X137047726Y-74383081D01*
X138052274Y-74383081D01*
X138121214Y-74584328D01*
X138558746Y-74775291D01*
X139036051Y-74784282D01*
X139480464Y-74609933D01*
X139518786Y-74584328D01*
X139587726Y-74383081D01*
X140592274Y-74383081D01*
X140661214Y-74584328D01*
X141098746Y-74775291D01*
X141576051Y-74784282D01*
X142020464Y-74609933D01*
X142058786Y-74584328D01*
X142127726Y-74383081D01*
X143132274Y-74383081D01*
X143201214Y-74584328D01*
X143638746Y-74775291D01*
X144116051Y-74784282D01*
X144560464Y-74609933D01*
X144598786Y-74584328D01*
X144667726Y-74383081D01*
X145672274Y-74383081D01*
X145741214Y-74584328D01*
X146178746Y-74775291D01*
X146656051Y-74784282D01*
X147100464Y-74609933D01*
X147138786Y-74584328D01*
X147207726Y-74383081D01*
X146440000Y-73615355D01*
X145672274Y-74383081D01*
X144667726Y-74383081D01*
X143900000Y-73615355D01*
X143132274Y-74383081D01*
X142127726Y-74383081D01*
X141360000Y-73615355D01*
X140592274Y-74383081D01*
X139587726Y-74383081D01*
X138820000Y-73615355D01*
X138052274Y-74383081D01*
X137047726Y-74383081D01*
X136280000Y-73615355D01*
X135512274Y-74383081D01*
X134507726Y-74383081D01*
X133740000Y-73615355D01*
X132972274Y-74383081D01*
X131967726Y-74383081D01*
X131200000Y-73615355D01*
X130432274Y-74383081D01*
X129427726Y-74383081D01*
X128660000Y-73615355D01*
X127892274Y-74383081D01*
X126887726Y-74383081D01*
X126120000Y-73615355D01*
X125352274Y-74383081D01*
X124347726Y-74383081D01*
X123580000Y-73615355D01*
X122812274Y-74383081D01*
X106095506Y-74383081D01*
X106073891Y-74274419D01*
X105974432Y-74125568D01*
X105825581Y-74026109D01*
X105650000Y-73991184D01*
X104150000Y-73991184D01*
X103974419Y-74026109D01*
X103825568Y-74125568D01*
X103726109Y-74274419D01*
X103691184Y-74450000D01*
X103691184Y-75950000D01*
X103726109Y-76125581D01*
X103825568Y-76274432D01*
X103974419Y-76373891D01*
X104150000Y-76408816D01*
X104200000Y-76408816D01*
X104200000Y-76510051D01*
X102003774Y-78706278D01*
X101945330Y-78745329D01*
X101906278Y-78803774D01*
X101790616Y-78976874D01*
X101736288Y-79250000D01*
X101750001Y-79318940D01*
X101750000Y-80831060D01*
X101736287Y-80900000D01*
X100525000Y-80900000D01*
X100525000Y-75412373D01*
X101178940Y-75412373D01*
X101350114Y-75848179D01*
X101675034Y-76185306D01*
X102104234Y-76372429D01*
X102147627Y-76381058D01*
X102335000Y-76287213D01*
X102335000Y-75225000D01*
X102385000Y-75225000D01*
X102385000Y-76287213D01*
X102572373Y-76381058D01*
X102615766Y-76372429D01*
X103044966Y-76185306D01*
X103369886Y-75848179D01*
X103541060Y-75412373D01*
X103447242Y-75225000D01*
X102385000Y-75225000D01*
X102335000Y-75225000D01*
X101272758Y-75225000D01*
X101178940Y-75412373D01*
X100525000Y-75412373D01*
X100525000Y-74987627D01*
X101178940Y-74987627D01*
X101272758Y-75175000D01*
X102335000Y-75175000D01*
X102335000Y-74112787D01*
X102385000Y-74112787D01*
X102385000Y-75175000D01*
X103447242Y-75175000D01*
X103541060Y-74987627D01*
X103369886Y-74551821D01*
X103044966Y-74214694D01*
X102615766Y-74027571D01*
X102572373Y-74018942D01*
X102385000Y-74112787D01*
X102335000Y-74112787D01*
X102147627Y-74018942D01*
X102104234Y-74027571D01*
X101675034Y-74214694D01*
X101350114Y-74551821D01*
X101178940Y-74987627D01*
X100525000Y-74987627D01*
X100525000Y-73796051D01*
X122375718Y-73796051D01*
X122550067Y-74240464D01*
X122575672Y-74278786D01*
X122776919Y-74347726D01*
X123544645Y-73580000D01*
X123615355Y-73580000D01*
X124383081Y-74347726D01*
X124584328Y-74278786D01*
X124775291Y-73841254D01*
X124776142Y-73796051D01*
X124915718Y-73796051D01*
X125090067Y-74240464D01*
X125115672Y-74278786D01*
X125316919Y-74347726D01*
X126084645Y-73580000D01*
X126155355Y-73580000D01*
X126923081Y-74347726D01*
X127124328Y-74278786D01*
X127315291Y-73841254D01*
X127316142Y-73796051D01*
X127455718Y-73796051D01*
X127630067Y-74240464D01*
X127655672Y-74278786D01*
X127856919Y-74347726D01*
X128624645Y-73580000D01*
X128695355Y-73580000D01*
X129463081Y-74347726D01*
X129664328Y-74278786D01*
X129855291Y-73841254D01*
X129856142Y-73796051D01*
X129995718Y-73796051D01*
X130170067Y-74240464D01*
X130195672Y-74278786D01*
X130396919Y-74347726D01*
X131164645Y-73580000D01*
X131235355Y-73580000D01*
X132003081Y-74347726D01*
X132204328Y-74278786D01*
X132395291Y-73841254D01*
X132396142Y-73796051D01*
X132535718Y-73796051D01*
X132710067Y-74240464D01*
X132735672Y-74278786D01*
X132936919Y-74347726D01*
X133704645Y-73580000D01*
X133775355Y-73580000D01*
X134543081Y-74347726D01*
X134744328Y-74278786D01*
X134935291Y-73841254D01*
X134936142Y-73796051D01*
X135075718Y-73796051D01*
X135250067Y-74240464D01*
X135275672Y-74278786D01*
X135476919Y-74347726D01*
X136244645Y-73580000D01*
X136315355Y-73580000D01*
X137083081Y-74347726D01*
X137284328Y-74278786D01*
X137475291Y-73841254D01*
X137476142Y-73796051D01*
X137615718Y-73796051D01*
X137790067Y-74240464D01*
X137815672Y-74278786D01*
X138016919Y-74347726D01*
X138784645Y-73580000D01*
X138855355Y-73580000D01*
X139623081Y-74347726D01*
X139824328Y-74278786D01*
X140015291Y-73841254D01*
X140016142Y-73796051D01*
X140155718Y-73796051D01*
X140330067Y-74240464D01*
X140355672Y-74278786D01*
X140556919Y-74347726D01*
X141324645Y-73580000D01*
X141395355Y-73580000D01*
X142163081Y-74347726D01*
X142364328Y-74278786D01*
X142555291Y-73841254D01*
X142556142Y-73796051D01*
X142695718Y-73796051D01*
X142870067Y-74240464D01*
X142895672Y-74278786D01*
X143096919Y-74347726D01*
X143864645Y-73580000D01*
X143935355Y-73580000D01*
X144703081Y-74347726D01*
X144904328Y-74278786D01*
X145095291Y-73841254D01*
X145096142Y-73796051D01*
X145235718Y-73796051D01*
X145410067Y-74240464D01*
X145435672Y-74278786D01*
X145636919Y-74347726D01*
X146404645Y-73580000D01*
X146475355Y-73580000D01*
X147243081Y-74347726D01*
X147444328Y-74278786D01*
X147635291Y-73841254D01*
X147644282Y-73363949D01*
X147469933Y-72919536D01*
X147444328Y-72881214D01*
X147243081Y-72812274D01*
X146475355Y-73580000D01*
X146404645Y-73580000D01*
X145636919Y-72812274D01*
X145435672Y-72881214D01*
X145244709Y-73318746D01*
X145235718Y-73796051D01*
X145096142Y-73796051D01*
X145104282Y-73363949D01*
X144929933Y-72919536D01*
X144904328Y-72881214D01*
X144703081Y-72812274D01*
X143935355Y-73580000D01*
X143864645Y-73580000D01*
X143096919Y-72812274D01*
X142895672Y-72881214D01*
X142704709Y-73318746D01*
X142695718Y-73796051D01*
X142556142Y-73796051D01*
X142564282Y-73363949D01*
X142389933Y-72919536D01*
X142364328Y-72881214D01*
X142163081Y-72812274D01*
X141395355Y-73580000D01*
X141324645Y-73580000D01*
X140556919Y-72812274D01*
X140355672Y-72881214D01*
X140164709Y-73318746D01*
X140155718Y-73796051D01*
X140016142Y-73796051D01*
X140024282Y-73363949D01*
X139849933Y-72919536D01*
X139824328Y-72881214D01*
X139623081Y-72812274D01*
X138855355Y-73580000D01*
X138784645Y-73580000D01*
X138016919Y-72812274D01*
X137815672Y-72881214D01*
X137624709Y-73318746D01*
X137615718Y-73796051D01*
X137476142Y-73796051D01*
X137484282Y-73363949D01*
X137309933Y-72919536D01*
X137284328Y-72881214D01*
X137083081Y-72812274D01*
X136315355Y-73580000D01*
X136244645Y-73580000D01*
X135476919Y-72812274D01*
X135275672Y-72881214D01*
X135084709Y-73318746D01*
X135075718Y-73796051D01*
X134936142Y-73796051D01*
X134944282Y-73363949D01*
X134769933Y-72919536D01*
X134744328Y-72881214D01*
X134543081Y-72812274D01*
X133775355Y-73580000D01*
X133704645Y-73580000D01*
X132936919Y-72812274D01*
X132735672Y-72881214D01*
X132544709Y-73318746D01*
X132535718Y-73796051D01*
X132396142Y-73796051D01*
X132404282Y-73363949D01*
X132229933Y-72919536D01*
X132204328Y-72881214D01*
X132003081Y-72812274D01*
X131235355Y-73580000D01*
X131164645Y-73580000D01*
X130396919Y-72812274D01*
X130195672Y-72881214D01*
X130004709Y-73318746D01*
X129995718Y-73796051D01*
X129856142Y-73796051D01*
X129864282Y-73363949D01*
X129689933Y-72919536D01*
X129664328Y-72881214D01*
X129463081Y-72812274D01*
X128695355Y-73580000D01*
X128624645Y-73580000D01*
X127856919Y-72812274D01*
X127655672Y-72881214D01*
X127464709Y-73318746D01*
X127455718Y-73796051D01*
X127316142Y-73796051D01*
X127324282Y-73363949D01*
X127149933Y-72919536D01*
X127124328Y-72881214D01*
X126923081Y-72812274D01*
X126155355Y-73580000D01*
X126084645Y-73580000D01*
X125316919Y-72812274D01*
X125115672Y-72881214D01*
X124924709Y-73318746D01*
X124915718Y-73796051D01*
X124776142Y-73796051D01*
X124784282Y-73363949D01*
X124609933Y-72919536D01*
X124584328Y-72881214D01*
X124383081Y-72812274D01*
X123615355Y-73580000D01*
X123544645Y-73580000D01*
X122776919Y-72812274D01*
X122575672Y-72881214D01*
X122384709Y-73318746D01*
X122375718Y-73796051D01*
X100525000Y-73796051D01*
X100525000Y-72776919D01*
X122812274Y-72776919D01*
X123580000Y-73544645D01*
X124347726Y-72776919D01*
X125352274Y-72776919D01*
X126120000Y-73544645D01*
X126887726Y-72776919D01*
X127892274Y-72776919D01*
X128660000Y-73544645D01*
X129427726Y-72776919D01*
X130432274Y-72776919D01*
X131200000Y-73544645D01*
X131967726Y-72776919D01*
X132972274Y-72776919D01*
X133740000Y-73544645D01*
X134507726Y-72776919D01*
X135512274Y-72776919D01*
X136280000Y-73544645D01*
X137047726Y-72776919D01*
X138052274Y-72776919D01*
X138820000Y-73544645D01*
X139587726Y-72776919D01*
X140592274Y-72776919D01*
X141360000Y-73544645D01*
X142127726Y-72776919D01*
X143132274Y-72776919D01*
X143900000Y-73544645D01*
X144667726Y-72776919D01*
X145672274Y-72776919D01*
X146440000Y-73544645D01*
X147207726Y-72776919D01*
X147138786Y-72575672D01*
X146701254Y-72384709D01*
X146223949Y-72375718D01*
X145779536Y-72550067D01*
X145741214Y-72575672D01*
X145672274Y-72776919D01*
X144667726Y-72776919D01*
X144598786Y-72575672D01*
X144161254Y-72384709D01*
X143683949Y-72375718D01*
X143239536Y-72550067D01*
X143201214Y-72575672D01*
X143132274Y-72776919D01*
X142127726Y-72776919D01*
X142058786Y-72575672D01*
X141621254Y-72384709D01*
X141143949Y-72375718D01*
X140699536Y-72550067D01*
X140661214Y-72575672D01*
X140592274Y-72776919D01*
X139587726Y-72776919D01*
X139518786Y-72575672D01*
X139081254Y-72384709D01*
X138603949Y-72375718D01*
X138159536Y-72550067D01*
X138121214Y-72575672D01*
X138052274Y-72776919D01*
X137047726Y-72776919D01*
X136978786Y-72575672D01*
X136541254Y-72384709D01*
X136063949Y-72375718D01*
X135619536Y-72550067D01*
X135581214Y-72575672D01*
X135512274Y-72776919D01*
X134507726Y-72776919D01*
X134438786Y-72575672D01*
X134001254Y-72384709D01*
X133523949Y-72375718D01*
X133079536Y-72550067D01*
X133041214Y-72575672D01*
X132972274Y-72776919D01*
X131967726Y-72776919D01*
X131898786Y-72575672D01*
X131461254Y-72384709D01*
X130983949Y-72375718D01*
X130539536Y-72550067D01*
X130501214Y-72575672D01*
X130432274Y-72776919D01*
X129427726Y-72776919D01*
X129358786Y-72575672D01*
X128921254Y-72384709D01*
X128443949Y-72375718D01*
X127999536Y-72550067D01*
X127961214Y-72575672D01*
X127892274Y-72776919D01*
X126887726Y-72776919D01*
X126818786Y-72575672D01*
X126381254Y-72384709D01*
X125903949Y-72375718D01*
X125459536Y-72550067D01*
X125421214Y-72575672D01*
X125352274Y-72776919D01*
X124347726Y-72776919D01*
X124278786Y-72575672D01*
X123841254Y-72384709D01*
X123363949Y-72375718D01*
X122919536Y-72550067D01*
X122881214Y-72575672D01*
X122812274Y-72776919D01*
X100525000Y-72776919D01*
X100525000Y-68592230D01*
X102950000Y-68592230D01*
X102950000Y-69407770D01*
X103262094Y-70161232D01*
X103838768Y-70737906D01*
X104592230Y-71050000D01*
X105407770Y-71050000D01*
X106008173Y-70801305D01*
X122380000Y-70801305D01*
X122380000Y-71278695D01*
X122562689Y-71719745D01*
X122900255Y-72057311D01*
X123341305Y-72240000D01*
X123818695Y-72240000D01*
X124259745Y-72057311D01*
X124597311Y-71719745D01*
X124780000Y-71278695D01*
X124780000Y-70801305D01*
X124920000Y-70801305D01*
X124920000Y-71278695D01*
X125102689Y-71719745D01*
X125440255Y-72057311D01*
X125881305Y-72240000D01*
X126358695Y-72240000D01*
X126799745Y-72057311D01*
X127137311Y-71719745D01*
X127320000Y-71278695D01*
X127320000Y-70801305D01*
X127460000Y-70801305D01*
X127460000Y-71278695D01*
X127642689Y-71719745D01*
X127980255Y-72057311D01*
X128421305Y-72240000D01*
X128898695Y-72240000D01*
X129339745Y-72057311D01*
X129677311Y-71719745D01*
X129860000Y-71278695D01*
X129860000Y-70801305D01*
X130000000Y-70801305D01*
X130000000Y-71278695D01*
X130182689Y-71719745D01*
X130520255Y-72057311D01*
X130961305Y-72240000D01*
X131438695Y-72240000D01*
X131879745Y-72057311D01*
X132217311Y-71719745D01*
X132400000Y-71278695D01*
X132400000Y-70801305D01*
X132540000Y-70801305D01*
X132540000Y-71278695D01*
X132722689Y-71719745D01*
X133060255Y-72057311D01*
X133501305Y-72240000D01*
X133978695Y-72240000D01*
X134419745Y-72057311D01*
X134757311Y-71719745D01*
X134940000Y-71278695D01*
X134940000Y-70801305D01*
X135080000Y-70801305D01*
X135080000Y-71278695D01*
X135262689Y-71719745D01*
X135600255Y-72057311D01*
X136041305Y-72240000D01*
X136518695Y-72240000D01*
X136959745Y-72057311D01*
X137297311Y-71719745D01*
X137480000Y-71278695D01*
X137480000Y-70801305D01*
X137620000Y-70801305D01*
X137620000Y-71278695D01*
X137802689Y-71719745D01*
X138140255Y-72057311D01*
X138581305Y-72240000D01*
X139058695Y-72240000D01*
X139499745Y-72057311D01*
X139837311Y-71719745D01*
X140020000Y-71278695D01*
X140020000Y-70801305D01*
X140160000Y-70801305D01*
X140160000Y-71278695D01*
X140342689Y-71719745D01*
X140680255Y-72057311D01*
X141121305Y-72240000D01*
X141598695Y-72240000D01*
X142039745Y-72057311D01*
X142377311Y-71719745D01*
X142560000Y-71278695D01*
X142560000Y-70801305D01*
X142700000Y-70801305D01*
X142700000Y-71278695D01*
X142882689Y-71719745D01*
X143220255Y-72057311D01*
X143661305Y-72240000D01*
X144138695Y-72240000D01*
X144579745Y-72057311D01*
X144917311Y-71719745D01*
X145100000Y-71278695D01*
X145100000Y-70801305D01*
X145240000Y-70801305D01*
X145240000Y-71278695D01*
X145422689Y-71719745D01*
X145760255Y-72057311D01*
X146201305Y-72240000D01*
X146678695Y-72240000D01*
X147119745Y-72057311D01*
X147457311Y-71719745D01*
X147640000Y-71278695D01*
X147640000Y-70801305D01*
X147457311Y-70360255D01*
X147119745Y-70022689D01*
X146678695Y-69840000D01*
X146201305Y-69840000D01*
X145760255Y-70022689D01*
X145422689Y-70360255D01*
X145240000Y-70801305D01*
X145100000Y-70801305D01*
X144917311Y-70360255D01*
X144579745Y-70022689D01*
X144138695Y-69840000D01*
X143661305Y-69840000D01*
X143220255Y-70022689D01*
X142882689Y-70360255D01*
X142700000Y-70801305D01*
X142560000Y-70801305D01*
X142377311Y-70360255D01*
X142039745Y-70022689D01*
X141598695Y-69840000D01*
X141121305Y-69840000D01*
X140680255Y-70022689D01*
X140342689Y-70360255D01*
X140160000Y-70801305D01*
X140020000Y-70801305D01*
X139837311Y-70360255D01*
X139499745Y-70022689D01*
X139058695Y-69840000D01*
X138581305Y-69840000D01*
X138140255Y-70022689D01*
X137802689Y-70360255D01*
X137620000Y-70801305D01*
X137480000Y-70801305D01*
X137297311Y-70360255D01*
X136959745Y-70022689D01*
X136518695Y-69840000D01*
X136041305Y-69840000D01*
X135600255Y-70022689D01*
X135262689Y-70360255D01*
X135080000Y-70801305D01*
X134940000Y-70801305D01*
X134757311Y-70360255D01*
X134419745Y-70022689D01*
X133978695Y-69840000D01*
X133501305Y-69840000D01*
X133060255Y-70022689D01*
X132722689Y-70360255D01*
X132540000Y-70801305D01*
X132400000Y-70801305D01*
X132217311Y-70360255D01*
X131879745Y-70022689D01*
X131438695Y-69840000D01*
X130961305Y-69840000D01*
X130520255Y-70022689D01*
X130182689Y-70360255D01*
X130000000Y-70801305D01*
X129860000Y-70801305D01*
X129677311Y-70360255D01*
X129339745Y-70022689D01*
X128898695Y-69840000D01*
X128421305Y-69840000D01*
X127980255Y-70022689D01*
X127642689Y-70360255D01*
X127460000Y-70801305D01*
X127320000Y-70801305D01*
X127137311Y-70360255D01*
X126799745Y-70022689D01*
X126358695Y-69840000D01*
X125881305Y-69840000D01*
X125440255Y-70022689D01*
X125102689Y-70360255D01*
X124920000Y-70801305D01*
X124780000Y-70801305D01*
X124597311Y-70360255D01*
X124259745Y-70022689D01*
X123818695Y-69840000D01*
X123341305Y-69840000D01*
X122900255Y-70022689D01*
X122562689Y-70360255D01*
X122380000Y-70801305D01*
X106008173Y-70801305D01*
X106161232Y-70737906D01*
X106737906Y-70161232D01*
X107050000Y-69407770D01*
X107050000Y-68592230D01*
X106737906Y-67838768D01*
X106649138Y-67750000D01*
X109671184Y-67750000D01*
X109671184Y-69250000D01*
X109706109Y-69425581D01*
X109805568Y-69574432D01*
X109954419Y-69673891D01*
X110130000Y-69708816D01*
X111630000Y-69708816D01*
X111805581Y-69673891D01*
X111954432Y-69574432D01*
X112053891Y-69425581D01*
X112088816Y-69250000D01*
X112088816Y-68712373D01*
X112238940Y-68712373D01*
X112410114Y-69148179D01*
X112735034Y-69485306D01*
X113164234Y-69672429D01*
X113207627Y-69681058D01*
X113395000Y-69587213D01*
X113395000Y-68525000D01*
X113445000Y-68525000D01*
X113445000Y-69587213D01*
X113632373Y-69681058D01*
X113675766Y-69672429D01*
X114104966Y-69485306D01*
X114429886Y-69148179D01*
X114601060Y-68712373D01*
X114507242Y-68525000D01*
X113445000Y-68525000D01*
X113395000Y-68525000D01*
X112332758Y-68525000D01*
X112238940Y-68712373D01*
X112088816Y-68712373D01*
X112088816Y-68500000D01*
X114736491Y-68500000D01*
X114829625Y-68968217D01*
X115094848Y-69365152D01*
X115491783Y-69630375D01*
X115841812Y-69700000D01*
X116078188Y-69700000D01*
X116428217Y-69630375D01*
X116825152Y-69365152D01*
X117090375Y-68968217D01*
X117141265Y-68712373D01*
X117318940Y-68712373D01*
X117490114Y-69148179D01*
X117815034Y-69485306D01*
X118244234Y-69672429D01*
X118287627Y-69681058D01*
X118475000Y-69587213D01*
X118475000Y-68525000D01*
X118525000Y-68525000D01*
X118525000Y-69587213D01*
X118712373Y-69681058D01*
X118755766Y-69672429D01*
X119184966Y-69485306D01*
X119509886Y-69148179D01*
X119681060Y-68712373D01*
X119587242Y-68525000D01*
X118525000Y-68525000D01*
X118475000Y-68525000D01*
X117412758Y-68525000D01*
X117318940Y-68712373D01*
X117141265Y-68712373D01*
X117183509Y-68500000D01*
X117141266Y-68287627D01*
X117318940Y-68287627D01*
X117412758Y-68475000D01*
X118475000Y-68475000D01*
X118475000Y-67412787D01*
X118525000Y-67412787D01*
X118525000Y-68475000D01*
X119587242Y-68475000D01*
X119681060Y-68287627D01*
X119509886Y-67851821D01*
X119411752Y-67750000D01*
X122371184Y-67750000D01*
X122371184Y-69250000D01*
X122406109Y-69425581D01*
X122505568Y-69574432D01*
X122654419Y-69673891D01*
X122830000Y-69708816D01*
X124330000Y-69708816D01*
X124505581Y-69673891D01*
X124654432Y-69574432D01*
X124753891Y-69425581D01*
X124788816Y-69250000D01*
X124788816Y-67750000D01*
X124911184Y-67750000D01*
X124911184Y-69250000D01*
X124946109Y-69425581D01*
X125045568Y-69574432D01*
X125194419Y-69673891D01*
X125370000Y-69708816D01*
X126870000Y-69708816D01*
X127045581Y-69673891D01*
X127194432Y-69574432D01*
X127293891Y-69425581D01*
X127328816Y-69250000D01*
X127328816Y-67750000D01*
X127451184Y-67750000D01*
X127451184Y-69250000D01*
X127486109Y-69425581D01*
X127585568Y-69574432D01*
X127734419Y-69673891D01*
X127910000Y-69708816D01*
X129410000Y-69708816D01*
X129585581Y-69673891D01*
X129734432Y-69574432D01*
X129833891Y-69425581D01*
X129868816Y-69250000D01*
X129868816Y-67750000D01*
X129991184Y-67750000D01*
X129991184Y-69250000D01*
X130026109Y-69425581D01*
X130125568Y-69574432D01*
X130274419Y-69673891D01*
X130450000Y-69708816D01*
X131950000Y-69708816D01*
X132125581Y-69673891D01*
X132274432Y-69574432D01*
X132373891Y-69425581D01*
X132408816Y-69250000D01*
X132408816Y-67750000D01*
X132531184Y-67750000D01*
X132531184Y-69250000D01*
X132566109Y-69425581D01*
X132665568Y-69574432D01*
X132814419Y-69673891D01*
X132990000Y-69708816D01*
X134490000Y-69708816D01*
X134665581Y-69673891D01*
X134814432Y-69574432D01*
X134913891Y-69425581D01*
X134948816Y-69250000D01*
X134948816Y-67750000D01*
X135071184Y-67750000D01*
X135071184Y-69250000D01*
X135106109Y-69425581D01*
X135205568Y-69574432D01*
X135354419Y-69673891D01*
X135530000Y-69708816D01*
X137030000Y-69708816D01*
X137205581Y-69673891D01*
X137354432Y-69574432D01*
X137453891Y-69425581D01*
X137488816Y-69250000D01*
X137488816Y-67750000D01*
X137611184Y-67750000D01*
X137611184Y-69250000D01*
X137646109Y-69425581D01*
X137745568Y-69574432D01*
X137894419Y-69673891D01*
X138070000Y-69708816D01*
X139570000Y-69708816D01*
X139745581Y-69673891D01*
X139894432Y-69574432D01*
X139993891Y-69425581D01*
X140028816Y-69250000D01*
X140028816Y-67750000D01*
X140151184Y-67750000D01*
X140151184Y-69250000D01*
X140186109Y-69425581D01*
X140285568Y-69574432D01*
X140434419Y-69673891D01*
X140610000Y-69708816D01*
X142110000Y-69708816D01*
X142285581Y-69673891D01*
X142434432Y-69574432D01*
X142533891Y-69425581D01*
X142568816Y-69250000D01*
X142568816Y-67750000D01*
X142691184Y-67750000D01*
X142691184Y-69250000D01*
X142726109Y-69425581D01*
X142825568Y-69574432D01*
X142974419Y-69673891D01*
X143150000Y-69708816D01*
X144650000Y-69708816D01*
X144825581Y-69673891D01*
X144974432Y-69574432D01*
X145073891Y-69425581D01*
X145108816Y-69250000D01*
X145108816Y-67750000D01*
X145231184Y-67750000D01*
X145231184Y-69250000D01*
X145266109Y-69425581D01*
X145365568Y-69574432D01*
X145514419Y-69673891D01*
X145690000Y-69708816D01*
X147190000Y-69708816D01*
X147365581Y-69673891D01*
X147514432Y-69574432D01*
X147613891Y-69425581D01*
X147648816Y-69250000D01*
X147648816Y-68592230D01*
X182950000Y-68592230D01*
X182950000Y-69407770D01*
X183262094Y-70161232D01*
X183838768Y-70737906D01*
X184592230Y-71050000D01*
X185407770Y-71050000D01*
X186161232Y-70737906D01*
X186737906Y-70161232D01*
X187050000Y-69407770D01*
X187050000Y-68592230D01*
X186737906Y-67838768D01*
X186161232Y-67262094D01*
X185407770Y-66950000D01*
X184592230Y-66950000D01*
X183838768Y-67262094D01*
X183262094Y-67838768D01*
X182950000Y-68592230D01*
X147648816Y-68592230D01*
X147648816Y-67750000D01*
X147613891Y-67574419D01*
X147514432Y-67425568D01*
X147365581Y-67326109D01*
X147190000Y-67291184D01*
X145690000Y-67291184D01*
X145514419Y-67326109D01*
X145365568Y-67425568D01*
X145266109Y-67574419D01*
X145231184Y-67750000D01*
X145108816Y-67750000D01*
X145073891Y-67574419D01*
X144974432Y-67425568D01*
X144825581Y-67326109D01*
X144650000Y-67291184D01*
X143150000Y-67291184D01*
X142974419Y-67326109D01*
X142825568Y-67425568D01*
X142726109Y-67574419D01*
X142691184Y-67750000D01*
X142568816Y-67750000D01*
X142533891Y-67574419D01*
X142434432Y-67425568D01*
X142285581Y-67326109D01*
X142110000Y-67291184D01*
X140610000Y-67291184D01*
X140434419Y-67326109D01*
X140285568Y-67425568D01*
X140186109Y-67574419D01*
X140151184Y-67750000D01*
X140028816Y-67750000D01*
X139993891Y-67574419D01*
X139894432Y-67425568D01*
X139745581Y-67326109D01*
X139570000Y-67291184D01*
X138070000Y-67291184D01*
X137894419Y-67326109D01*
X137745568Y-67425568D01*
X137646109Y-67574419D01*
X137611184Y-67750000D01*
X137488816Y-67750000D01*
X137453891Y-67574419D01*
X137354432Y-67425568D01*
X137205581Y-67326109D01*
X137030000Y-67291184D01*
X135530000Y-67291184D01*
X135354419Y-67326109D01*
X135205568Y-67425568D01*
X135106109Y-67574419D01*
X135071184Y-67750000D01*
X134948816Y-67750000D01*
X134913891Y-67574419D01*
X134814432Y-67425568D01*
X134665581Y-67326109D01*
X134490000Y-67291184D01*
X132990000Y-67291184D01*
X132814419Y-67326109D01*
X132665568Y-67425568D01*
X132566109Y-67574419D01*
X132531184Y-67750000D01*
X132408816Y-67750000D01*
X132373891Y-67574419D01*
X132274432Y-67425568D01*
X132125581Y-67326109D01*
X131950000Y-67291184D01*
X130450000Y-67291184D01*
X130274419Y-67326109D01*
X130125568Y-67425568D01*
X130026109Y-67574419D01*
X129991184Y-67750000D01*
X129868816Y-67750000D01*
X129833891Y-67574419D01*
X129734432Y-67425568D01*
X129585581Y-67326109D01*
X129410000Y-67291184D01*
X127910000Y-67291184D01*
X127734419Y-67326109D01*
X127585568Y-67425568D01*
X127486109Y-67574419D01*
X127451184Y-67750000D01*
X127328816Y-67750000D01*
X127293891Y-67574419D01*
X127194432Y-67425568D01*
X127045581Y-67326109D01*
X126870000Y-67291184D01*
X125370000Y-67291184D01*
X125194419Y-67326109D01*
X125045568Y-67425568D01*
X124946109Y-67574419D01*
X124911184Y-67750000D01*
X124788816Y-67750000D01*
X124753891Y-67574419D01*
X124654432Y-67425568D01*
X124505581Y-67326109D01*
X124330000Y-67291184D01*
X122830000Y-67291184D01*
X122654419Y-67326109D01*
X122505568Y-67425568D01*
X122406109Y-67574419D01*
X122371184Y-67750000D01*
X119411752Y-67750000D01*
X119184966Y-67514694D01*
X118755766Y-67327571D01*
X118712373Y-67318942D01*
X118525000Y-67412787D01*
X118475000Y-67412787D01*
X118287627Y-67318942D01*
X118244234Y-67327571D01*
X117815034Y-67514694D01*
X117490114Y-67851821D01*
X117318940Y-68287627D01*
X117141266Y-68287627D01*
X117090375Y-68031783D01*
X116825152Y-67634848D01*
X116428217Y-67369625D01*
X116078188Y-67300000D01*
X115841812Y-67300000D01*
X115491783Y-67369625D01*
X115094848Y-67634848D01*
X114829625Y-68031783D01*
X114736491Y-68500000D01*
X112088816Y-68500000D01*
X112088816Y-68287627D01*
X112238940Y-68287627D01*
X112332758Y-68475000D01*
X113395000Y-68475000D01*
X113395000Y-67412787D01*
X113445000Y-67412787D01*
X113445000Y-68475000D01*
X114507242Y-68475000D01*
X114601060Y-68287627D01*
X114429886Y-67851821D01*
X114104966Y-67514694D01*
X113675766Y-67327571D01*
X113632373Y-67318942D01*
X113445000Y-67412787D01*
X113395000Y-67412787D01*
X113207627Y-67318942D01*
X113164234Y-67327571D01*
X112735034Y-67514694D01*
X112410114Y-67851821D01*
X112238940Y-68287627D01*
X112088816Y-68287627D01*
X112088816Y-67750000D01*
X112053891Y-67574419D01*
X111954432Y-67425568D01*
X111805581Y-67326109D01*
X111630000Y-67291184D01*
X110130000Y-67291184D01*
X109954419Y-67326109D01*
X109805568Y-67425568D01*
X109706109Y-67574419D01*
X109671184Y-67750000D01*
X106649138Y-67750000D01*
X106161232Y-67262094D01*
X105407770Y-66950000D01*
X104592230Y-66950000D01*
X103838768Y-67262094D01*
X103262094Y-67838768D01*
X102950000Y-68592230D01*
X100525000Y-68592230D01*
X100525000Y-66525000D01*
X199475000Y-66525000D01*
X199475001Y-99475000D01*
X199475001Y-99475000D01*
G37*
X199475001Y-99475000D02*
X165784247Y-99475000D01*
X165814671Y-99454671D01*
X165853724Y-99396224D01*
X166565190Y-98684759D01*
X166641812Y-98700000D01*
X166878188Y-98700000D01*
X167228217Y-98630375D01*
X167625152Y-98365152D01*
X167890375Y-97968217D01*
X167983509Y-97500000D01*
X167890375Y-97031783D01*
X167625152Y-96634848D01*
X167561370Y-96592230D01*
X182950000Y-96592230D01*
X182950000Y-97407770D01*
X183262094Y-98161232D01*
X183838768Y-98737906D01*
X184592230Y-99050000D01*
X185407770Y-99050000D01*
X186161232Y-98737906D01*
X186596057Y-98303081D01*
X190392274Y-98303081D01*
X190461214Y-98504328D01*
X190898746Y-98695291D01*
X191376051Y-98704282D01*
X191820464Y-98529933D01*
X191858786Y-98504328D01*
X191927726Y-98303081D01*
X191160000Y-97535355D01*
X190392274Y-98303081D01*
X186596057Y-98303081D01*
X186737906Y-98161232D01*
X186922305Y-97716051D01*
X189955718Y-97716051D01*
X190130067Y-98160464D01*
X190155672Y-98198786D01*
X190356919Y-98267726D01*
X191124645Y-97500000D01*
X191195355Y-97500000D01*
X191963081Y-98267726D01*
X192164328Y-98198786D01*
X192355291Y-97761254D01*
X192364282Y-97283949D01*
X192355399Y-97261305D01*
X192500000Y-97261305D01*
X192500000Y-97738695D01*
X192682689Y-98179745D01*
X193020255Y-98517311D01*
X193461305Y-98700000D01*
X193938695Y-98700000D01*
X194379745Y-98517311D01*
X194717311Y-98179745D01*
X194900000Y-97738695D01*
X194900000Y-97261305D01*
X194717311Y-96820255D01*
X194647056Y-96750000D01*
X195031184Y-96750000D01*
X195031184Y-98250000D01*
X195066109Y-98425581D01*
X195165568Y-98574432D01*
X195314419Y-98673891D01*
X195490000Y-98708816D01*
X196990000Y-98708816D01*
X197165581Y-98673891D01*
X197314432Y-98574432D01*
X197413891Y-98425581D01*
X197448816Y-98250000D01*
X197448816Y-97149711D01*
X198432481Y-96166047D01*
X198482575Y-96132575D01*
X198543825Y-96040909D01*
X198615187Y-95934109D01*
X198634151Y-95838768D01*
X198650000Y-95759091D01*
X198650000Y-95759088D01*
X198661753Y-95700000D01*
X198650000Y-95640912D01*
X198650000Y-88759088D01*
X198661753Y-88700000D01*
X198650000Y-88640910D01*
X198650000Y-88640909D01*
X198622601Y-88503164D01*
X198615187Y-88465891D01*
X198516047Y-88317519D01*
X198482575Y-88267425D01*
X198432481Y-88233954D01*
X197866048Y-87667521D01*
X197832575Y-87617425D01*
X197634108Y-87484813D01*
X197459091Y-87450000D01*
X197459086Y-87450000D01*
X197400000Y-87438247D01*
X197340914Y-87450000D01*
X197090757Y-87450000D01*
X197074432Y-87425568D01*
X196925581Y-87326109D01*
X196750000Y-87291184D01*
X195750000Y-87291184D01*
X195574419Y-87326109D01*
X195425568Y-87425568D01*
X195326109Y-87574419D01*
X195291184Y-87750000D01*
X195291184Y-88350000D01*
X195326109Y-88525581D01*
X195425568Y-88674432D01*
X195463696Y-88699908D01*
X195368508Y-88795096D01*
X195300000Y-88960490D01*
X195300000Y-89212500D01*
X195412500Y-89325000D01*
X196225000Y-89325000D01*
X196225000Y-89305000D01*
X196275000Y-89305000D01*
X196275000Y-89325000D01*
X197087500Y-89325000D01*
X197200000Y-89212500D01*
X197200000Y-88960490D01*
X197131492Y-88795096D01*
X197036304Y-88699908D01*
X197074432Y-88674432D01*
X197090757Y-88650000D01*
X197151473Y-88650000D01*
X197450000Y-88948528D01*
X197450001Y-95451471D01*
X196610289Y-96291184D01*
X195490000Y-96291184D01*
X195314419Y-96326109D01*
X195165568Y-96425568D01*
X195066109Y-96574419D01*
X195031184Y-96750000D01*
X194647056Y-96750000D01*
X194379745Y-96482689D01*
X193938695Y-96300000D01*
X193461305Y-96300000D01*
X193020255Y-96482689D01*
X192682689Y-96820255D01*
X192500000Y-97261305D01*
X192355399Y-97261305D01*
X192189933Y-96839536D01*
X192164328Y-96801214D01*
X191963081Y-96732274D01*
X191195355Y-97500000D01*
X191124645Y-97500000D01*
X190356919Y-96732274D01*
X190155672Y-96801214D01*
X189964709Y-97238746D01*
X189955718Y-97716051D01*
X186922305Y-97716051D01*
X187050000Y-97407770D01*
X187050000Y-96696919D01*
X190392274Y-96696919D01*
X191160000Y-97464645D01*
X191927726Y-96696919D01*
X191858786Y-96495672D01*
X191421254Y-96304709D01*
X190943949Y-96295718D01*
X190499536Y-96470067D01*
X190461214Y-96495672D01*
X190392274Y-96696919D01*
X187050000Y-96696919D01*
X187050000Y-96592230D01*
X186737906Y-95838768D01*
X186161232Y-95262094D01*
X185407770Y-94950000D01*
X184592230Y-94950000D01*
X183838768Y-95262094D01*
X183262094Y-95838768D01*
X182950000Y-96592230D01*
X167561370Y-96592230D01*
X167228217Y-96369625D01*
X166878188Y-96300000D01*
X166641812Y-96300000D01*
X166291783Y-96369625D01*
X165894848Y-96634848D01*
X165629625Y-97031783D01*
X165536491Y-97500000D01*
X165575241Y-97694810D01*
X165020052Y-98250000D01*
X162591752Y-98250000D01*
X162689886Y-98148179D01*
X162861060Y-97712373D01*
X162767242Y-97525000D01*
X161705000Y-97525000D01*
X161705000Y-97545000D01*
X161655000Y-97545000D01*
X161655000Y-97525000D01*
X160592758Y-97525000D01*
X160498940Y-97712373D01*
X160670114Y-98148179D01*
X160768248Y-98250000D01*
X160082094Y-98250000D01*
X160270375Y-97968217D01*
X160363509Y-97500000D01*
X160321266Y-97287627D01*
X160498940Y-97287627D01*
X160592758Y-97475000D01*
X161655000Y-97475000D01*
X161655000Y-96412787D01*
X161705000Y-96412787D01*
X161705000Y-97475000D01*
X162767242Y-97475000D01*
X162861060Y-97287627D01*
X162689886Y-96851821D01*
X162364966Y-96514694D01*
X161935766Y-96327571D01*
X161892373Y-96318942D01*
X161705000Y-96412787D01*
X161655000Y-96412787D01*
X161467627Y-96318942D01*
X161424234Y-96327571D01*
X160995034Y-96514694D01*
X160670114Y-96851821D01*
X160498940Y-97287627D01*
X160321266Y-97287627D01*
X160270375Y-97031783D01*
X160005152Y-96634848D01*
X159608217Y-96369625D01*
X159258188Y-96300000D01*
X159021812Y-96300000D01*
X158671783Y-96369625D01*
X158274848Y-96634848D01*
X158009625Y-97031783D01*
X157916491Y-97500000D01*
X158009625Y-97968217D01*
X158197906Y-98250000D01*
X157511752Y-98250000D01*
X157609886Y-98148179D01*
X157781060Y-97712373D01*
X157687242Y-97525000D01*
X156625000Y-97525000D01*
X156625000Y-97545000D01*
X156575000Y-97545000D01*
X156575000Y-97525000D01*
X155512758Y-97525000D01*
X155418940Y-97712373D01*
X155590114Y-98148179D01*
X155688248Y-98250000D01*
X155268816Y-98250000D01*
X155268816Y-97287627D01*
X155418940Y-97287627D01*
X155512758Y-97475000D01*
X156575000Y-97475000D01*
X156575000Y-96412787D01*
X156625000Y-96412787D01*
X156625000Y-97475000D01*
X157687242Y-97475000D01*
X157781060Y-97287627D01*
X157609886Y-96851821D01*
X157284966Y-96514694D01*
X156855766Y-96327571D01*
X156812373Y-96318942D01*
X156625000Y-96412787D01*
X156575000Y-96412787D01*
X156387627Y-96318942D01*
X156344234Y-96327571D01*
X155915034Y-96514694D01*
X155590114Y-96851821D01*
X155418940Y-97287627D01*
X155268816Y-97287627D01*
X155268816Y-96750000D01*
X155233891Y-96574419D01*
X155134432Y-96425568D01*
X154985581Y-96326109D01*
X154810000Y-96291184D01*
X153310000Y-96291184D01*
X153134419Y-96326109D01*
X152985568Y-96425568D01*
X152886109Y-96574419D01*
X152851184Y-96750000D01*
X152851184Y-98250000D01*
X149922094Y-98250000D01*
X150110375Y-97968217D01*
X150203509Y-97500000D01*
X150110375Y-97031783D01*
X149845152Y-96634848D01*
X149448217Y-96369625D01*
X149098188Y-96300000D01*
X148861812Y-96300000D01*
X148511783Y-96369625D01*
X148114848Y-96634848D01*
X147849625Y-97031783D01*
X147756491Y-97500000D01*
X147849625Y-97968217D01*
X148037906Y-98250000D01*
X147382094Y-98250000D01*
X147570375Y-97968217D01*
X147663509Y-97500000D01*
X147570375Y-97031783D01*
X147305152Y-96634848D01*
X146908217Y-96369625D01*
X146558188Y-96300000D01*
X146321812Y-96300000D01*
X145971783Y-96369625D01*
X145574848Y-96634848D01*
X145309625Y-97031783D01*
X145216491Y-97500000D01*
X145309625Y-97968217D01*
X145497906Y-98250000D01*
X144842094Y-98250000D01*
X145030375Y-97968217D01*
X145123509Y-97500000D01*
X145030375Y-97031783D01*
X144765152Y-96634848D01*
X144368217Y-96369625D01*
X144018188Y-96300000D01*
X143781812Y-96300000D01*
X143431783Y-96369625D01*
X143034848Y-96634848D01*
X142769625Y-97031783D01*
X142676491Y-97500000D01*
X142769625Y-97968217D01*
X142957906Y-98250000D01*
X142560000Y-98250000D01*
X142560000Y-97637500D01*
X142447500Y-97525000D01*
X141385000Y-97525000D01*
X141385000Y-97545000D01*
X141335000Y-97545000D01*
X141335000Y-97525000D01*
X140272500Y-97525000D01*
X140160000Y-97637500D01*
X140160000Y-98250000D01*
X137227056Y-98250000D01*
X137297311Y-98179745D01*
X137480000Y-97738695D01*
X137480000Y-97261305D01*
X137446968Y-97181559D01*
X137968038Y-96660489D01*
X140160000Y-96660489D01*
X140160000Y-97362500D01*
X140272500Y-97475000D01*
X141335000Y-97475000D01*
X141335000Y-96412500D01*
X141385000Y-96412500D01*
X141385000Y-97475000D01*
X142447500Y-97475000D01*
X142560000Y-97362500D01*
X142560000Y-96660489D01*
X142491491Y-96495095D01*
X142364904Y-96368508D01*
X142199510Y-96300000D01*
X141497500Y-96300000D01*
X141385000Y-96412500D01*
X141335000Y-96412500D01*
X141222500Y-96300000D01*
X140520490Y-96300000D01*
X140355096Y-96368508D01*
X140228509Y-96495095D01*
X140160000Y-96660489D01*
X137968038Y-96660489D01*
X138678528Y-95950000D01*
X139390914Y-95950000D01*
X139450000Y-95961753D01*
X139509086Y-95950000D01*
X139509091Y-95950000D01*
X139684108Y-95915187D01*
X139882575Y-95782575D01*
X139916048Y-95732479D01*
X140432481Y-95216046D01*
X140482575Y-95182575D01*
X140615187Y-94984108D01*
X140650000Y-94809091D01*
X140650000Y-94809087D01*
X140661753Y-94750001D01*
X140650000Y-94690914D01*
X140650000Y-93548527D01*
X140982481Y-93216046D01*
X141032575Y-93182575D01*
X141165187Y-92984108D01*
X141200000Y-92809091D01*
X141200000Y-92809087D01*
X141211753Y-92750001D01*
X141209937Y-92740870D01*
X151950000Y-92740870D01*
X151950000Y-93059130D01*
X152071793Y-93353164D01*
X152296836Y-93578207D01*
X152590870Y-93700000D01*
X152909130Y-93700000D01*
X153203164Y-93578207D01*
X153281371Y-93500000D01*
X164451473Y-93500000D01*
X165551184Y-94599712D01*
X165551184Y-95710000D01*
X165586109Y-95885581D01*
X165685568Y-96034432D01*
X165834419Y-96133891D01*
X166010000Y-96168816D01*
X167510000Y-96168816D01*
X167685581Y-96133891D01*
X167834432Y-96034432D01*
X167933891Y-95885581D01*
X167968816Y-95710000D01*
X167968816Y-94210000D01*
X167933891Y-94034419D01*
X167834432Y-93885568D01*
X167685581Y-93786109D01*
X167510000Y-93751184D01*
X166399712Y-93751184D01*
X165166049Y-92517522D01*
X165132575Y-92467425D01*
X164934108Y-92334813D01*
X164759091Y-92300000D01*
X164759086Y-92300000D01*
X164700000Y-92288247D01*
X164640914Y-92300000D01*
X153281371Y-92300000D01*
X153203164Y-92221793D01*
X152909130Y-92100000D01*
X152590870Y-92100000D01*
X152296836Y-92221793D01*
X152071793Y-92446836D01*
X151950000Y-92740870D01*
X141209937Y-92740870D01*
X141200000Y-92690915D01*
X141200000Y-91431371D01*
X141278207Y-91353164D01*
X141400000Y-91059130D01*
X141400000Y-90740870D01*
X141278207Y-90446836D01*
X141053164Y-90221793D01*
X140759130Y-90100000D01*
X140440870Y-90100000D01*
X140146836Y-90221793D01*
X139921793Y-90446836D01*
X139800000Y-90740870D01*
X139800000Y-91059130D01*
X139921793Y-91353164D01*
X140000001Y-91431372D01*
X140000001Y-91593504D01*
X139982575Y-91567425D01*
X139932481Y-91533953D01*
X137066049Y-88667522D01*
X137032575Y-88617425D01*
X136834108Y-88484813D01*
X136659091Y-88450000D01*
X136659086Y-88450000D01*
X136600000Y-88438247D01*
X136540914Y-88450000D01*
X135750000Y-88450000D01*
X135750000Y-88440870D01*
X135628207Y-88146836D01*
X135403164Y-87921793D01*
X135109130Y-87800000D01*
X135000000Y-87800000D01*
X135000000Y-86198527D01*
X135648528Y-85550000D01*
X135759130Y-85550000D01*
X136053164Y-85428207D01*
X136278207Y-85203164D01*
X136400000Y-84909130D01*
X136400000Y-84590870D01*
X136278207Y-84296836D01*
X136053164Y-84071793D01*
X135759130Y-83950000D01*
X135440870Y-83950000D01*
X135146836Y-84071793D01*
X134921793Y-84296836D01*
X134800000Y-84590870D01*
X134800000Y-84701472D01*
X134017521Y-85483951D01*
X133967425Y-85517425D01*
X133834813Y-85715893D01*
X133800000Y-85890910D01*
X133800000Y-85890914D01*
X133788247Y-85950000D01*
X133800000Y-86009087D01*
X133800001Y-86999772D01*
X133559130Y-86900000D01*
X133240870Y-86900000D01*
X132946836Y-87021793D01*
X132721793Y-87246836D01*
X132600000Y-87540870D01*
X132600000Y-87651472D01*
X132217521Y-88033952D01*
X132167425Y-88067425D01*
X132034813Y-88265893D01*
X132000000Y-88440910D01*
X132000000Y-88440914D01*
X131988247Y-88500000D01*
X132000000Y-88559086D01*
X132000001Y-92240909D01*
X131988247Y-92300000D01*
X132034814Y-92534108D01*
X132122870Y-92665892D01*
X132167426Y-92732575D01*
X132217519Y-92766047D01*
X133140000Y-93688528D01*
X133140001Y-96449657D01*
X133060255Y-96482689D01*
X132722689Y-96820255D01*
X132540000Y-97261305D01*
X132540000Y-97738695D01*
X132722689Y-98179745D01*
X132792944Y-98250000D01*
X132147056Y-98250000D01*
X132217311Y-98179745D01*
X132400000Y-97738695D01*
X132400000Y-97261305D01*
X132217311Y-96820255D01*
X131879745Y-96482689D01*
X131438695Y-96300000D01*
X130961305Y-96300000D01*
X130520255Y-96482689D01*
X130182689Y-96820255D01*
X130000000Y-97261305D01*
X130000000Y-97738695D01*
X130182689Y-98179745D01*
X130252944Y-98250000D01*
X129607056Y-98250000D01*
X129677311Y-98179745D01*
X129860000Y-97738695D01*
X129860000Y-97261305D01*
X129677311Y-96820255D01*
X129339745Y-96482689D01*
X128898695Y-96300000D01*
X128421305Y-96300000D01*
X127980255Y-96482689D01*
X127642689Y-96820255D01*
X127460000Y-97261305D01*
X127460000Y-97738695D01*
X127642689Y-98179745D01*
X127712944Y-98250000D01*
X127067056Y-98250000D01*
X127137311Y-98179745D01*
X127320000Y-97738695D01*
X127320000Y-97261305D01*
X127137311Y-96820255D01*
X126799745Y-96482689D01*
X126358695Y-96300000D01*
X125881305Y-96300000D01*
X125450000Y-96478652D01*
X125450000Y-96348527D01*
X125598527Y-96200000D01*
X125709130Y-96200000D01*
X126003164Y-96078207D01*
X126228207Y-95853164D01*
X126350000Y-95559130D01*
X126350000Y-95240870D01*
X126228207Y-94946836D01*
X126003164Y-94721793D01*
X125709130Y-94600000D01*
X125390870Y-94600000D01*
X125096836Y-94721793D01*
X124871793Y-94946836D01*
X124750000Y-95240870D01*
X124750000Y-95351473D01*
X124467521Y-95633952D01*
X124417425Y-95667425D01*
X124284813Y-95865893D01*
X124250000Y-96040910D01*
X124250000Y-96040914D01*
X124238247Y-96100000D01*
X124250000Y-96159086D01*
X124250000Y-96300000D01*
X123717500Y-96300000D01*
X123605000Y-96412500D01*
X123605000Y-97475000D01*
X123625000Y-97475000D01*
X123625000Y-97525000D01*
X123605000Y-97525000D01*
X123605000Y-97545000D01*
X123555000Y-97545000D01*
X123555000Y-97525000D01*
X122492500Y-97525000D01*
X122380000Y-97637500D01*
X122380000Y-98250000D01*
X119411752Y-98250000D01*
X119509886Y-98148179D01*
X119681060Y-97712373D01*
X119587242Y-97525000D01*
X118525000Y-97525000D01*
X118525000Y-97545000D01*
X118475000Y-97545000D01*
X118475000Y-97525000D01*
X117412758Y-97525000D01*
X117318940Y-97712373D01*
X117420247Y-97970298D01*
X117144759Y-97694810D01*
X117183509Y-97500000D01*
X117141266Y-97287627D01*
X117318940Y-97287627D01*
X117412758Y-97475000D01*
X118475000Y-97475000D01*
X118475000Y-96412787D01*
X118525000Y-96412787D01*
X118525000Y-97475000D01*
X119587242Y-97475000D01*
X119681060Y-97287627D01*
X119509886Y-96851821D01*
X119325482Y-96660489D01*
X122380000Y-96660489D01*
X122380000Y-97362500D01*
X122492500Y-97475000D01*
X123555000Y-97475000D01*
X123555000Y-96412500D01*
X123442500Y-96300000D01*
X122740490Y-96300000D01*
X122575096Y-96368508D01*
X122448509Y-96495095D01*
X122380000Y-96660489D01*
X119325482Y-96660489D01*
X119184966Y-96514694D01*
X118755766Y-96327571D01*
X118712373Y-96318942D01*
X118525000Y-96412787D01*
X118475000Y-96412787D01*
X118287627Y-96318942D01*
X118244234Y-96327571D01*
X117815034Y-96514694D01*
X117490114Y-96851821D01*
X117318940Y-97287627D01*
X117141266Y-97287627D01*
X117090375Y-97031783D01*
X116825152Y-96634848D01*
X116428217Y-96369625D01*
X116078188Y-96300000D01*
X115841812Y-96300000D01*
X115491783Y-96369625D01*
X115094848Y-96634848D01*
X114829625Y-97031783D01*
X114736491Y-97500000D01*
X114829625Y-97968217D01*
X115094848Y-98365152D01*
X115491783Y-98630375D01*
X115841812Y-98700000D01*
X116078188Y-98700000D01*
X116154810Y-98684759D01*
X116866277Y-99396226D01*
X116905329Y-99454671D01*
X116935753Y-99475000D01*
X100525000Y-99475000D01*
X100525000Y-96592230D01*
X102950000Y-96592230D01*
X102950000Y-97407770D01*
X103262094Y-98161232D01*
X103838768Y-98737906D01*
X104592230Y-99050000D01*
X105407770Y-99050000D01*
X106161232Y-98737906D01*
X106737906Y-98161232D01*
X107050000Y-97407770D01*
X107050000Y-96592230D01*
X106737906Y-95838768D01*
X106161232Y-95262094D01*
X105407770Y-94950000D01*
X104592230Y-94950000D01*
X103838768Y-95262094D01*
X103262094Y-95838768D01*
X102950000Y-96592230D01*
X100525000Y-96592230D01*
X100525000Y-80900000D01*
X101736287Y-80900000D01*
X101750001Y-80968945D01*
X101750000Y-89001065D01*
X101736288Y-89070000D01*
X101750000Y-89138935D01*
X101750000Y-89138939D01*
X101790615Y-89343125D01*
X101945329Y-89574670D01*
X102003774Y-89613722D01*
X109671184Y-97281134D01*
X109671184Y-98250000D01*
X109706109Y-98425581D01*
X109805568Y-98574432D01*
X109954419Y-98673891D01*
X110130000Y-98708816D01*
X111630000Y-98708816D01*
X111805581Y-98673891D01*
X111954432Y-98574432D01*
X112053891Y-98425581D01*
X112088816Y-98250000D01*
X112088816Y-97712373D01*
X112238940Y-97712373D01*
X112410114Y-98148179D01*
X112735034Y-98485306D01*
X113164234Y-98672429D01*
X113207627Y-98681058D01*
X113395000Y-98587213D01*
X113395000Y-97525000D01*
X113445000Y-97525000D01*
X113445000Y-98587213D01*
X113632373Y-98681058D01*
X113675766Y-98672429D01*
X114104966Y-98485306D01*
X114429886Y-98148179D01*
X114601060Y-97712373D01*
X114507242Y-97525000D01*
X113445000Y-97525000D01*
X113395000Y-97525000D01*
X112332758Y-97525000D01*
X112238940Y-97712373D01*
X112088816Y-97712373D01*
X112088816Y-97287627D01*
X112238940Y-97287627D01*
X112332758Y-97475000D01*
X113395000Y-97475000D01*
X113395000Y-96412787D01*
X113445000Y-96412787D01*
X113445000Y-97475000D01*
X114507242Y-97475000D01*
X114601060Y-97287627D01*
X114429886Y-96851821D01*
X114104966Y-96514694D01*
X113675766Y-96327571D01*
X113632373Y-96318942D01*
X113445000Y-96412787D01*
X113395000Y-96412787D01*
X113207627Y-96318942D01*
X113164234Y-96327571D01*
X112735034Y-96514694D01*
X112410114Y-96851821D01*
X112238940Y-97287627D01*
X112088816Y-97287627D01*
X112088816Y-97139711D01*
X113382481Y-95846047D01*
X113432575Y-95812575D01*
X113468312Y-95759091D01*
X113565187Y-95614109D01*
X113580960Y-95534813D01*
X113600000Y-95439091D01*
X113600000Y-95439088D01*
X113611753Y-95380000D01*
X113600000Y-95320912D01*
X113600000Y-93281371D01*
X113678207Y-93203164D01*
X113800000Y-92909130D01*
X113800000Y-92590870D01*
X113678207Y-92296836D01*
X113453164Y-92071793D01*
X113159130Y-91950000D01*
X112840870Y-91950000D01*
X112546836Y-92071793D01*
X112321793Y-92296836D01*
X112200000Y-92590870D01*
X112200000Y-92909130D01*
X112321793Y-93203164D01*
X112400000Y-93281371D01*
X112400001Y-95131471D01*
X111240289Y-96291184D01*
X110661134Y-96291184D01*
X103150000Y-88780052D01*
X103150000Y-84952035D01*
X109183321Y-84952035D01*
X109361780Y-85246796D01*
X110124504Y-85587675D01*
X110959618Y-85610725D01*
X111739983Y-85312436D01*
X111838220Y-85246796D01*
X112016679Y-84952035D01*
X117983321Y-84952035D01*
X118161780Y-85246796D01*
X118924504Y-85587675D01*
X119759618Y-85610725D01*
X120539983Y-85312436D01*
X120638220Y-85246796D01*
X120816679Y-84952035D01*
X119400000Y-83535355D01*
X117983321Y-84952035D01*
X112016679Y-84952035D01*
X110600000Y-83535355D01*
X109183321Y-84952035D01*
X103150000Y-84952035D01*
X103150000Y-83859618D01*
X108489275Y-83859618D01*
X108787564Y-84639983D01*
X108853204Y-84738220D01*
X109147965Y-84916679D01*
X110564645Y-83500000D01*
X110635355Y-83500000D01*
X112052035Y-84916679D01*
X112346796Y-84738220D01*
X112687675Y-83975496D01*
X112690873Y-83859618D01*
X117289275Y-83859618D01*
X117587564Y-84639983D01*
X117653204Y-84738220D01*
X117947965Y-84916679D01*
X119364645Y-83500000D01*
X119435355Y-83500000D01*
X120852035Y-84916679D01*
X121146796Y-84738220D01*
X121487675Y-83975496D01*
X121510725Y-83140382D01*
X121212436Y-82360017D01*
X121146796Y-82261780D01*
X120852035Y-82083321D01*
X119435355Y-83500000D01*
X119364645Y-83500000D01*
X117947965Y-82083321D01*
X117653204Y-82261780D01*
X117312325Y-83024504D01*
X117289275Y-83859618D01*
X112690873Y-83859618D01*
X112710725Y-83140382D01*
X112412436Y-82360017D01*
X112346796Y-82261780D01*
X112052035Y-82083321D01*
X110635355Y-83500000D01*
X110564645Y-83500000D01*
X109147965Y-82083321D01*
X108853204Y-82261780D01*
X108512325Y-83024504D01*
X108489275Y-83859618D01*
X103150000Y-83859618D01*
X103150000Y-82047965D01*
X109183321Y-82047965D01*
X110600000Y-83464645D01*
X112016679Y-82047965D01*
X117983321Y-82047965D01*
X119400000Y-83464645D01*
X120816679Y-82047965D01*
X120638220Y-81753204D01*
X119875496Y-81412325D01*
X119040382Y-81389275D01*
X118260017Y-81687564D01*
X118161780Y-81753204D01*
X117983321Y-82047965D01*
X112016679Y-82047965D01*
X111838220Y-81753204D01*
X111075496Y-81412325D01*
X110240382Y-81389275D01*
X109460017Y-81687564D01*
X109361780Y-81753204D01*
X109183321Y-82047965D01*
X103150000Y-82047965D01*
X103150000Y-81600000D01*
X107349449Y-81600000D01*
X107590870Y-81700000D01*
X107909130Y-81700000D01*
X108203164Y-81578207D01*
X108428207Y-81353164D01*
X108550000Y-81059130D01*
X108550000Y-80740870D01*
X108428207Y-80446836D01*
X108203164Y-80221793D01*
X107909130Y-80100000D01*
X107590870Y-80100000D01*
X107349449Y-80200000D01*
X103150000Y-80200000D01*
X103150000Y-79539948D01*
X105346228Y-77343721D01*
X105404670Y-77304671D01*
X105443720Y-77246229D01*
X105443722Y-77246227D01*
X105559384Y-77073127D01*
X105559385Y-77073126D01*
X105600000Y-76868940D01*
X105600000Y-76868936D01*
X105613712Y-76800001D01*
X105600000Y-76731066D01*
X105600000Y-76408816D01*
X105650000Y-76408816D01*
X105825581Y-76373891D01*
X105974432Y-76274432D01*
X106003139Y-76231468D01*
X111150000Y-76231468D01*
X111150000Y-76768532D01*
X111355525Y-77264714D01*
X111735286Y-77644475D01*
X112231468Y-77850000D01*
X112768532Y-77850000D01*
X113264714Y-77644475D01*
X113644475Y-77264714D01*
X113750000Y-77009954D01*
X113855525Y-77264714D01*
X114235286Y-77644475D01*
X114731468Y-77850000D01*
X115268532Y-77850000D01*
X115433246Y-77781773D01*
X116283952Y-78632480D01*
X116317425Y-78682575D01*
X116367519Y-78716047D01*
X116515891Y-78815187D01*
X116557687Y-78823501D01*
X116690909Y-78850000D01*
X116690912Y-78850000D01*
X116750000Y-78861753D01*
X116809088Y-78850000D01*
X124301473Y-78850000D01*
X124592301Y-79140829D01*
X124396836Y-79221793D01*
X124171793Y-79446836D01*
X124050000Y-79740870D01*
X124050000Y-80059130D01*
X124171793Y-80353164D01*
X124396836Y-80578207D01*
X124690870Y-80700000D01*
X124801473Y-80700000D01*
X125333952Y-81232480D01*
X125367425Y-81282575D01*
X125565892Y-81415187D01*
X125740909Y-81450000D01*
X125740913Y-81450000D01*
X125800000Y-81461753D01*
X125859086Y-81450000D01*
X126158350Y-81450000D01*
X126100000Y-81590870D01*
X126100000Y-81909130D01*
X126221793Y-82203164D01*
X126446836Y-82428207D01*
X126740870Y-82550000D01*
X127059130Y-82550000D01*
X127353164Y-82428207D01*
X127431371Y-82350000D01*
X133450000Y-82350000D01*
X133450000Y-82459130D01*
X133571793Y-82753164D01*
X133796836Y-82978207D01*
X134090870Y-83100000D01*
X134409130Y-83100000D01*
X134703164Y-82978207D01*
X134928207Y-82753164D01*
X135003147Y-82572243D01*
X135190870Y-82650000D01*
X135509130Y-82650000D01*
X135803164Y-82528207D01*
X136028207Y-82303164D01*
X136150000Y-82009130D01*
X136150000Y-81690870D01*
X136112360Y-81600000D01*
X138368629Y-81600000D01*
X138446836Y-81678207D01*
X138740870Y-81800000D01*
X139059130Y-81800000D01*
X139353164Y-81678207D01*
X139578207Y-81453164D01*
X139700000Y-81159130D01*
X139700000Y-80840870D01*
X139578207Y-80546836D01*
X139353164Y-80321793D01*
X139059130Y-80200000D01*
X138740870Y-80200000D01*
X138446836Y-80321793D01*
X138368629Y-80400000D01*
X136048529Y-80400000D01*
X135448527Y-79800000D01*
X142210052Y-79800000D01*
X143021792Y-80611741D01*
X143121793Y-80853164D01*
X143346836Y-81078207D01*
X143588260Y-81178208D01*
X145210050Y-82800000D01*
X143353774Y-84656278D01*
X143295329Y-84695330D01*
X143140615Y-84926875D01*
X143100000Y-85131061D01*
X143100000Y-85131065D01*
X143086288Y-85200000D01*
X143100000Y-85268935D01*
X143100001Y-86349447D01*
X143000000Y-86590870D01*
X143000000Y-86909130D01*
X143121793Y-87203164D01*
X143346836Y-87428207D01*
X143640870Y-87550000D01*
X143959130Y-87550000D01*
X144253164Y-87428207D01*
X144478207Y-87203164D01*
X144600000Y-86909130D01*
X144600000Y-86590870D01*
X144500000Y-86349449D01*
X144500000Y-85489948D01*
X145037913Y-84952035D01*
X149183321Y-84952035D01*
X149361780Y-85246796D01*
X150124504Y-85587675D01*
X150959618Y-85610725D01*
X151739983Y-85312436D01*
X151838220Y-85246796D01*
X152016679Y-84952035D01*
X157983321Y-84952035D01*
X158161780Y-85246796D01*
X158924504Y-85587675D01*
X159759618Y-85610725D01*
X160539983Y-85312436D01*
X160638220Y-85246796D01*
X160816679Y-84952035D01*
X159400000Y-83535355D01*
X157983321Y-84952035D01*
X152016679Y-84952035D01*
X150600000Y-83535355D01*
X149183321Y-84952035D01*
X145037913Y-84952035D01*
X146130331Y-83859618D01*
X148489275Y-83859618D01*
X148787564Y-84639983D01*
X148853204Y-84738220D01*
X149147965Y-84916679D01*
X150564645Y-83500000D01*
X150635355Y-83500000D01*
X152052035Y-84916679D01*
X152346796Y-84738220D01*
X152687675Y-83975496D01*
X152690873Y-83859618D01*
X157289275Y-83859618D01*
X157587564Y-84639983D01*
X157653204Y-84738220D01*
X157947965Y-84916679D01*
X159364645Y-83500000D01*
X159435355Y-83500000D01*
X160852035Y-84916679D01*
X161146796Y-84738220D01*
X161487675Y-83975496D01*
X161510725Y-83140382D01*
X161212436Y-82360017D01*
X161146796Y-82261780D01*
X160852035Y-82083321D01*
X159435355Y-83500000D01*
X159364645Y-83500000D01*
X157947965Y-82083321D01*
X157653204Y-82261780D01*
X157312325Y-83024504D01*
X157289275Y-83859618D01*
X152690873Y-83859618D01*
X152710725Y-83140382D01*
X152412436Y-82360017D01*
X152346796Y-82261780D01*
X152052035Y-82083321D01*
X150635355Y-83500000D01*
X150564645Y-83500000D01*
X149147965Y-82083321D01*
X148853204Y-82261780D01*
X148512325Y-83024504D01*
X148489275Y-83859618D01*
X146130331Y-83859618D01*
X146646229Y-83343721D01*
X146704671Y-83304671D01*
X146743721Y-83246229D01*
X146743723Y-83246227D01*
X146743727Y-83246221D01*
X147941983Y-82047965D01*
X149183321Y-82047965D01*
X150600000Y-83464645D01*
X152016679Y-82047965D01*
X157983321Y-82047965D01*
X159400000Y-83464645D01*
X160816679Y-82047965D01*
X160638220Y-81753204D01*
X159875496Y-81412325D01*
X159040382Y-81389275D01*
X158260017Y-81687564D01*
X158161780Y-81753204D01*
X157983321Y-82047965D01*
X152016679Y-82047965D01*
X151838220Y-81753204D01*
X151075496Y-81412325D01*
X150240382Y-81389275D01*
X149460017Y-81687564D01*
X149361780Y-81753204D01*
X149183321Y-82047965D01*
X147941983Y-82047965D01*
X152166755Y-77823195D01*
X152231468Y-77850000D01*
X152768532Y-77850000D01*
X153264714Y-77644475D01*
X153644475Y-77264714D01*
X153750000Y-77009954D01*
X153855525Y-77264714D01*
X154235286Y-77644475D01*
X154731468Y-77850000D01*
X155268532Y-77850000D01*
X155764714Y-77644475D01*
X155997940Y-77411249D01*
X156624106Y-77411249D01*
X156711303Y-77628081D01*
X157203037Y-77844033D01*
X157739981Y-77855367D01*
X158240390Y-77660359D01*
X158288697Y-77628081D01*
X158375894Y-77411249D01*
X157500000Y-76535355D01*
X156624106Y-77411249D01*
X155997940Y-77411249D01*
X156144475Y-77264714D01*
X156249918Y-77010152D01*
X156339641Y-77240390D01*
X156371919Y-77288697D01*
X156588751Y-77375894D01*
X157464645Y-76500000D01*
X157535355Y-76500000D01*
X158411249Y-77375894D01*
X158628081Y-77288697D01*
X158844033Y-76796963D01*
X158855367Y-76260019D01*
X158660359Y-75759610D01*
X158628081Y-75711303D01*
X158411249Y-75624106D01*
X157535355Y-76500000D01*
X157464645Y-76500000D01*
X156588751Y-75624106D01*
X156371919Y-75711303D01*
X156249760Y-75989466D01*
X156144475Y-75735286D01*
X155997940Y-75588751D01*
X156624106Y-75588751D01*
X157500000Y-76464645D01*
X158375894Y-75588751D01*
X158288697Y-75371919D01*
X157796963Y-75155967D01*
X157260019Y-75144633D01*
X156759610Y-75339641D01*
X156711303Y-75371919D01*
X156624106Y-75588751D01*
X155997940Y-75588751D01*
X155764714Y-75355525D01*
X155268532Y-75150000D01*
X154839949Y-75150000D01*
X158061743Y-71928207D01*
X158303164Y-71828207D01*
X158528207Y-71603164D01*
X158650000Y-71309130D01*
X158650000Y-71300000D01*
X164255348Y-71300000D01*
X164228604Y-71340025D01*
X164171793Y-71396836D01*
X164141046Y-71471065D01*
X164096418Y-71537856D01*
X164080747Y-71616641D01*
X164050000Y-71690870D01*
X164050000Y-71771216D01*
X164034329Y-71850000D01*
X164050000Y-71928784D01*
X164050000Y-72009130D01*
X164080747Y-72083359D01*
X164096418Y-72162144D01*
X164141046Y-72228935D01*
X164171793Y-72303164D01*
X164396836Y-72528207D01*
X164396838Y-72528208D01*
X167350000Y-75481371D01*
X167350001Y-82671211D01*
X167334329Y-82750000D01*
X167350001Y-82828789D01*
X167379722Y-82978207D01*
X167396418Y-83062144D01*
X167528603Y-83259973D01*
X167528605Y-83259975D01*
X167573234Y-83326767D01*
X167640026Y-83371396D01*
X171378604Y-87109975D01*
X171423233Y-87176767D01*
X171490025Y-87221396D01*
X171490026Y-87221397D01*
X171539824Y-87254671D01*
X171687856Y-87353583D01*
X171921211Y-87400000D01*
X171921215Y-87400000D01*
X171999999Y-87415671D01*
X172078783Y-87400000D01*
X173463833Y-87400000D01*
X173425568Y-87425568D01*
X173326109Y-87574419D01*
X173291184Y-87750000D01*
X173291184Y-88350000D01*
X173326109Y-88525581D01*
X173425568Y-88674432D01*
X173463833Y-88700000D01*
X173425568Y-88725568D01*
X173326109Y-88874419D01*
X173291184Y-89050000D01*
X173291184Y-89650000D01*
X173326109Y-89825581D01*
X173425568Y-89974432D01*
X173498700Y-90023297D01*
X173450000Y-90140870D01*
X173450000Y-90459130D01*
X173571793Y-90753164D01*
X173796836Y-90978207D01*
X174090870Y-91100000D01*
X174409130Y-91100000D01*
X174703164Y-90978207D01*
X174928207Y-90753164D01*
X175050000Y-90459130D01*
X175050000Y-90140870D01*
X175001300Y-90023297D01*
X175074432Y-89974432D01*
X175173891Y-89825581D01*
X175208816Y-89650000D01*
X175208816Y-89487500D01*
X175300000Y-89487500D01*
X175300000Y-89739510D01*
X175368508Y-89904904D01*
X175495095Y-90031491D01*
X175660489Y-90100000D01*
X176112500Y-90100000D01*
X176225000Y-89987500D01*
X176225000Y-89375000D01*
X176275000Y-89375000D01*
X176275000Y-89987500D01*
X176387500Y-90100000D01*
X176839511Y-90100000D01*
X177004905Y-90031491D01*
X177131492Y-89904904D01*
X177200000Y-89739510D01*
X177200000Y-89487500D01*
X177087500Y-89375000D01*
X176275000Y-89375000D01*
X176225000Y-89375000D01*
X175412500Y-89375000D01*
X175300000Y-89487500D01*
X175208816Y-89487500D01*
X175208816Y-89050000D01*
X175173891Y-88874419D01*
X175074432Y-88725568D01*
X175036167Y-88700000D01*
X175074432Y-88674432D01*
X175173891Y-88525581D01*
X175208816Y-88350000D01*
X175208816Y-87750000D01*
X175173891Y-87574419D01*
X175074432Y-87425568D01*
X175036167Y-87400000D01*
X175463833Y-87400000D01*
X175425568Y-87425568D01*
X175326109Y-87574419D01*
X175291184Y-87750000D01*
X175291184Y-88350000D01*
X175326109Y-88525581D01*
X175425568Y-88674432D01*
X175463696Y-88699908D01*
X175368508Y-88795096D01*
X175300000Y-88960490D01*
X175300000Y-89212500D01*
X175412500Y-89325000D01*
X176225000Y-89325000D01*
X176225000Y-89305000D01*
X176275000Y-89305000D01*
X176275000Y-89325000D01*
X177087500Y-89325000D01*
X177200000Y-89212500D01*
X177200000Y-88960490D01*
X177131492Y-88795096D01*
X177036304Y-88699908D01*
X177074432Y-88674432D01*
X177090757Y-88650000D01*
X177501473Y-88650000D01*
X178583953Y-89732481D01*
X178617425Y-89782575D01*
X178815892Y-89915187D01*
X178990909Y-89950000D01*
X178990912Y-89950000D01*
X179050000Y-89961753D01*
X179109088Y-89950000D01*
X193409243Y-89950000D01*
X193425568Y-89974432D01*
X193574419Y-90073891D01*
X193750000Y-90108816D01*
X194750000Y-90108816D01*
X194925581Y-90073891D01*
X195074432Y-89974432D01*
X195173891Y-89825581D01*
X195208816Y-89650000D01*
X195208816Y-89487500D01*
X195300000Y-89487500D01*
X195300000Y-89739510D01*
X195368508Y-89904904D01*
X195495095Y-90031491D01*
X195660489Y-90100000D01*
X196112500Y-90100000D01*
X196225000Y-89987500D01*
X196225000Y-89375000D01*
X196275000Y-89375000D01*
X196275000Y-89987500D01*
X196387500Y-90100000D01*
X196839511Y-90100000D01*
X197004905Y-90031491D01*
X197131492Y-89904904D01*
X197200000Y-89739510D01*
X197200000Y-89487500D01*
X197087500Y-89375000D01*
X196275000Y-89375000D01*
X196225000Y-89375000D01*
X195412500Y-89375000D01*
X195300000Y-89487500D01*
X195208816Y-89487500D01*
X195208816Y-89050000D01*
X195173891Y-88874419D01*
X195074432Y-88725568D01*
X195036167Y-88700000D01*
X195074432Y-88674432D01*
X195173891Y-88525581D01*
X195208816Y-88350000D01*
X195208816Y-87750000D01*
X195173891Y-87574419D01*
X195074432Y-87425568D01*
X194925581Y-87326109D01*
X194750000Y-87291184D01*
X193750000Y-87291184D01*
X193574419Y-87326109D01*
X193538664Y-87350000D01*
X193500551Y-87350000D01*
X193478938Y-87341048D01*
X193412144Y-87296417D01*
X193333355Y-87280745D01*
X193259130Y-87250000D01*
X179981370Y-87250000D01*
X178821398Y-86090028D01*
X178776767Y-86023233D01*
X178512144Y-85846417D01*
X178278789Y-85800000D01*
X178278784Y-85800000D01*
X178200000Y-85784329D01*
X178121216Y-85800000D01*
X172331371Y-85800000D01*
X171014729Y-84483358D01*
X172051997Y-84483358D01*
X172151364Y-84710580D01*
X172679231Y-84943189D01*
X173255932Y-84956086D01*
X173793671Y-84747307D01*
X173848636Y-84710580D01*
X173948003Y-84483358D01*
X173000000Y-83535355D01*
X172051997Y-84483358D01*
X171014729Y-84483358D01*
X170287303Y-83755932D01*
X171543914Y-83755932D01*
X171752693Y-84293671D01*
X171789420Y-84348636D01*
X172016642Y-84448003D01*
X172964645Y-83500000D01*
X173035355Y-83500000D01*
X173983358Y-84448003D01*
X174210580Y-84348636D01*
X174443189Y-83820769D01*
X174456086Y-83244068D01*
X174443472Y-83211577D01*
X176050000Y-83211577D01*
X176050000Y-83788423D01*
X176270750Y-84321359D01*
X176678641Y-84729250D01*
X177211577Y-84950000D01*
X177788423Y-84950000D01*
X178321359Y-84729250D01*
X178729250Y-84321359D01*
X178950000Y-83788423D01*
X178950000Y-83211577D01*
X178729250Y-82678641D01*
X178321359Y-82270750D01*
X177788423Y-82050000D01*
X177211577Y-82050000D01*
X176678641Y-82270750D01*
X176270750Y-82678641D01*
X176050000Y-83211577D01*
X174443472Y-83211577D01*
X174247307Y-82706329D01*
X174210580Y-82651364D01*
X173983358Y-82551997D01*
X173035355Y-83500000D01*
X172964645Y-83500000D01*
X172016642Y-82551997D01*
X171789420Y-82651364D01*
X171556811Y-83179231D01*
X171543914Y-83755932D01*
X170287303Y-83755932D01*
X169048013Y-82516642D01*
X172051997Y-82516642D01*
X173000000Y-83464645D01*
X173948003Y-82516642D01*
X173848636Y-82289420D01*
X173320769Y-82056811D01*
X172744068Y-82043914D01*
X172206329Y-82252693D01*
X172151364Y-82289420D01*
X172051997Y-82516642D01*
X169048013Y-82516642D01*
X168950000Y-82418630D01*
X168950000Y-77983358D01*
X172051997Y-77983358D01*
X172151364Y-78210580D01*
X172679231Y-78443189D01*
X173255932Y-78456086D01*
X173793671Y-78247307D01*
X173848636Y-78210580D01*
X173948003Y-77983358D01*
X173000000Y-77035355D01*
X172051997Y-77983358D01*
X168950000Y-77983358D01*
X168950000Y-77255932D01*
X171543914Y-77255932D01*
X171752693Y-77793671D01*
X171789420Y-77848636D01*
X172016642Y-77948003D01*
X172964645Y-77000000D01*
X173035355Y-77000000D01*
X173983358Y-77948003D01*
X174210580Y-77848636D01*
X174443189Y-77320769D01*
X174456086Y-76744068D01*
X174443472Y-76711577D01*
X176050000Y-76711577D01*
X176050000Y-77288423D01*
X176270750Y-77821359D01*
X176678641Y-78229250D01*
X177211577Y-78450000D01*
X177788423Y-78450000D01*
X178321359Y-78229250D01*
X178729250Y-77821359D01*
X178950000Y-77288423D01*
X178950000Y-76711577D01*
X178729250Y-76178641D01*
X178321359Y-75770750D01*
X177788423Y-75550000D01*
X177211577Y-75550000D01*
X176678641Y-75770750D01*
X176270750Y-76178641D01*
X176050000Y-76711577D01*
X174443472Y-76711577D01*
X174247307Y-76206329D01*
X174210580Y-76151364D01*
X173983358Y-76051997D01*
X173035355Y-77000000D01*
X172964645Y-77000000D01*
X172016642Y-76051997D01*
X171789420Y-76151364D01*
X171556811Y-76679231D01*
X171543914Y-77255932D01*
X168950000Y-77255932D01*
X168950000Y-76016642D01*
X172051997Y-76016642D01*
X173000000Y-76964645D01*
X173948003Y-76016642D01*
X173848636Y-75789420D01*
X173320769Y-75556811D01*
X172744068Y-75543914D01*
X172206329Y-75752693D01*
X172151364Y-75789420D01*
X172051997Y-76016642D01*
X168950000Y-76016642D01*
X168950000Y-75228784D01*
X168965671Y-75150000D01*
X168950000Y-75071216D01*
X168950000Y-74990870D01*
X168919255Y-74916645D01*
X168903583Y-74837856D01*
X168858952Y-74771062D01*
X168850228Y-74750000D01*
X177701473Y-74750000D01*
X179550000Y-76598529D01*
X179550000Y-76709130D01*
X179671793Y-77003164D01*
X179896836Y-77228207D01*
X180190870Y-77350000D01*
X180509130Y-77350000D01*
X180803164Y-77228207D01*
X181028207Y-77003164D01*
X181148986Y-76711577D01*
X191550000Y-76711577D01*
X191550000Y-77288423D01*
X191770750Y-77821359D01*
X192178641Y-78229250D01*
X192400000Y-78320940D01*
X192400001Y-82179059D01*
X192178641Y-82270750D01*
X191770750Y-82678641D01*
X191550000Y-83211577D01*
X191550000Y-83788423D01*
X191770750Y-84321359D01*
X192178641Y-84729250D01*
X192711577Y-84950000D01*
X193288423Y-84950000D01*
X193821359Y-84729250D01*
X194067251Y-84483358D01*
X196551997Y-84483358D01*
X196651364Y-84710580D01*
X197179231Y-84943189D01*
X197755932Y-84956086D01*
X198293671Y-84747307D01*
X198348636Y-84710580D01*
X198448003Y-84483358D01*
X197500000Y-83535355D01*
X196551997Y-84483358D01*
X194067251Y-84483358D01*
X194229250Y-84321359D01*
X194450000Y-83788423D01*
X194450000Y-83755932D01*
X196043914Y-83755932D01*
X196252693Y-84293671D01*
X196289420Y-84348636D01*
X196516642Y-84448003D01*
X197464645Y-83500000D01*
X197535355Y-83500000D01*
X198483358Y-84448003D01*
X198710580Y-84348636D01*
X198943189Y-83820769D01*
X198956086Y-83244068D01*
X198747307Y-82706329D01*
X198710580Y-82651364D01*
X198483358Y-82551997D01*
X197535355Y-83500000D01*
X197464645Y-83500000D01*
X196516642Y-82551997D01*
X196289420Y-82651364D01*
X196056811Y-83179231D01*
X196043914Y-83755932D01*
X194450000Y-83755932D01*
X194450000Y-83211577D01*
X194229250Y-82678641D01*
X194067251Y-82516642D01*
X196551997Y-82516642D01*
X197500000Y-83464645D01*
X198448003Y-82516642D01*
X198348636Y-82289420D01*
X197820769Y-82056811D01*
X197244068Y-82043914D01*
X196706329Y-82252693D01*
X196651364Y-82289420D01*
X196551997Y-82516642D01*
X194067251Y-82516642D01*
X193821359Y-82270750D01*
X193600000Y-82179060D01*
X193600000Y-78320940D01*
X193821359Y-78229250D01*
X194067251Y-77983358D01*
X196551997Y-77983358D01*
X196651364Y-78210580D01*
X197179231Y-78443189D01*
X197755932Y-78456086D01*
X198293671Y-78247307D01*
X198348636Y-78210580D01*
X198448003Y-77983358D01*
X197500000Y-77035355D01*
X196551997Y-77983358D01*
X194067251Y-77983358D01*
X194229250Y-77821359D01*
X194450000Y-77288423D01*
X194450000Y-77255932D01*
X196043914Y-77255932D01*
X196252693Y-77793671D01*
X196289420Y-77848636D01*
X196516642Y-77948003D01*
X197464645Y-77000000D01*
X197535355Y-77000000D01*
X198483358Y-77948003D01*
X198710580Y-77848636D01*
X198943189Y-77320769D01*
X198956086Y-76744068D01*
X198747307Y-76206329D01*
X198710580Y-76151364D01*
X198483358Y-76051997D01*
X197535355Y-77000000D01*
X197464645Y-77000000D01*
X196516642Y-76051997D01*
X196289420Y-76151364D01*
X196056811Y-76679231D01*
X196043914Y-77255932D01*
X194450000Y-77255932D01*
X194450000Y-76711577D01*
X194229250Y-76178641D01*
X194067251Y-76016642D01*
X196551997Y-76016642D01*
X197500000Y-76964645D01*
X198448003Y-76016642D01*
X198348636Y-75789420D01*
X197820769Y-75556811D01*
X197244068Y-75543914D01*
X196706329Y-75752693D01*
X196651364Y-75789420D01*
X196551997Y-76016642D01*
X194067251Y-76016642D01*
X193821359Y-75770750D01*
X193288423Y-75550000D01*
X192711577Y-75550000D01*
X192178641Y-75770750D01*
X191770750Y-76178641D01*
X191550000Y-76711577D01*
X181148986Y-76711577D01*
X181150000Y-76709130D01*
X181150000Y-76390870D01*
X181028207Y-76096836D01*
X180803164Y-75871793D01*
X180509130Y-75750000D01*
X180398529Y-75750000D01*
X178416049Y-73767521D01*
X178382575Y-73717425D01*
X178184108Y-73584813D01*
X178009091Y-73550000D01*
X178009086Y-73550000D01*
X177950000Y-73538247D01*
X177890914Y-73550000D01*
X168898528Y-73550000D01*
X165666049Y-70317522D01*
X165632575Y-70267425D01*
X165434108Y-70134813D01*
X165259091Y-70100000D01*
X165259086Y-70100000D01*
X165200000Y-70088247D01*
X165140914Y-70100000D01*
X158359086Y-70100000D01*
X158299999Y-70088247D01*
X158240913Y-70100000D01*
X158240909Y-70100000D01*
X158065892Y-70134813D01*
X157867425Y-70267425D01*
X157833953Y-70317519D01*
X157801472Y-70350000D01*
X157690870Y-70350000D01*
X157396836Y-70471793D01*
X157171793Y-70696836D01*
X157071793Y-70938257D01*
X152833246Y-75176805D01*
X152768532Y-75150000D01*
X152231468Y-75150000D01*
X151735286Y-75355525D01*
X151355525Y-75735286D01*
X151150000Y-76231468D01*
X151150000Y-76768532D01*
X151176805Y-76833245D01*
X146200001Y-81810051D01*
X144578208Y-80188260D01*
X144478207Y-79946836D01*
X144253164Y-79721793D01*
X144011741Y-79621792D01*
X143043724Y-78653776D01*
X143004671Y-78595329D01*
X142773126Y-78440615D01*
X142568940Y-78400000D01*
X142568935Y-78400000D01*
X142500000Y-78386288D01*
X142431065Y-78400000D01*
X128750551Y-78400000D01*
X128509130Y-78300000D01*
X128190870Y-78300000D01*
X127896836Y-78421793D01*
X127671793Y-78646836D01*
X127550000Y-78940870D01*
X127550000Y-79259130D01*
X127670482Y-79550000D01*
X126698528Y-79550000D01*
X125016049Y-77867522D01*
X124982575Y-77817425D01*
X124784108Y-77684813D01*
X124609091Y-77650000D01*
X124609086Y-77650000D01*
X124550000Y-77638247D01*
X124490914Y-77650000D01*
X118255893Y-77650000D01*
X118288697Y-77628081D01*
X118375894Y-77411249D01*
X117500000Y-76535355D01*
X117485858Y-76549498D01*
X117450503Y-76514143D01*
X117464645Y-76500000D01*
X117535355Y-76500000D01*
X118411249Y-77375894D01*
X118628081Y-77288697D01*
X118844033Y-76796963D01*
X118855367Y-76260019D01*
X118660359Y-75759610D01*
X118628081Y-75711303D01*
X118411249Y-75624106D01*
X117535355Y-76500000D01*
X117464645Y-76500000D01*
X116588751Y-75624106D01*
X116371919Y-75711303D01*
X116249760Y-75989466D01*
X116144475Y-75735286D01*
X115997940Y-75588751D01*
X116624106Y-75588751D01*
X117500000Y-76464645D01*
X118375894Y-75588751D01*
X118288697Y-75371919D01*
X117796963Y-75155967D01*
X117260019Y-75144633D01*
X116759610Y-75339641D01*
X116711303Y-75371919D01*
X116624106Y-75588751D01*
X115997940Y-75588751D01*
X115764714Y-75355525D01*
X115268532Y-75150000D01*
X114731468Y-75150000D01*
X114235286Y-75355525D01*
X113855525Y-75735286D01*
X113750000Y-75990046D01*
X113644475Y-75735286D01*
X113264714Y-75355525D01*
X112768532Y-75150000D01*
X112231468Y-75150000D01*
X111735286Y-75355525D01*
X111355525Y-75735286D01*
X111150000Y-76231468D01*
X106003139Y-76231468D01*
X106073891Y-76125581D01*
X106108816Y-75950000D01*
X106108816Y-74450000D01*
X106095506Y-74383081D01*
X122812274Y-74383081D01*
X122881214Y-74584328D01*
X123318746Y-74775291D01*
X123796051Y-74784282D01*
X124240464Y-74609933D01*
X124278786Y-74584328D01*
X124347726Y-74383081D01*
X125352274Y-74383081D01*
X125421214Y-74584328D01*
X125858746Y-74775291D01*
X126336051Y-74784282D01*
X126780464Y-74609933D01*
X126818786Y-74584328D01*
X126887726Y-74383081D01*
X127892274Y-74383081D01*
X127961214Y-74584328D01*
X128398746Y-74775291D01*
X128876051Y-74784282D01*
X129320464Y-74609933D01*
X129358786Y-74584328D01*
X129427726Y-74383081D01*
X130432274Y-74383081D01*
X130501214Y-74584328D01*
X130938746Y-74775291D01*
X131416051Y-74784282D01*
X131860464Y-74609933D01*
X131898786Y-74584328D01*
X131967726Y-74383081D01*
X132972274Y-74383081D01*
X133041214Y-74584328D01*
X133478746Y-74775291D01*
X133956051Y-74784282D01*
X134400464Y-74609933D01*
X134438786Y-74584328D01*
X134507726Y-74383081D01*
X135512274Y-74383081D01*
X135581214Y-74584328D01*
X136018746Y-74775291D01*
X136496051Y-74784282D01*
X136940464Y-74609933D01*
X136978786Y-74584328D01*
X137047726Y-74383081D01*
X138052274Y-74383081D01*
X138121214Y-74584328D01*
X138558746Y-74775291D01*
X139036051Y-74784282D01*
X139480464Y-74609933D01*
X139518786Y-74584328D01*
X139587726Y-74383081D01*
X140592274Y-74383081D01*
X140661214Y-74584328D01*
X141098746Y-74775291D01*
X141576051Y-74784282D01*
X142020464Y-74609933D01*
X142058786Y-74584328D01*
X142127726Y-74383081D01*
X143132274Y-74383081D01*
X143201214Y-74584328D01*
X143638746Y-74775291D01*
X144116051Y-74784282D01*
X144560464Y-74609933D01*
X144598786Y-74584328D01*
X144667726Y-74383081D01*
X145672274Y-74383081D01*
X145741214Y-74584328D01*
X146178746Y-74775291D01*
X146656051Y-74784282D01*
X147100464Y-74609933D01*
X147138786Y-74584328D01*
X147207726Y-74383081D01*
X146440000Y-73615355D01*
X145672274Y-74383081D01*
X144667726Y-74383081D01*
X143900000Y-73615355D01*
X143132274Y-74383081D01*
X142127726Y-74383081D01*
X141360000Y-73615355D01*
X140592274Y-74383081D01*
X139587726Y-74383081D01*
X138820000Y-73615355D01*
X138052274Y-74383081D01*
X137047726Y-74383081D01*
X136280000Y-73615355D01*
X135512274Y-74383081D01*
X134507726Y-74383081D01*
X133740000Y-73615355D01*
X132972274Y-74383081D01*
X131967726Y-74383081D01*
X131200000Y-73615355D01*
X130432274Y-74383081D01*
X129427726Y-74383081D01*
X128660000Y-73615355D01*
X127892274Y-74383081D01*
X126887726Y-74383081D01*
X126120000Y-73615355D01*
X125352274Y-74383081D01*
X124347726Y-74383081D01*
X123580000Y-73615355D01*
X122812274Y-74383081D01*
X106095506Y-74383081D01*
X106073891Y-74274419D01*
X105974432Y-74125568D01*
X105825581Y-74026109D01*
X105650000Y-73991184D01*
X104150000Y-73991184D01*
X103974419Y-74026109D01*
X103825568Y-74125568D01*
X103726109Y-74274419D01*
X103691184Y-74450000D01*
X103691184Y-75950000D01*
X103726109Y-76125581D01*
X103825568Y-76274432D01*
X103974419Y-76373891D01*
X104150000Y-76408816D01*
X104200000Y-76408816D01*
X104200000Y-76510051D01*
X102003774Y-78706278D01*
X101945330Y-78745329D01*
X101906278Y-78803774D01*
X101790616Y-78976874D01*
X101736288Y-79250000D01*
X101750001Y-79318940D01*
X101750000Y-80831060D01*
X101736287Y-80900000D01*
X100525000Y-80900000D01*
X100525000Y-75412373D01*
X101178940Y-75412373D01*
X101350114Y-75848179D01*
X101675034Y-76185306D01*
X102104234Y-76372429D01*
X102147627Y-76381058D01*
X102335000Y-76287213D01*
X102335000Y-75225000D01*
X102385000Y-75225000D01*
X102385000Y-76287213D01*
X102572373Y-76381058D01*
X102615766Y-76372429D01*
X103044966Y-76185306D01*
X103369886Y-75848179D01*
X103541060Y-75412373D01*
X103447242Y-75225000D01*
X102385000Y-75225000D01*
X102335000Y-75225000D01*
X101272758Y-75225000D01*
X101178940Y-75412373D01*
X100525000Y-75412373D01*
X100525000Y-74987627D01*
X101178940Y-74987627D01*
X101272758Y-75175000D01*
X102335000Y-75175000D01*
X102335000Y-74112787D01*
X102385000Y-74112787D01*
X102385000Y-75175000D01*
X103447242Y-75175000D01*
X103541060Y-74987627D01*
X103369886Y-74551821D01*
X103044966Y-74214694D01*
X102615766Y-74027571D01*
X102572373Y-74018942D01*
X102385000Y-74112787D01*
X102335000Y-74112787D01*
X102147627Y-74018942D01*
X102104234Y-74027571D01*
X101675034Y-74214694D01*
X101350114Y-74551821D01*
X101178940Y-74987627D01*
X100525000Y-74987627D01*
X100525000Y-73796051D01*
X122375718Y-73796051D01*
X122550067Y-74240464D01*
X122575672Y-74278786D01*
X122776919Y-74347726D01*
X123544645Y-73580000D01*
X123615355Y-73580000D01*
X124383081Y-74347726D01*
X124584328Y-74278786D01*
X124775291Y-73841254D01*
X124776142Y-73796051D01*
X124915718Y-73796051D01*
X125090067Y-74240464D01*
X125115672Y-74278786D01*
X125316919Y-74347726D01*
X126084645Y-73580000D01*
X126155355Y-73580000D01*
X126923081Y-74347726D01*
X127124328Y-74278786D01*
X127315291Y-73841254D01*
X127316142Y-73796051D01*
X127455718Y-73796051D01*
X127630067Y-74240464D01*
X127655672Y-74278786D01*
X127856919Y-74347726D01*
X128624645Y-73580000D01*
X128695355Y-73580000D01*
X129463081Y-74347726D01*
X129664328Y-74278786D01*
X129855291Y-73841254D01*
X129856142Y-73796051D01*
X129995718Y-73796051D01*
X130170067Y-74240464D01*
X130195672Y-74278786D01*
X130396919Y-74347726D01*
X131164645Y-73580000D01*
X131235355Y-73580000D01*
X132003081Y-74347726D01*
X132204328Y-74278786D01*
X132395291Y-73841254D01*
X132396142Y-73796051D01*
X132535718Y-73796051D01*
X132710067Y-74240464D01*
X132735672Y-74278786D01*
X132936919Y-74347726D01*
X133704645Y-73580000D01*
X133775355Y-73580000D01*
X134543081Y-74347726D01*
X134744328Y-74278786D01*
X134935291Y-73841254D01*
X134936142Y-73796051D01*
X135075718Y-73796051D01*
X135250067Y-74240464D01*
X135275672Y-74278786D01*
X135476919Y-74347726D01*
X136244645Y-73580000D01*
X136315355Y-73580000D01*
X137083081Y-74347726D01*
X137284328Y-74278786D01*
X137475291Y-73841254D01*
X137476142Y-73796051D01*
X137615718Y-73796051D01*
X137790067Y-74240464D01*
X137815672Y-74278786D01*
X138016919Y-74347726D01*
X138784645Y-73580000D01*
X138855355Y-73580000D01*
X139623081Y-74347726D01*
X139824328Y-74278786D01*
X140015291Y-73841254D01*
X140016142Y-73796051D01*
X140155718Y-73796051D01*
X140330067Y-74240464D01*
X140355672Y-74278786D01*
X140556919Y-74347726D01*
X141324645Y-73580000D01*
X141395355Y-73580000D01*
X142163081Y-74347726D01*
X142364328Y-74278786D01*
X142555291Y-73841254D01*
X142556142Y-73796051D01*
X142695718Y-73796051D01*
X142870067Y-74240464D01*
X142895672Y-74278786D01*
X143096919Y-74347726D01*
X143864645Y-73580000D01*
X143935355Y-73580000D01*
X144703081Y-74347726D01*
X144904328Y-74278786D01*
X145095291Y-73841254D01*
X145096142Y-73796051D01*
X145235718Y-73796051D01*
X145410067Y-74240464D01*
X145435672Y-74278786D01*
X145636919Y-74347726D01*
X146404645Y-73580000D01*
X146475355Y-73580000D01*
X147243081Y-74347726D01*
X147444328Y-74278786D01*
X147635291Y-73841254D01*
X147644282Y-73363949D01*
X147469933Y-72919536D01*
X147444328Y-72881214D01*
X147243081Y-72812274D01*
X146475355Y-73580000D01*
X146404645Y-73580000D01*
X145636919Y-72812274D01*
X145435672Y-72881214D01*
X145244709Y-73318746D01*
X145235718Y-73796051D01*
X145096142Y-73796051D01*
X145104282Y-73363949D01*
X144929933Y-72919536D01*
X144904328Y-72881214D01*
X144703081Y-72812274D01*
X143935355Y-73580000D01*
X143864645Y-73580000D01*
X143096919Y-72812274D01*
X142895672Y-72881214D01*
X142704709Y-73318746D01*
X142695718Y-73796051D01*
X142556142Y-73796051D01*
X142564282Y-73363949D01*
X142389933Y-72919536D01*
X142364328Y-72881214D01*
X142163081Y-72812274D01*
X141395355Y-73580000D01*
X141324645Y-73580000D01*
X140556919Y-72812274D01*
X140355672Y-72881214D01*
X140164709Y-73318746D01*
X140155718Y-73796051D01*
X140016142Y-73796051D01*
X140024282Y-73363949D01*
X139849933Y-72919536D01*
X139824328Y-72881214D01*
X139623081Y-72812274D01*
X138855355Y-73580000D01*
X138784645Y-73580000D01*
X138016919Y-72812274D01*
X137815672Y-72881214D01*
X137624709Y-73318746D01*
X137615718Y-73796051D01*
X137476142Y-73796051D01*
X137484282Y-73363949D01*
X137309933Y-72919536D01*
X137284328Y-72881214D01*
X137083081Y-72812274D01*
X136315355Y-73580000D01*
X136244645Y-73580000D01*
X135476919Y-72812274D01*
X135275672Y-72881214D01*
X135084709Y-73318746D01*
X135075718Y-73796051D01*
X134936142Y-73796051D01*
X134944282Y-73363949D01*
X134769933Y-72919536D01*
X134744328Y-72881214D01*
X134543081Y-72812274D01*
X133775355Y-73580000D01*
X133704645Y-73580000D01*
X132936919Y-72812274D01*
X132735672Y-72881214D01*
X132544709Y-73318746D01*
X132535718Y-73796051D01*
X132396142Y-73796051D01*
X132404282Y-73363949D01*
X132229933Y-72919536D01*
X132204328Y-72881214D01*
X132003081Y-72812274D01*
X131235355Y-73580000D01*
X131164645Y-73580000D01*
X130396919Y-72812274D01*
X130195672Y-72881214D01*
X130004709Y-73318746D01*
X129995718Y-73796051D01*
X129856142Y-73796051D01*
X129864282Y-73363949D01*
X129689933Y-72919536D01*
X129664328Y-72881214D01*
X129463081Y-72812274D01*
X128695355Y-73580000D01*
X128624645Y-73580000D01*
X127856919Y-72812274D01*
X127655672Y-72881214D01*
X127464709Y-73318746D01*
X127455718Y-73796051D01*
X127316142Y-73796051D01*
X127324282Y-73363949D01*
X127149933Y-72919536D01*
X127124328Y-72881214D01*
X126923081Y-72812274D01*
X126155355Y-73580000D01*
X126084645Y-73580000D01*
X125316919Y-72812274D01*
X125115672Y-72881214D01*
X124924709Y-73318746D01*
X124915718Y-73796051D01*
X124776142Y-73796051D01*
X124784282Y-73363949D01*
X124609933Y-72919536D01*
X124584328Y-72881214D01*
X124383081Y-72812274D01*
X123615355Y-73580000D01*
X123544645Y-73580000D01*
X122776919Y-72812274D01*
X122575672Y-72881214D01*
X122384709Y-73318746D01*
X122375718Y-73796051D01*
X100525000Y-73796051D01*
X100525000Y-72776919D01*
X122812274Y-72776919D01*
X123580000Y-73544645D01*
X124347726Y-72776919D01*
X125352274Y-72776919D01*
X126120000Y-73544645D01*
X126887726Y-72776919D01*
X127892274Y-72776919D01*
X128660000Y-73544645D01*
X129427726Y-72776919D01*
X130432274Y-72776919D01*
X131200000Y-73544645D01*
X131967726Y-72776919D01*
X132972274Y-72776919D01*
X133740000Y-73544645D01*
X134507726Y-72776919D01*
X135512274Y-72776919D01*
X136280000Y-73544645D01*
X137047726Y-72776919D01*
X138052274Y-72776919D01*
X138820000Y-73544645D01*
X139587726Y-72776919D01*
X140592274Y-72776919D01*
X141360000Y-73544645D01*
X142127726Y-72776919D01*
X143132274Y-72776919D01*
X143900000Y-73544645D01*
X144667726Y-72776919D01*
X145672274Y-72776919D01*
X146440000Y-73544645D01*
X147207726Y-72776919D01*
X147138786Y-72575672D01*
X146701254Y-72384709D01*
X146223949Y-72375718D01*
X145779536Y-72550067D01*
X145741214Y-72575672D01*
X145672274Y-72776919D01*
X144667726Y-72776919D01*
X144598786Y-72575672D01*
X144161254Y-72384709D01*
X143683949Y-72375718D01*
X143239536Y-72550067D01*
X143201214Y-72575672D01*
X143132274Y-72776919D01*
X142127726Y-72776919D01*
X142058786Y-72575672D01*
X141621254Y-72384709D01*
X141143949Y-72375718D01*
X140699536Y-72550067D01*
X140661214Y-72575672D01*
X140592274Y-72776919D01*
X139587726Y-72776919D01*
X139518786Y-72575672D01*
X139081254Y-72384709D01*
X138603949Y-72375718D01*
X138159536Y-72550067D01*
X138121214Y-72575672D01*
X138052274Y-72776919D01*
X137047726Y-72776919D01*
X136978786Y-72575672D01*
X136541254Y-72384709D01*
X136063949Y-72375718D01*
X135619536Y-72550067D01*
X135581214Y-72575672D01*
X135512274Y-72776919D01*
X134507726Y-72776919D01*
X134438786Y-72575672D01*
X134001254Y-72384709D01*
X133523949Y-72375718D01*
X133079536Y-72550067D01*
X133041214Y-72575672D01*
X132972274Y-72776919D01*
X131967726Y-72776919D01*
X131898786Y-72575672D01*
X131461254Y-72384709D01*
X130983949Y-72375718D01*
X130539536Y-72550067D01*
X130501214Y-72575672D01*
X130432274Y-72776919D01*
X129427726Y-72776919D01*
X129358786Y-72575672D01*
X128921254Y-72384709D01*
X128443949Y-72375718D01*
X127999536Y-72550067D01*
X127961214Y-72575672D01*
X127892274Y-72776919D01*
X126887726Y-72776919D01*
X126818786Y-72575672D01*
X126381254Y-72384709D01*
X125903949Y-72375718D01*
X125459536Y-72550067D01*
X125421214Y-72575672D01*
X125352274Y-72776919D01*
X124347726Y-72776919D01*
X124278786Y-72575672D01*
X123841254Y-72384709D01*
X123363949Y-72375718D01*
X122919536Y-72550067D01*
X122881214Y-72575672D01*
X122812274Y-72776919D01*
X100525000Y-72776919D01*
X100525000Y-68592230D01*
X102950000Y-68592230D01*
X102950000Y-69407770D01*
X103262094Y-70161232D01*
X103838768Y-70737906D01*
X104592230Y-71050000D01*
X105407770Y-71050000D01*
X106008173Y-70801305D01*
X122380000Y-70801305D01*
X122380000Y-71278695D01*
X122562689Y-71719745D01*
X122900255Y-72057311D01*
X123341305Y-72240000D01*
X123818695Y-72240000D01*
X124259745Y-72057311D01*
X124597311Y-71719745D01*
X124780000Y-71278695D01*
X124780000Y-70801305D01*
X124920000Y-70801305D01*
X124920000Y-71278695D01*
X125102689Y-71719745D01*
X125440255Y-72057311D01*
X125881305Y-72240000D01*
X126358695Y-72240000D01*
X126799745Y-72057311D01*
X127137311Y-71719745D01*
X127320000Y-71278695D01*
X127320000Y-70801305D01*
X127460000Y-70801305D01*
X127460000Y-71278695D01*
X127642689Y-71719745D01*
X127980255Y-72057311D01*
X128421305Y-72240000D01*
X128898695Y-72240000D01*
X129339745Y-72057311D01*
X129677311Y-71719745D01*
X129860000Y-71278695D01*
X129860000Y-70801305D01*
X130000000Y-70801305D01*
X130000000Y-71278695D01*
X130182689Y-71719745D01*
X130520255Y-72057311D01*
X130961305Y-72240000D01*
X131438695Y-72240000D01*
X131879745Y-72057311D01*
X132217311Y-71719745D01*
X132400000Y-71278695D01*
X132400000Y-70801305D01*
X132540000Y-70801305D01*
X132540000Y-71278695D01*
X132722689Y-71719745D01*
X133060255Y-72057311D01*
X133501305Y-72240000D01*
X133978695Y-72240000D01*
X134419745Y-72057311D01*
X134757311Y-71719745D01*
X134940000Y-71278695D01*
X134940000Y-70801305D01*
X135080000Y-70801305D01*
X135080000Y-71278695D01*
X135262689Y-71719745D01*
X135600255Y-72057311D01*
X136041305Y-72240000D01*
X136518695Y-72240000D01*
X136959745Y-72057311D01*
X137297311Y-71719745D01*
X137480000Y-71278695D01*
X137480000Y-70801305D01*
X137620000Y-70801305D01*
X137620000Y-71278695D01*
X137802689Y-71719745D01*
X138140255Y-72057311D01*
X138581305Y-72240000D01*
X139058695Y-72240000D01*
X139499745Y-72057311D01*
X139837311Y-71719745D01*
X140020000Y-71278695D01*
X140020000Y-70801305D01*
X140160000Y-70801305D01*
X140160000Y-71278695D01*
X140342689Y-71719745D01*
X140680255Y-72057311D01*
X141121305Y-72240000D01*
X141598695Y-72240000D01*
X142039745Y-72057311D01*
X142377311Y-71719745D01*
X142560000Y-71278695D01*
X142560000Y-70801305D01*
X142700000Y-70801305D01*
X142700000Y-71278695D01*
X142882689Y-71719745D01*
X143220255Y-72057311D01*
X143661305Y-72240000D01*
X144138695Y-72240000D01*
X144579745Y-72057311D01*
X144917311Y-71719745D01*
X145100000Y-71278695D01*
X145100000Y-70801305D01*
X145240000Y-70801305D01*
X145240000Y-71278695D01*
X145422689Y-71719745D01*
X145760255Y-72057311D01*
X146201305Y-72240000D01*
X146678695Y-72240000D01*
X147119745Y-72057311D01*
X147457311Y-71719745D01*
X147640000Y-71278695D01*
X147640000Y-70801305D01*
X147457311Y-70360255D01*
X147119745Y-70022689D01*
X146678695Y-69840000D01*
X146201305Y-69840000D01*
X145760255Y-70022689D01*
X145422689Y-70360255D01*
X145240000Y-70801305D01*
X145100000Y-70801305D01*
X144917311Y-70360255D01*
X144579745Y-70022689D01*
X144138695Y-69840000D01*
X143661305Y-69840000D01*
X143220255Y-70022689D01*
X142882689Y-70360255D01*
X142700000Y-70801305D01*
X142560000Y-70801305D01*
X142377311Y-70360255D01*
X142039745Y-70022689D01*
X141598695Y-69840000D01*
X141121305Y-69840000D01*
X140680255Y-70022689D01*
X140342689Y-70360255D01*
X140160000Y-70801305D01*
X140020000Y-70801305D01*
X139837311Y-70360255D01*
X139499745Y-70022689D01*
X139058695Y-69840000D01*
X138581305Y-69840000D01*
X138140255Y-70022689D01*
X137802689Y-70360255D01*
X137620000Y-70801305D01*
X137480000Y-70801305D01*
X137297311Y-70360255D01*
X136959745Y-70022689D01*
X136518695Y-69840000D01*
X136041305Y-69840000D01*
X135600255Y-70022689D01*
X135262689Y-70360255D01*
X135080000Y-70801305D01*
X134940000Y-70801305D01*
X134757311Y-70360255D01*
X134419745Y-70022689D01*
X133978695Y-69840000D01*
X133501305Y-69840000D01*
X133060255Y-70022689D01*
X132722689Y-70360255D01*
X132540000Y-70801305D01*
X132400000Y-70801305D01*
X132217311Y-70360255D01*
X131879745Y-70022689D01*
X131438695Y-69840000D01*
X130961305Y-69840000D01*
X130520255Y-70022689D01*
X130182689Y-70360255D01*
X130000000Y-70801305D01*
X129860000Y-70801305D01*
X129677311Y-70360255D01*
X129339745Y-70022689D01*
X128898695Y-69840000D01*
X128421305Y-69840000D01*
X127980255Y-70022689D01*
X127642689Y-70360255D01*
X127460000Y-70801305D01*
X127320000Y-70801305D01*
X127137311Y-70360255D01*
X126799745Y-70022689D01*
X126358695Y-69840000D01*
X125881305Y-69840000D01*
X125440255Y-70022689D01*
X125102689Y-70360255D01*
X124920000Y-70801305D01*
X124780000Y-70801305D01*
X124597311Y-70360255D01*
X124259745Y-70022689D01*
X123818695Y-69840000D01*
X123341305Y-69840000D01*
X122900255Y-70022689D01*
X122562689Y-70360255D01*
X122380000Y-70801305D01*
X106008173Y-70801305D01*
X106161232Y-70737906D01*
X106737906Y-70161232D01*
X107050000Y-69407770D01*
X107050000Y-68592230D01*
X106737906Y-67838768D01*
X106649138Y-67750000D01*
X109671184Y-67750000D01*
X109671184Y-69250000D01*
X109706109Y-69425581D01*
X109805568Y-69574432D01*
X109954419Y-69673891D01*
X110130000Y-69708816D01*
X111630000Y-69708816D01*
X111805581Y-69673891D01*
X111954432Y-69574432D01*
X112053891Y-69425581D01*
X112088816Y-69250000D01*
X112088816Y-68712373D01*
X112238940Y-68712373D01*
X112410114Y-69148179D01*
X112735034Y-69485306D01*
X113164234Y-69672429D01*
X113207627Y-69681058D01*
X113395000Y-69587213D01*
X113395000Y-68525000D01*
X113445000Y-68525000D01*
X113445000Y-69587213D01*
X113632373Y-69681058D01*
X113675766Y-69672429D01*
X114104966Y-69485306D01*
X114429886Y-69148179D01*
X114601060Y-68712373D01*
X114507242Y-68525000D01*
X113445000Y-68525000D01*
X113395000Y-68525000D01*
X112332758Y-68525000D01*
X112238940Y-68712373D01*
X112088816Y-68712373D01*
X112088816Y-68500000D01*
X114736491Y-68500000D01*
X114829625Y-68968217D01*
X115094848Y-69365152D01*
X115491783Y-69630375D01*
X115841812Y-69700000D01*
X116078188Y-69700000D01*
X116428217Y-69630375D01*
X116825152Y-69365152D01*
X117090375Y-68968217D01*
X117141265Y-68712373D01*
X117318940Y-68712373D01*
X117490114Y-69148179D01*
X117815034Y-69485306D01*
X118244234Y-69672429D01*
X118287627Y-69681058D01*
X118475000Y-69587213D01*
X118475000Y-68525000D01*
X118525000Y-68525000D01*
X118525000Y-69587213D01*
X118712373Y-69681058D01*
X118755766Y-69672429D01*
X119184966Y-69485306D01*
X119509886Y-69148179D01*
X119681060Y-68712373D01*
X119587242Y-68525000D01*
X118525000Y-68525000D01*
X118475000Y-68525000D01*
X117412758Y-68525000D01*
X117318940Y-68712373D01*
X117141265Y-68712373D01*
X117183509Y-68500000D01*
X117141266Y-68287627D01*
X117318940Y-68287627D01*
X117412758Y-68475000D01*
X118475000Y-68475000D01*
X118475000Y-67412787D01*
X118525000Y-67412787D01*
X118525000Y-68475000D01*
X119587242Y-68475000D01*
X119681060Y-68287627D01*
X119509886Y-67851821D01*
X119411752Y-67750000D01*
X122371184Y-67750000D01*
X122371184Y-69250000D01*
X122406109Y-69425581D01*
X122505568Y-69574432D01*
X122654419Y-69673891D01*
X122830000Y-69708816D01*
X124330000Y-69708816D01*
X124505581Y-69673891D01*
X124654432Y-69574432D01*
X124753891Y-69425581D01*
X124788816Y-69250000D01*
X124788816Y-67750000D01*
X124911184Y-67750000D01*
X124911184Y-69250000D01*
X124946109Y-69425581D01*
X125045568Y-69574432D01*
X125194419Y-69673891D01*
X125370000Y-69708816D01*
X126870000Y-69708816D01*
X127045581Y-69673891D01*
X127194432Y-69574432D01*
X127293891Y-69425581D01*
X127328816Y-69250000D01*
X127328816Y-67750000D01*
X127451184Y-67750000D01*
X127451184Y-69250000D01*
X127486109Y-69425581D01*
X127585568Y-69574432D01*
X127734419Y-69673891D01*
X127910000Y-69708816D01*
X129410000Y-69708816D01*
X129585581Y-69673891D01*
X129734432Y-69574432D01*
X129833891Y-69425581D01*
X129868816Y-69250000D01*
X129868816Y-67750000D01*
X129991184Y-67750000D01*
X129991184Y-69250000D01*
X130026109Y-69425581D01*
X130125568Y-69574432D01*
X130274419Y-69673891D01*
X130450000Y-69708816D01*
X131950000Y-69708816D01*
X132125581Y-69673891D01*
X132274432Y-69574432D01*
X132373891Y-69425581D01*
X132408816Y-69250000D01*
X132408816Y-67750000D01*
X132531184Y-67750000D01*
X132531184Y-69250000D01*
X132566109Y-69425581D01*
X132665568Y-69574432D01*
X132814419Y-69673891D01*
X132990000Y-69708816D01*
X134490000Y-69708816D01*
X134665581Y-69673891D01*
X134814432Y-69574432D01*
X134913891Y-69425581D01*
X134948816Y-69250000D01*
X134948816Y-67750000D01*
X135071184Y-67750000D01*
X135071184Y-69250000D01*
X135106109Y-69425581D01*
X135205568Y-69574432D01*
X135354419Y-69673891D01*
X135530000Y-69708816D01*
X137030000Y-69708816D01*
X137205581Y-69673891D01*
X137354432Y-69574432D01*
X137453891Y-69425581D01*
X137488816Y-69250000D01*
X137488816Y-67750000D01*
X137611184Y-67750000D01*
X137611184Y-69250000D01*
X137646109Y-69425581D01*
X137745568Y-69574432D01*
X137894419Y-69673891D01*
X138070000Y-69708816D01*
X139570000Y-69708816D01*
X139745581Y-69673891D01*
X139894432Y-69574432D01*
X139993891Y-69425581D01*
X140028816Y-69250000D01*
X140028816Y-67750000D01*
X140151184Y-67750000D01*
X140151184Y-69250000D01*
X140186109Y-69425581D01*
X140285568Y-69574432D01*
X140434419Y-69673891D01*
X140610000Y-69708816D01*
X142110000Y-69708816D01*
X142285581Y-69673891D01*
X142434432Y-69574432D01*
X142533891Y-69425581D01*
X142568816Y-69250000D01*
X142568816Y-67750000D01*
X142691184Y-67750000D01*
X142691184Y-69250000D01*
X142726109Y-69425581D01*
X142825568Y-69574432D01*
X142974419Y-69673891D01*
X143150000Y-69708816D01*
X144650000Y-69708816D01*
X144825581Y-69673891D01*
X144974432Y-69574432D01*
X145073891Y-69425581D01*
X145108816Y-69250000D01*
X145108816Y-67750000D01*
X145231184Y-67750000D01*
X145231184Y-69250000D01*
X145266109Y-69425581D01*
X145365568Y-69574432D01*
X145514419Y-69673891D01*
X145690000Y-69708816D01*
X147190000Y-69708816D01*
X147365581Y-69673891D01*
X147514432Y-69574432D01*
X147613891Y-69425581D01*
X147648816Y-69250000D01*
X147648816Y-68592230D01*
X182950000Y-68592230D01*
X182950000Y-69407770D01*
X183262094Y-70161232D01*
X183838768Y-70737906D01*
X184592230Y-71050000D01*
X185407770Y-71050000D01*
X186161232Y-70737906D01*
X186737906Y-70161232D01*
X187050000Y-69407770D01*
X187050000Y-68592230D01*
X186737906Y-67838768D01*
X186161232Y-67262094D01*
X185407770Y-66950000D01*
X184592230Y-66950000D01*
X183838768Y-67262094D01*
X183262094Y-67838768D01*
X182950000Y-68592230D01*
X147648816Y-68592230D01*
X147648816Y-67750000D01*
X147613891Y-67574419D01*
X147514432Y-67425568D01*
X147365581Y-67326109D01*
X147190000Y-67291184D01*
X145690000Y-67291184D01*
X145514419Y-67326109D01*
X145365568Y-67425568D01*
X145266109Y-67574419D01*
X145231184Y-67750000D01*
X145108816Y-67750000D01*
X145073891Y-67574419D01*
X144974432Y-67425568D01*
X144825581Y-67326109D01*
X144650000Y-67291184D01*
X143150000Y-67291184D01*
X142974419Y-67326109D01*
X142825568Y-67425568D01*
X142726109Y-67574419D01*
X142691184Y-67750000D01*
X142568816Y-67750000D01*
X142533891Y-67574419D01*
X142434432Y-67425568D01*
X142285581Y-67326109D01*
X142110000Y-67291184D01*
X140610000Y-67291184D01*
X140434419Y-67326109D01*
X140285568Y-67425568D01*
X140186109Y-67574419D01*
X140151184Y-67750000D01*
X140028816Y-67750000D01*
X139993891Y-67574419D01*
X139894432Y-67425568D01*
X139745581Y-67326109D01*
X139570000Y-67291184D01*
X138070000Y-67291184D01*
X137894419Y-67326109D01*
X137745568Y-67425568D01*
X137646109Y-67574419D01*
X137611184Y-67750000D01*
X137488816Y-67750000D01*
X137453891Y-67574419D01*
X137354432Y-67425568D01*
X137205581Y-67326109D01*
X137030000Y-67291184D01*
X135530000Y-67291184D01*
X135354419Y-67326109D01*
X135205568Y-67425568D01*
X135106109Y-67574419D01*
X135071184Y-67750000D01*
X134948816Y-67750000D01*
X134913891Y-67574419D01*
X134814432Y-67425568D01*
X134665581Y-67326109D01*
X134490000Y-67291184D01*
X132990000Y-67291184D01*
X132814419Y-67326109D01*
X132665568Y-67425568D01*
X132566109Y-67574419D01*
X132531184Y-67750000D01*
X132408816Y-67750000D01*
X132373891Y-67574419D01*
X132274432Y-67425568D01*
X132125581Y-67326109D01*
X131950000Y-67291184D01*
X130450000Y-67291184D01*
X130274419Y-67326109D01*
X130125568Y-67425568D01*
X130026109Y-67574419D01*
X129991184Y-67750000D01*
X129868816Y-67750000D01*
X129833891Y-67574419D01*
X129734432Y-67425568D01*
X129585581Y-67326109D01*
X129410000Y-67291184D01*
X127910000Y-67291184D01*
X127734419Y-67326109D01*
X127585568Y-67425568D01*
X127486109Y-67574419D01*
X127451184Y-67750000D01*
X127328816Y-67750000D01*
X127293891Y-67574419D01*
X127194432Y-67425568D01*
X127045581Y-67326109D01*
X126870000Y-67291184D01*
X125370000Y-67291184D01*
X125194419Y-67326109D01*
X125045568Y-67425568D01*
X124946109Y-67574419D01*
X124911184Y-67750000D01*
X124788816Y-67750000D01*
X124753891Y-67574419D01*
X124654432Y-67425568D01*
X124505581Y-67326109D01*
X124330000Y-67291184D01*
X122830000Y-67291184D01*
X122654419Y-67326109D01*
X122505568Y-67425568D01*
X122406109Y-67574419D01*
X122371184Y-67750000D01*
X119411752Y-67750000D01*
X119184966Y-67514694D01*
X118755766Y-67327571D01*
X118712373Y-67318942D01*
X118525000Y-67412787D01*
X118475000Y-67412787D01*
X118287627Y-67318942D01*
X118244234Y-67327571D01*
X117815034Y-67514694D01*
X117490114Y-67851821D01*
X117318940Y-68287627D01*
X117141266Y-68287627D01*
X117090375Y-68031783D01*
X116825152Y-67634848D01*
X116428217Y-67369625D01*
X116078188Y-67300000D01*
X115841812Y-67300000D01*
X115491783Y-67369625D01*
X115094848Y-67634848D01*
X114829625Y-68031783D01*
X114736491Y-68500000D01*
X112088816Y-68500000D01*
X112088816Y-68287627D01*
X112238940Y-68287627D01*
X112332758Y-68475000D01*
X113395000Y-68475000D01*
X113395000Y-67412787D01*
X113445000Y-67412787D01*
X113445000Y-68475000D01*
X114507242Y-68475000D01*
X114601060Y-68287627D01*
X114429886Y-67851821D01*
X114104966Y-67514694D01*
X113675766Y-67327571D01*
X113632373Y-67318942D01*
X113445000Y-67412787D01*
X113395000Y-67412787D01*
X113207627Y-67318942D01*
X113164234Y-67327571D01*
X112735034Y-67514694D01*
X112410114Y-67851821D01*
X112238940Y-68287627D01*
X112088816Y-68287627D01*
X112088816Y-67750000D01*
X112053891Y-67574419D01*
X111954432Y-67425568D01*
X111805581Y-67326109D01*
X111630000Y-67291184D01*
X110130000Y-67291184D01*
X109954419Y-67326109D01*
X109805568Y-67425568D01*
X109706109Y-67574419D01*
X109671184Y-67750000D01*
X106649138Y-67750000D01*
X106161232Y-67262094D01*
X105407770Y-66950000D01*
X104592230Y-66950000D01*
X103838768Y-67262094D01*
X103262094Y-67838768D01*
X102950000Y-68592230D01*
X100525000Y-68592230D01*
X100525000Y-66525000D01*
X199475000Y-66525000D01*
X199475001Y-99475000D01*
G36*
X133450000Y-88990914D02*
X133438247Y-89050000D01*
X133450000Y-89109086D01*
X133450000Y-89109091D01*
X133478029Y-89250000D01*
X133484814Y-89284108D01*
X133551529Y-89383953D01*
X133617426Y-89482575D01*
X133667519Y-89516046D01*
X134383952Y-90232480D01*
X134417425Y-90282575D01*
X134467519Y-90316047D01*
X134615891Y-90415187D01*
X134657687Y-90423501D01*
X134790909Y-90450000D01*
X134790912Y-90450000D01*
X134850000Y-90461753D01*
X134909088Y-90450000D01*
X136101473Y-90450000D01*
X137550000Y-91898528D01*
X137550001Y-93390909D01*
X137538247Y-93450000D01*
X137550001Y-93509091D01*
X137584814Y-93684108D01*
X137717426Y-93882575D01*
X137767519Y-93916046D01*
X138250000Y-94398528D01*
X138250000Y-94509130D01*
X138351381Y-94753884D01*
X138195892Y-94784813D01*
X137997425Y-94917425D01*
X137963953Y-94967519D01*
X136598441Y-96333032D01*
X136518695Y-96300000D01*
X136041305Y-96300000D01*
X135600255Y-96482689D01*
X135262689Y-96820255D01*
X135080000Y-97261305D01*
X135080000Y-97738695D01*
X135262689Y-98179745D01*
X135332944Y-98250000D01*
X134687056Y-98250000D01*
X134757311Y-98179745D01*
X134940000Y-97738695D01*
X134940000Y-97261305D01*
X134757311Y-96820255D01*
X134419745Y-96482689D01*
X134340000Y-96449658D01*
X134340000Y-93499085D01*
X134351753Y-93439999D01*
X134340000Y-93380913D01*
X134340000Y-93380909D01*
X134305187Y-93205892D01*
X134172575Y-93007425D01*
X134122482Y-92973954D01*
X133200000Y-92051473D01*
X133200000Y-88748527D01*
X133448528Y-88500000D01*
X133450000Y-88500000D01*
X133450000Y-88990914D01*
X133450000Y-88990914D01*
G37*
X133450000Y-88990914D02*
X133438247Y-89050000D01*
X133450000Y-89109086D01*
X133450000Y-89109091D01*
X133478029Y-89250000D01*
X133484814Y-89284108D01*
X133551529Y-89383953D01*
X133617426Y-89482575D01*
X133667519Y-89516046D01*
X134383952Y-90232480D01*
X134417425Y-90282575D01*
X134467519Y-90316047D01*
X134615891Y-90415187D01*
X134657687Y-90423501D01*
X134790909Y-90450000D01*
X134790912Y-90450000D01*
X134850000Y-90461753D01*
X134909088Y-90450000D01*
X136101473Y-90450000D01*
X137550000Y-91898528D01*
X137550001Y-93390909D01*
X137538247Y-93450000D01*
X137550001Y-93509091D01*
X137584814Y-93684108D01*
X137717426Y-93882575D01*
X137767519Y-93916046D01*
X138250000Y-94398528D01*
X138250000Y-94509130D01*
X138351381Y-94753884D01*
X138195892Y-94784813D01*
X137997425Y-94917425D01*
X137963953Y-94967519D01*
X136598441Y-96333032D01*
X136518695Y-96300000D01*
X136041305Y-96300000D01*
X135600255Y-96482689D01*
X135262689Y-96820255D01*
X135080000Y-97261305D01*
X135080000Y-97738695D01*
X135262689Y-98179745D01*
X135332944Y-98250000D01*
X134687056Y-98250000D01*
X134757311Y-98179745D01*
X134940000Y-97738695D01*
X134940000Y-97261305D01*
X134757311Y-96820255D01*
X134419745Y-96482689D01*
X134340000Y-96449658D01*
X134340000Y-93499085D01*
X134351753Y-93439999D01*
X134340000Y-93380913D01*
X134340000Y-93380909D01*
X134305187Y-93205892D01*
X134172575Y-93007425D01*
X134122482Y-92973954D01*
X133200000Y-92051473D01*
X133200000Y-88748527D01*
X133448528Y-88500000D01*
X133450000Y-88500000D01*
X133450000Y-88990914D01*
G04 #@! TD*
M02*
