M48
;DRILL file {KiCad (5.0.0)} date 10/15/19 14:43:17
;FORMAT={-:-/ absolute / metric / decimal}
FMAT,2
METRIC,TZ
T1C0.300
T2C0.900
T3C1.100
T4C1.200
T5C2.500
%
G90
G05
M71
T1
X101.Y-67.
X101.Y-72.
X101.Y-89.5
X101.Y-95.
X101.Y-99.
X104.Y-88.5
X106.05Y-85.75
X107.Y-88.5
X107.Y-91.5
X107.5Y-78.
X107.75Y-80.9
X108.5Y-99.
X109.Y-73.
X110.Y-91.5
X110.Y-94.5
X110.65Y-87.8
X112.Y-80.
X112.5Y-73.
X113.Y-92.75
X115.Y-83.5
X115.Y-94.5
X116.Y-86.
X116.5Y-73.
X117.Y-80.
X117.Y-91.
X119.Y-92.5
X120.5Y-73.
X120.5Y-76.5
X121.Y-68.
X121.Y-97.5
X121.5Y-86.
X121.5Y-91.
X121.5Y-94.5
X122.5Y-80.
X123.Y-77.
X123.5Y-89.
X124.85Y-79.9
X125.Y-92.5
X125.5Y-83.5
X125.55Y-95.4
X126.Y-86.5
X126.9Y-81.75
X128.Y-87.5
X128.15Y-77.45
X128.35Y-79.1
X128.9Y-82.7
X130.Y-86.5
X130.5Y-75.7
X130.8Y-77.5
X131.5Y-87.5
X132.6Y-76.3
X133.4Y-87.7
X133.7Y-90.5
X134.25Y-82.3
X134.95Y-88.6
X135.Y-95.8
X135.35Y-81.85
X135.6Y-84.75
X136.5Y-80.1
X138.Y-80.1
X138.Y-82.5
X138.Y-84.5
X138.9Y-81.
X139.05Y-93.1
X139.05Y-94.35
X140.4Y-86.8
X140.6Y-90.9
X143.8Y-80.4
X143.8Y-86.75
X144.3Y-91.5
X144.3Y-95.
X145.Y-75.9
X145.7Y-80.4
X145.7Y-87.5
X145.7Y-89.5
X148.Y-87.5
X148.Y-92.
X149.Y-69.7
X149.Y-72.3
X150.Y-89.5
X150.3Y-80.4
X152.Y-91.5
X152.75Y-92.9
X153.2Y-80.4
X154.7Y-69.7
X154.7Y-72.3
X154.8Y-81.9
X154.8Y-86.
X154.8Y-90.
X156.Y-79.
X156.4Y-68.
X156.6Y-93.85
X157.85Y-71.15
X158.Y-69.7
X158.4Y-93.85
X159.Y-79.
X159.3Y-68.
X159.3Y-72.
X159.4Y-90.1
X159.4Y-91.8
X160.Y-75.5
X161.Y-69.7
X162.7Y-72.
X164.Y-94.
X164.85Y-71.85
X165.Y-67.
X165.Y-83.5
X165.5Y-75.5
X166.Y-91.5
X167.Y-86.
X168.15Y-75.15
X168.5Y-89.5
X170.Y-67.
X170.Y-72.
X170.Y-91.5
X170.Y-99.
X170.5Y-88.
X172.5Y-97.
X174.25Y-86.6
X174.25Y-90.3
X175.Y-67.
X175.Y-72.
X175.Y-99.
X176.Y-80.
X176.Y-95.
X180.Y-67.
X180.Y-72.
X180.Y-91.
X180.Y-95.
X180.Y-99.
X180.35Y-76.55
X183.Y-77.
X183.Y-82.
X184.5Y-84.4
X184.5Y-86.5
X185.Y-74.
X185.Y-91.
X186.5Y-84.4
X186.5Y-86.5
X187.Y-79.5
X187.5Y-93.5
X188.Y-82.
X190.Y-67.
X190.Y-72.
X190.Y-77.
X191.5Y-91.
X191.5Y-93.5
X193.1Y-88.05
X195.Y-67.
X195.Y-72.
X195.Y-80.5
X195.5Y-91.5
X196.5Y-94.
X199.Y-72.
X199.Y-89.
X199.Y-94.
X199.Y-99.
T2
X133.74Y-68.5
X133.74Y-71.04
X133.74Y-73.58
X143.9Y-68.5
X143.9Y-71.04
X143.9Y-73.58
X166.76Y-94.96
X166.76Y-97.5
X191.16Y-97.5
X193.7Y-97.5
X196.24Y-97.5
X128.66Y-68.5
X128.66Y-71.04
X128.66Y-73.58
X110.88Y-97.5
X113.42Y-97.5
X115.96Y-97.5
X118.5Y-97.5
X123.58Y-68.5
X123.58Y-71.04
X123.58Y-73.58
X141.36Y-68.5
X141.36Y-71.04
X141.36Y-73.58
X154.06Y-97.5
X156.6Y-97.5
X159.14Y-97.5
X161.68Y-97.5
X136.28Y-68.5
X136.28Y-71.04
X136.28Y-73.58
X146.44Y-68.5
X146.44Y-71.04
X146.44Y-73.58
X123.58Y-97.5
X126.12Y-97.5
X128.66Y-97.5
X131.2Y-97.5
X133.74Y-97.5
X136.28Y-97.5
X131.2Y-68.5
X131.2Y-71.04
X131.2Y-73.58
X102.36Y-75.2
X104.9Y-75.2
X126.12Y-68.5
X126.12Y-71.04
X126.12Y-73.58
X141.36Y-97.5
X143.9Y-97.5
X146.44Y-97.5
X148.98Y-97.5
X138.82Y-68.5
X138.82Y-71.04
X138.82Y-73.58
X110.88Y-68.5
X113.42Y-68.5
X115.96Y-68.5
X118.5Y-68.5
T3
X193.Y-77.
X193.Y-83.5
X197.5Y-77.
X197.5Y-83.5
X173.Y-77.
X173.Y-83.5
X177.5Y-77.
X177.5Y-83.5
T4
X112.5Y-76.5
X115.Y-76.5
X117.5Y-76.5
X152.5Y-76.5
X155.Y-76.5
X157.5Y-76.5
T5
X110.6Y-83.5
X119.4Y-83.5
X150.6Y-83.5
X159.4Y-83.5
T0
M30
