G04 #@! TF.FileFunction,Copper,L1,Top,Signal*
%FSLAX46Y46*%
G04 Gerber Fmt 4.6, Leading zero omitted, Abs format (unit mm)*
G04 Created by KiCad (PCBNEW 4.0.5) date 11/21/17 13:44:46*
%MOMM*%
%LPD*%
G01*
G04 APERTURE LIST*
%ADD10C,0.100000*%
%ADD11O,1.100000X1.800000*%
%ADD12R,0.400000X2.700000*%
%ADD13R,1.500000X1.500000*%
%ADD14C,1.500000*%
%ADD15R,0.750000X1.200000*%
%ADD16R,1.200000X0.750000*%
%ADD17R,1.500000X3.000000*%
%ADD18R,0.700000X1.100000*%
%ADD19R,0.550000X1.600000*%
%ADD20R,1.600000X0.550000*%
%ADD21R,1.200000X0.900000*%
%ADD22R,0.900000X1.200000*%
%ADD23R,0.600000X1.200000*%
%ADD24O,1.500000X1.500000*%
%ADD25C,0.700000*%
%ADD26C,0.300000*%
%ADD27C,0.500000*%
%ADD28C,0.750000*%
G04 APERTURE END LIST*
D10*
D11*
X105137000Y-54674300D03*
X112287000Y-54674300D03*
X105137000Y-51204300D03*
D12*
X110012000Y-54514300D03*
X109362000Y-54514300D03*
X107412000Y-54514300D03*
X108062000Y-54514300D03*
X108712000Y-54514300D03*
D11*
X112287000Y-51204300D03*
D13*
X106050000Y-91660000D03*
D14*
X108590000Y-91660000D03*
X111130000Y-91660000D03*
X113670000Y-91660000D03*
X116210000Y-91660000D03*
X118750000Y-91660000D03*
D13*
X119000000Y-63950000D03*
D14*
X121540000Y-63950000D03*
X124080000Y-63950000D03*
D13*
X119000000Y-66490000D03*
D14*
X121540000Y-66490000D03*
X124080000Y-66490000D03*
D13*
X119000000Y-69030000D03*
D14*
X121540000Y-69030000D03*
X124080000Y-69030000D03*
D13*
X119000000Y-71570000D03*
D14*
X121540000Y-71570000D03*
X124080000Y-71570000D03*
D13*
X119000000Y-74110000D03*
D14*
X121540000Y-74110000D03*
X124080000Y-74110000D03*
D13*
X119000000Y-76650000D03*
D14*
X121540000Y-76650000D03*
X124080000Y-76650000D03*
D13*
X119000000Y-79190000D03*
D14*
X121540000Y-79190000D03*
X124080000Y-79190000D03*
D13*
X119000000Y-81730000D03*
D14*
X121540000Y-81730000D03*
X124080000Y-81730000D03*
D13*
X119000000Y-84270000D03*
D14*
X121540000Y-84270000D03*
X124080000Y-84270000D03*
D15*
X109050000Y-80900000D03*
X109050000Y-82800000D03*
D16*
X121700000Y-53650000D03*
X123600000Y-53650000D03*
D15*
X108700000Y-98750000D03*
X108700000Y-96850000D03*
X110200000Y-98750000D03*
X110200000Y-96850000D03*
X111700000Y-98750000D03*
X111700000Y-96850000D03*
X113200000Y-98750000D03*
X113200000Y-96850000D03*
X114700000Y-98750000D03*
X114700000Y-96850000D03*
X116200000Y-98750000D03*
X116200000Y-96850000D03*
X115300000Y-56050000D03*
X115300000Y-54150000D03*
D16*
X121700000Y-56050000D03*
X123600000Y-56050000D03*
D15*
X107000000Y-80900000D03*
X107000000Y-82800000D03*
X110550000Y-80900000D03*
X110550000Y-82800000D03*
D16*
X113650000Y-65850000D03*
X115550000Y-65850000D03*
D17*
X123900000Y-94348980D03*
X123900000Y-90351020D03*
D15*
X112050000Y-58800000D03*
X112050000Y-60700000D03*
D18*
X119250000Y-53650000D03*
X118300000Y-53650000D03*
X117350000Y-53650000D03*
X117350000Y-56050000D03*
X119250000Y-56050000D03*
D19*
X107000000Y-77500000D03*
X107800000Y-77500000D03*
X108600000Y-77500000D03*
X109400000Y-77500000D03*
X110200000Y-77500000D03*
X111000000Y-77500000D03*
X111800000Y-77500000D03*
X112600000Y-77500000D03*
D20*
X114050000Y-76050000D03*
X114050000Y-75250000D03*
X114050000Y-74450000D03*
X114050000Y-73650000D03*
X114050000Y-72850000D03*
X114050000Y-72050000D03*
X114050000Y-71250000D03*
X114050000Y-70450000D03*
D19*
X112600000Y-69000000D03*
X111800000Y-69000000D03*
X111000000Y-69000000D03*
X110200000Y-69000000D03*
X109400000Y-69000000D03*
X108600000Y-69000000D03*
X107800000Y-69000000D03*
X107000000Y-69000000D03*
D20*
X105550000Y-70450000D03*
X105550000Y-71250000D03*
X105550000Y-72050000D03*
X105550000Y-72850000D03*
X105550000Y-73650000D03*
X105550000Y-74450000D03*
X105550000Y-75250000D03*
X105550000Y-76050000D03*
D21*
X106850000Y-86800000D03*
X104650000Y-86800000D03*
X106850000Y-85200000D03*
X104650000Y-85200000D03*
D22*
X101000000Y-74950000D03*
X101000000Y-77150000D03*
X108400000Y-86800000D03*
X108400000Y-89000000D03*
X110000000Y-86800000D03*
X110000000Y-89000000D03*
X111600000Y-86800000D03*
X111600000Y-89000000D03*
X113200000Y-86800000D03*
X113200000Y-89000000D03*
X114800000Y-86800000D03*
X114800000Y-89000000D03*
X116400000Y-86800000D03*
X116400000Y-89000000D03*
X104200000Y-58850000D03*
X104200000Y-56650000D03*
X102600000Y-58850000D03*
X102600000Y-56650000D03*
X101000000Y-58850000D03*
X101000000Y-56650000D03*
X109800000Y-64350000D03*
X109800000Y-62150000D03*
X108200000Y-64350000D03*
X108200000Y-62150000D03*
D23*
X109950000Y-57650000D03*
X109000000Y-57650000D03*
X108050000Y-57650000D03*
X109950000Y-59950000D03*
X109000000Y-59950000D03*
X108050000Y-59950000D03*
D13*
X102000000Y-83000000D03*
D24*
X102000000Y-85540000D03*
D13*
X120200000Y-50500000D03*
D24*
X117660000Y-50500000D03*
D13*
X101850000Y-72300000D03*
D24*
X101850000Y-69760000D03*
D13*
X124100000Y-59500000D03*
D24*
X121560000Y-59500000D03*
X119020000Y-59500000D03*
X116480000Y-59500000D03*
D13*
X119000000Y-86810000D03*
D14*
X121540000Y-86810000D03*
X124080000Y-86810000D03*
D13*
X106050000Y-94200000D03*
D14*
X108590000Y-94200000D03*
X111130000Y-94200000D03*
X113670000Y-94200000D03*
X116210000Y-94200000D03*
X118750000Y-94200000D03*
D13*
X101850000Y-61500000D03*
D14*
X104390000Y-61500000D03*
X101850000Y-64040000D03*
X104390000Y-64040000D03*
X101850000Y-66580000D03*
X104390000Y-66580000D03*
D25*
X112050000Y-57000000D03*
X108991400Y-56642000D03*
X123600000Y-57200000D03*
X120500000Y-98750000D03*
X118750000Y-97000000D03*
X121700000Y-94300000D03*
X112150000Y-71650000D03*
X115000000Y-67500000D03*
X109800000Y-70800000D03*
X107750000Y-66200000D03*
X106300000Y-56700000D03*
X106800000Y-63250000D03*
X106500000Y-58500000D03*
X110250000Y-66200000D03*
X110600000Y-84700000D03*
X112600000Y-84700000D03*
X111800000Y-83050000D03*
X104000000Y-77250000D03*
X104500000Y-79500000D03*
X104750000Y-82750000D03*
X123600000Y-54850000D03*
X114100000Y-58350000D03*
X113400000Y-60700000D03*
X112050000Y-62200000D03*
X115000000Y-50500000D03*
X113500000Y-54000000D03*
X104000000Y-53500000D03*
X101000000Y-53500000D03*
X116200000Y-63000000D03*
X101000000Y-79100000D03*
X105750000Y-88750000D03*
X101500000Y-88750000D03*
X101500000Y-94750000D03*
X105500000Y-98750000D03*
X105900000Y-80900000D03*
X111600000Y-81000000D03*
X114750000Y-63800000D03*
X107650000Y-75850000D03*
X108600000Y-75250000D03*
X109550000Y-75850000D03*
X111800000Y-75200000D03*
X107900000Y-72050000D03*
X108600000Y-73050000D03*
X103850000Y-75250000D03*
D26*
X112050000Y-58750000D02*
X109250000Y-58750000D01*
X109000000Y-59000000D02*
X109000000Y-59950000D01*
X109250000Y-58750000D02*
X109000000Y-59000000D01*
D27*
X112050000Y-57000000D02*
X111450000Y-56400000D01*
D26*
X110000000Y-54950000D02*
X111450000Y-56400000D01*
X110000000Y-53700000D02*
X110000000Y-54950000D01*
D27*
X112050000Y-57000000D02*
X112050000Y-58800000D01*
D26*
X119250000Y-53650000D02*
X119250000Y-54600000D01*
X117350000Y-54600000D02*
X117350000Y-53650000D01*
X117600000Y-54850000D02*
X117350000Y-54600000D01*
X119000000Y-54850000D02*
X117600000Y-54850000D01*
X119250000Y-54600000D02*
X119000000Y-54850000D01*
D27*
X121700000Y-53650000D02*
X119250000Y-53650000D01*
X121700000Y-52000000D02*
X121700000Y-53650000D01*
X120200000Y-50500000D02*
X121700000Y-52000000D01*
D26*
X109000000Y-57650000D02*
X109000000Y-56650600D01*
X109000000Y-56650600D02*
X108991400Y-56642000D01*
X123600000Y-56050000D02*
X123600000Y-57200000D01*
X120500000Y-98750000D02*
X118750000Y-97000000D01*
D28*
X108700000Y-98750000D02*
X107300000Y-98750000D01*
X116200000Y-98750000D02*
X117500000Y-98750000D01*
X114700000Y-98750000D02*
X116200000Y-98750000D01*
X113200000Y-98750000D02*
X114700000Y-98750000D01*
X111700000Y-98750000D02*
X113200000Y-98750000D01*
X110200000Y-98750000D02*
X111700000Y-98750000D01*
X108700000Y-98750000D02*
X110200000Y-98750000D01*
D26*
X120500000Y-98750000D02*
X121700000Y-97550000D01*
X121700000Y-97550000D02*
X121700000Y-94300000D01*
X117500000Y-98750000D02*
X120500000Y-98750000D01*
X115550000Y-65850000D02*
X115550000Y-66750000D01*
X115000000Y-67300000D02*
X115000000Y-67500000D01*
X115550000Y-66750000D02*
X115000000Y-67300000D01*
X106800000Y-64300000D02*
X107250000Y-64750000D01*
X107250000Y-64750000D02*
X107250000Y-65100000D01*
X107250000Y-65100000D02*
X107350000Y-65200000D01*
X107350000Y-65200000D02*
X107350000Y-65800000D01*
X107350000Y-65800000D02*
X107750000Y-66200000D01*
X106300000Y-56700000D02*
X106300000Y-58300000D01*
X106250000Y-56650000D02*
X104200000Y-56650000D01*
X106250000Y-56650000D02*
X106300000Y-56700000D01*
X106300000Y-58300000D02*
X106500000Y-58500000D01*
X106800000Y-63250000D02*
X106800000Y-64300000D01*
X112600000Y-84700000D02*
X112600000Y-83700000D01*
X110550000Y-84650000D02*
X110600000Y-84700000D01*
X110550000Y-82800000D02*
X110550000Y-84650000D01*
X112600000Y-83700000D02*
X111800000Y-83050000D01*
X107000000Y-82800000D02*
X104800000Y-82800000D01*
X104000000Y-79000000D02*
X104000000Y-77250000D01*
X104500000Y-79500000D02*
X104000000Y-79000000D01*
X104800000Y-82800000D02*
X104750000Y-82750000D01*
X123600000Y-56050000D02*
X123600000Y-54850000D01*
X112050000Y-60700000D02*
X113400000Y-60700000D01*
X112050000Y-60700000D02*
X112050000Y-62200000D01*
X114633500Y-50866500D02*
X115000000Y-50500000D01*
X111938500Y-50866500D02*
X114633500Y-50866500D01*
X101000000Y-56650000D02*
X101000000Y-53500000D01*
X107400000Y-53700000D02*
X107400000Y-55200000D01*
X116200000Y-64300000D02*
X116200000Y-63000000D01*
X115550000Y-64950000D02*
X116200000Y-64300000D01*
X115550000Y-65850000D02*
X115550000Y-64950000D01*
X101000000Y-77150000D02*
X101000000Y-79100000D01*
X118300000Y-52400000D02*
X118300000Y-53650000D01*
X117660000Y-51760000D02*
X118300000Y-52400000D01*
X107300000Y-98750000D02*
X105500000Y-98750000D01*
X101500000Y-94750000D02*
X101500000Y-88750000D01*
X117660000Y-50500000D02*
X117660000Y-51760000D01*
D27*
X111600000Y-81000000D02*
X114800000Y-84200000D01*
D26*
X111550000Y-80900000D02*
X111600000Y-81000000D01*
D27*
X123900000Y-90351020D02*
X122551020Y-90351020D01*
X122551020Y-90351020D02*
X120750000Y-88550000D01*
X123900000Y-90351020D02*
X123900000Y-86990000D01*
X123900000Y-86990000D02*
X124080000Y-86810000D01*
X106850000Y-86800000D02*
X106850000Y-85200000D01*
X108400000Y-86800000D02*
X106850000Y-86800000D01*
X124080000Y-84270000D02*
X124080000Y-86810000D01*
X124080000Y-81730000D02*
X124080000Y-84270000D01*
X124080000Y-79190000D02*
X124080000Y-81730000D01*
X124080000Y-76650000D02*
X124080000Y-79190000D01*
X124080000Y-74110000D02*
X124080000Y-76650000D01*
X124080000Y-71570000D02*
X124080000Y-74110000D01*
X124080000Y-69030000D02*
X124080000Y-71570000D01*
X124080000Y-66490000D02*
X124080000Y-69030000D01*
X124080000Y-63950000D02*
X124080000Y-66490000D01*
D26*
X105900000Y-80900000D02*
X107000000Y-80900000D01*
X110550000Y-80900000D02*
X111550000Y-80900000D01*
D27*
X114750000Y-63800000D02*
X113650000Y-64900000D01*
X113650000Y-64900000D02*
X113650000Y-65850000D01*
X116480000Y-59500000D02*
X118430000Y-57550000D01*
X118430000Y-57550000D02*
X121100000Y-57550000D01*
X121100000Y-57550000D02*
X121700000Y-56950000D01*
X121700000Y-56950000D02*
X121700000Y-56050000D01*
X119250000Y-56050000D02*
X121700000Y-56050000D01*
D26*
X113650000Y-65850000D02*
X113650000Y-66650000D01*
X113650000Y-66650000D02*
X112600000Y-67700000D01*
X112600000Y-67700000D02*
X112600000Y-69000000D01*
X107000000Y-77500000D02*
X107000000Y-80900000D01*
X110200000Y-77500000D02*
X110200000Y-79450000D01*
X110550000Y-79800000D02*
X110550000Y-80900000D01*
X110200000Y-79450000D02*
X110550000Y-79800000D01*
D27*
X120750000Y-88550000D02*
X118150000Y-88550000D01*
X110000000Y-86800000D02*
X108400000Y-86800000D01*
X111600000Y-86800000D02*
X110000000Y-86800000D01*
X113200000Y-86800000D02*
X111600000Y-86800000D01*
X114800000Y-86800000D02*
X113200000Y-86800000D01*
X114800000Y-84200000D02*
X114800000Y-86800000D01*
X116400000Y-86800000D02*
X114800000Y-86800000D01*
X118150000Y-88550000D02*
X116350000Y-86750000D01*
X116450000Y-86800000D02*
X116400000Y-86800000D01*
X116400000Y-86800000D02*
X116400000Y-86800000D01*
D26*
X107350000Y-95300000D02*
X108700000Y-96650000D01*
X108700000Y-96650000D02*
X108700000Y-96850000D01*
X107350000Y-93000000D02*
X107350000Y-95300000D01*
X108400000Y-89000000D02*
X108400000Y-89200000D01*
X107750000Y-77500000D02*
X107750000Y-75950000D01*
X107750000Y-75950000D02*
X107650000Y-75850000D01*
X106050000Y-91660000D02*
X106050000Y-91700000D01*
X106050000Y-91700000D02*
X107350000Y-93000000D01*
X108400000Y-89200000D02*
X106050000Y-91550000D01*
X106050000Y-91550000D02*
X106050000Y-91660000D01*
X110200000Y-95750000D02*
X110200000Y-96850000D01*
X109850000Y-95400000D02*
X110200000Y-95750000D01*
X109850000Y-92920000D02*
X109850000Y-95400000D01*
X110000000Y-89000000D02*
X110000000Y-90250000D01*
X108600000Y-77500000D02*
X108600000Y-75250000D01*
X108590000Y-91660000D02*
X109850000Y-92920000D01*
X110000000Y-90250000D02*
X108590000Y-91660000D01*
X111700000Y-95750000D02*
X111700000Y-96850000D01*
X112400000Y-95050000D02*
X111700000Y-95750000D01*
X112400000Y-92930000D02*
X112400000Y-95050000D01*
X108400000Y-71200000D02*
X105550000Y-71200000D01*
X109550000Y-72350000D02*
X108400000Y-71200000D01*
X109550000Y-75850000D02*
X109550000Y-72350000D01*
X111130000Y-91660000D02*
X112400000Y-92930000D01*
X111450000Y-91340000D02*
X111130000Y-91660000D01*
X111450000Y-89100000D02*
X111450000Y-91340000D01*
X111800000Y-70400000D02*
X111200000Y-71000000D01*
X111200000Y-74600000D02*
X111800000Y-75200000D01*
X111200000Y-71000000D02*
X111200000Y-74600000D01*
X114950000Y-94750000D02*
X113200000Y-96500000D01*
X113200000Y-96500000D02*
X113200000Y-96850000D01*
X113200000Y-96600000D02*
X113200000Y-96850000D01*
X114950000Y-92940000D02*
X114950000Y-94750000D01*
X113350000Y-89100000D02*
X113350000Y-91340000D01*
X111800000Y-69000000D02*
X111800000Y-70400000D01*
X113670000Y-91660000D02*
X114950000Y-92940000D01*
X113350000Y-91340000D02*
X113670000Y-91660000D01*
X114700000Y-96500000D02*
X114700000Y-96850000D01*
X115650000Y-95550000D02*
X114700000Y-96500000D01*
X116700000Y-95550000D02*
X115650000Y-95550000D01*
X117500000Y-94750000D02*
X116700000Y-95550000D01*
X117500000Y-92950000D02*
X117500000Y-94750000D01*
X114800000Y-89000000D02*
X114800000Y-90250000D01*
X105550000Y-72050000D02*
X107900000Y-72050000D01*
X116210000Y-91660000D02*
X117500000Y-92950000D01*
X114800000Y-90250000D02*
X116210000Y-91660000D01*
X117200000Y-96850000D02*
X116200000Y-96850000D01*
X118500000Y-95550000D02*
X117200000Y-96850000D01*
X119350000Y-95550000D02*
X118500000Y-95550000D01*
X120050000Y-94850000D02*
X119350000Y-95550000D01*
X120050000Y-92960000D02*
X120050000Y-94850000D01*
X116400000Y-89000000D02*
X116400000Y-89200000D01*
X116400000Y-89200000D02*
X118750000Y-91550000D01*
X108450000Y-72900000D02*
X105600000Y-72900000D01*
X108600000Y-73050000D02*
X108450000Y-72900000D01*
X105600000Y-72900000D02*
X105550000Y-72850000D01*
X118750000Y-91660000D02*
X120050000Y-92960000D01*
X118750000Y-91550000D02*
X118750000Y-91660000D01*
X109400000Y-77500000D02*
X109400000Y-79450000D01*
X109050000Y-79800000D02*
X109050000Y-80900000D01*
X109400000Y-79450000D02*
X109050000Y-79800000D01*
X111000000Y-77500000D02*
X111000000Y-79150000D01*
X111000000Y-79150000D02*
X113600000Y-81750000D01*
X115500000Y-81750000D02*
X113600000Y-81750000D01*
X117850000Y-85550000D02*
X120280000Y-85550000D01*
X117850000Y-85550000D02*
X117350000Y-85050000D01*
X117350000Y-85050000D02*
X117350000Y-83600000D01*
X117350000Y-83600000D02*
X115500000Y-81750000D01*
X120280000Y-85550000D02*
X121540000Y-86810000D01*
X113975000Y-81125000D02*
X115875000Y-81125000D01*
X111800000Y-77500000D02*
X111800000Y-78950000D01*
X111800000Y-78950000D02*
X113975000Y-81125000D01*
X115875000Y-81125000D02*
X117750000Y-83000000D01*
X117750000Y-83000000D02*
X120270000Y-83000000D01*
X120270000Y-83000000D02*
X121540000Y-84270000D01*
X112600000Y-77500000D02*
X112600000Y-78750000D01*
X112600000Y-78750000D02*
X114300000Y-80450000D01*
X114300000Y-80450000D02*
X120260000Y-80450000D01*
X120260000Y-80450000D02*
X121540000Y-81730000D01*
X114050000Y-76050000D02*
X115400000Y-76050000D01*
X115400000Y-76050000D02*
X117250000Y-77900000D01*
X117250000Y-77900000D02*
X120250000Y-77900000D01*
X120250000Y-77900000D02*
X121540000Y-79190000D01*
X114050000Y-75200000D02*
X115450000Y-75200000D01*
X115450000Y-75200000D02*
X115650000Y-75400000D01*
X115650000Y-75400000D02*
X120290000Y-75400000D01*
X120290000Y-75400000D02*
X121540000Y-76650000D01*
X120280000Y-72850000D02*
X121540000Y-74110000D01*
X117700000Y-72850000D02*
X120280000Y-72850000D01*
X116100000Y-74450000D02*
X117700000Y-72850000D01*
X114050000Y-74450000D02*
X116100000Y-74450000D01*
X120270000Y-70300000D02*
X121540000Y-71570000D01*
X117850000Y-70300000D02*
X120270000Y-70300000D01*
X117500000Y-70650000D02*
X117850000Y-70300000D01*
X117500000Y-72050000D02*
X117500000Y-70650000D01*
X115900000Y-73650000D02*
X117500000Y-72050000D01*
X114050000Y-73650000D02*
X115900000Y-73650000D01*
X117500000Y-69700000D02*
X117500000Y-68050000D01*
X120260000Y-67750000D02*
X121540000Y-69030000D01*
X117800000Y-67750000D02*
X120260000Y-67750000D01*
X117500000Y-68050000D02*
X117800000Y-67750000D01*
X116850000Y-70350000D02*
X117500000Y-69700000D01*
X116850000Y-71700000D02*
X116850000Y-70350000D01*
X115700000Y-72850000D02*
X116850000Y-71700000D01*
X114050000Y-72850000D02*
X115700000Y-72850000D01*
X117500000Y-67050000D02*
X117500000Y-65550000D01*
X116850000Y-67700000D02*
X117500000Y-67050000D01*
X120250000Y-65200000D02*
X121540000Y-66490000D01*
X117850000Y-65200000D02*
X120250000Y-65200000D01*
X117500000Y-65550000D02*
X117850000Y-65200000D01*
X116200000Y-71350000D02*
X116200000Y-70000000D01*
X115500000Y-72050000D02*
X116200000Y-71350000D01*
X114050000Y-72050000D02*
X115500000Y-72050000D01*
X116850000Y-69350000D02*
X116850000Y-67700000D01*
X116200000Y-70000000D02*
X116850000Y-69350000D01*
X117350000Y-64750000D02*
X117350000Y-63150000D01*
X120240000Y-62650000D02*
X121540000Y-63950000D01*
X117850000Y-62650000D02*
X120240000Y-62650000D01*
X117350000Y-63150000D02*
X117850000Y-62650000D01*
X116850000Y-66700000D02*
X116850000Y-65250000D01*
X116200000Y-67350000D02*
X116850000Y-66700000D01*
X116850000Y-65250000D02*
X117350000Y-64750000D01*
X115550000Y-71000000D02*
X115550000Y-69650000D01*
X115300000Y-71250000D02*
X115550000Y-71000000D01*
X114050000Y-71250000D02*
X115300000Y-71250000D01*
X116200000Y-69000000D02*
X116200000Y-67350000D01*
X115550000Y-69650000D02*
X116200000Y-69000000D01*
X121750000Y-61850000D02*
X124100000Y-59500000D01*
X115250000Y-61850000D02*
X121750000Y-61850000D01*
X112200000Y-64900000D02*
X115250000Y-61850000D01*
X112200000Y-66450000D02*
X112200000Y-64900000D01*
X111000000Y-67650000D02*
X112200000Y-66450000D01*
X111000000Y-69000000D02*
X111000000Y-67650000D01*
X121560000Y-59500000D02*
X119910000Y-61150000D01*
X119910000Y-61150000D02*
X114900000Y-61150000D01*
X114900000Y-61150000D02*
X111500000Y-64550000D01*
X111500000Y-64550000D02*
X111500000Y-66150000D01*
X111500000Y-66150000D02*
X110200000Y-67450000D01*
X110200000Y-67450000D02*
X110200000Y-69000000D01*
X109800000Y-64350000D02*
X109800000Y-65450000D01*
X109400000Y-65850000D02*
X109400000Y-69000000D01*
X109800000Y-65450000D02*
X109400000Y-65850000D01*
X108600000Y-69000000D02*
X108600000Y-65850000D01*
X108200000Y-65450000D02*
X108200000Y-64350000D01*
X108600000Y-65850000D02*
X108200000Y-65450000D01*
X107800000Y-69000000D02*
X107800000Y-67450000D01*
X106650000Y-65250000D02*
X105800000Y-64400000D01*
X105800000Y-64400000D02*
X105800000Y-62910000D01*
X105800000Y-62910000D02*
X104390000Y-61500000D01*
X106650000Y-66300000D02*
X106650000Y-65250000D01*
X107800000Y-67450000D02*
X106650000Y-66300000D01*
X104390000Y-61500000D02*
X104390000Y-59040000D01*
X104390000Y-59040000D02*
X104200000Y-58850000D01*
X107000000Y-69000000D02*
X107000000Y-67650000D01*
X107000000Y-67650000D02*
X105950000Y-66600000D01*
X104390000Y-64040000D02*
X103150000Y-62800000D01*
X102600000Y-59800000D02*
X102600000Y-58850000D01*
X103150000Y-60350000D02*
X102600000Y-59800000D01*
X103150000Y-62800000D02*
X103150000Y-60350000D01*
X105950000Y-65600000D02*
X104390000Y-64040000D01*
X105950000Y-66600000D02*
X105950000Y-65600000D01*
X104390000Y-66580000D02*
X103110000Y-65300000D01*
X101150000Y-65300000D02*
X100550000Y-64700000D01*
X103110000Y-65300000D02*
X101150000Y-65300000D01*
X105550000Y-70450000D02*
X105550000Y-67740000D01*
X105550000Y-67740000D02*
X104390000Y-66580000D01*
X101000000Y-58850000D02*
X101000000Y-59900000D01*
X100550000Y-60350000D02*
X100550000Y-64700000D01*
X101000000Y-59900000D02*
X100550000Y-60350000D01*
X101000000Y-58850000D02*
X101000000Y-59000000D01*
X102000000Y-85540000D02*
X103260000Y-86800000D01*
X103260000Y-86800000D02*
X104650000Y-86800000D01*
X105550000Y-73650000D02*
X103200000Y-73650000D01*
X100600000Y-84140000D02*
X102000000Y-85540000D01*
X100600000Y-81350000D02*
X100600000Y-84140000D01*
X102100000Y-79850000D02*
X100600000Y-81350000D01*
X102100000Y-74750000D02*
X102100000Y-79850000D01*
X103200000Y-73650000D02*
X102100000Y-74750000D01*
X102000000Y-83000000D02*
X103100000Y-84100000D01*
X103100000Y-84100000D02*
X103100000Y-84700000D01*
X103100000Y-84700000D02*
X103600000Y-85200000D01*
X103600000Y-85200000D02*
X104650000Y-85200000D01*
X102000000Y-83000000D02*
X102300000Y-83000000D01*
X104500000Y-85200000D02*
X104650000Y-85200000D01*
X105550000Y-74400000D02*
X103450000Y-74400000D01*
X102000000Y-80950000D02*
X102000000Y-83000000D01*
X102750000Y-80200000D02*
X102000000Y-80950000D01*
X102750000Y-75100000D02*
X102750000Y-80200000D01*
X103450000Y-74400000D02*
X102750000Y-75100000D01*
X101000000Y-73150000D02*
X101850000Y-72300000D01*
X103850000Y-75250000D02*
X105550000Y-75250000D01*
X101000000Y-74950000D02*
X101000000Y-73150000D01*
X109950000Y-59950000D02*
X109950000Y-62000000D01*
X109950000Y-62000000D02*
X109800000Y-62150000D01*
X108050000Y-59950000D02*
X108050000Y-62000000D01*
X108050000Y-62000000D02*
X108200000Y-62150000D01*
X109362000Y-54514300D02*
X109362000Y-56098200D01*
X109950000Y-56470300D02*
X109950000Y-57650000D01*
X109804200Y-56324500D02*
X109950000Y-56470300D01*
X109588300Y-56324500D02*
X109804200Y-56324500D01*
X109362000Y-56098200D02*
X109588300Y-56324500D01*
X108712000Y-54514300D02*
X108712000Y-55956200D01*
X108050000Y-56351500D02*
X108050000Y-57650000D01*
X108153200Y-56248300D02*
X108050000Y-56351500D01*
X108419900Y-56248300D02*
X108153200Y-56248300D01*
X108712000Y-55956200D02*
X108419900Y-56248300D01*
D27*
X115300000Y-56050000D02*
X117350000Y-56050000D01*
D26*
G36*
X103396245Y-75927812D02*
X103690172Y-76049861D01*
X104008432Y-76050139D01*
X104302572Y-75928603D01*
X104346876Y-75884376D01*
X104412500Y-75950000D01*
X104583011Y-75950000D01*
X104750000Y-75983816D01*
X105670000Y-75983816D01*
X105670000Y-76150000D01*
X105650000Y-76150000D01*
X105650000Y-76662500D01*
X105762500Y-76775000D01*
X106266184Y-76775000D01*
X106266184Y-78300000D01*
X106297562Y-78466760D01*
X106396117Y-78619919D01*
X106400000Y-78622572D01*
X106400000Y-79910038D01*
X106305081Y-79971117D01*
X106202332Y-80121495D01*
X106195268Y-80156379D01*
X106059828Y-80100139D01*
X105741568Y-80099861D01*
X105447428Y-80221397D01*
X105222188Y-80446245D01*
X105100139Y-80740172D01*
X105099861Y-81058432D01*
X105221397Y-81352572D01*
X105446245Y-81577812D01*
X105740172Y-81699861D01*
X106058432Y-81700139D01*
X106193353Y-81644391D01*
X106197562Y-81666760D01*
X106296117Y-81819919D01*
X106339228Y-81849376D01*
X106243509Y-81945095D01*
X106175000Y-82110489D01*
X106175000Y-82587500D01*
X106287500Y-82700000D01*
X106900000Y-82700000D01*
X106900000Y-82680000D01*
X107100000Y-82680000D01*
X107100000Y-82700000D01*
X112310050Y-82700000D01*
X114100000Y-84489949D01*
X114100000Y-85700000D01*
X107898691Y-85700000D01*
X107908816Y-85650000D01*
X107908816Y-84750000D01*
X107877438Y-84583240D01*
X107778883Y-84430081D01*
X107628505Y-84327332D01*
X107450000Y-84291184D01*
X106250000Y-84291184D01*
X106083240Y-84322562D01*
X105930081Y-84421117D01*
X105827332Y-84571495D01*
X105791184Y-84750000D01*
X105791184Y-85650000D01*
X105822562Y-85816760D01*
X105921117Y-85969919D01*
X105964054Y-85999256D01*
X105930081Y-86021117D01*
X105827332Y-86171495D01*
X105791184Y-86350000D01*
X105791184Y-87250000D01*
X105822562Y-87416760D01*
X105921117Y-87569919D01*
X106071495Y-87672668D01*
X106250000Y-87708816D01*
X107450000Y-87708816D01*
X107500000Y-87699408D01*
X107500000Y-88356465D01*
X107491184Y-88400000D01*
X107491184Y-89260288D01*
X106300288Y-90451184D01*
X105300000Y-90451184D01*
X105133240Y-90482562D01*
X104980081Y-90581117D01*
X104877332Y-90731495D01*
X104841184Y-90910000D01*
X104841184Y-92410000D01*
X104872562Y-92576760D01*
X104971117Y-92729919D01*
X105121495Y-92832668D01*
X105300000Y-92868816D01*
X106370288Y-92868816D01*
X106501472Y-93000000D01*
X106262500Y-93000000D01*
X106150000Y-93112500D01*
X106150000Y-94100000D01*
X106170000Y-94100000D01*
X106170000Y-94300000D01*
X106150000Y-94300000D01*
X106150000Y-95287500D01*
X106262500Y-95400000D01*
X106769891Y-95400000D01*
X106795672Y-95529610D01*
X106925736Y-95724264D01*
X107866184Y-96664712D01*
X107866184Y-97450000D01*
X107897562Y-97616760D01*
X107996117Y-97769919D01*
X108039228Y-97799376D01*
X107943509Y-97895095D01*
X107875000Y-98060489D01*
X107875000Y-98537500D01*
X107987500Y-98650000D01*
X108600000Y-98650000D01*
X108600000Y-98630000D01*
X108800000Y-98630000D01*
X108800000Y-98650000D01*
X109412500Y-98650000D01*
X109450000Y-98612500D01*
X109487500Y-98650000D01*
X110100000Y-98650000D01*
X110100000Y-98630000D01*
X110300000Y-98630000D01*
X110300000Y-98650000D01*
X110912500Y-98650000D01*
X110950000Y-98612500D01*
X110987500Y-98650000D01*
X111600000Y-98650000D01*
X111600000Y-98630000D01*
X111800000Y-98630000D01*
X111800000Y-98650000D01*
X112412500Y-98650000D01*
X112450000Y-98612500D01*
X112487500Y-98650000D01*
X113100000Y-98650000D01*
X113100000Y-98630000D01*
X113300000Y-98630000D01*
X113300000Y-98650000D01*
X113912500Y-98650000D01*
X113950000Y-98612500D01*
X113987500Y-98650000D01*
X114600000Y-98650000D01*
X114600000Y-98630000D01*
X114800000Y-98630000D01*
X114800000Y-98650000D01*
X115412500Y-98650000D01*
X115450000Y-98612500D01*
X115487500Y-98650000D01*
X116100000Y-98650000D01*
X116100000Y-98630000D01*
X116300000Y-98630000D01*
X116300000Y-98650000D01*
X116912500Y-98650000D01*
X117025000Y-98537500D01*
X117025000Y-98060489D01*
X116956491Y-97895095D01*
X116861673Y-97800277D01*
X116894919Y-97778883D01*
X116997668Y-97628505D01*
X117033816Y-97450000D01*
X117200000Y-97450000D01*
X117429610Y-97404328D01*
X117624264Y-97274264D01*
X118748528Y-96150000D01*
X119350000Y-96150000D01*
X119579610Y-96104328D01*
X119774264Y-95974264D01*
X120474264Y-95274264D01*
X120604328Y-95079611D01*
X120650000Y-94850000D01*
X120650000Y-94561480D01*
X122700000Y-94561480D01*
X122700000Y-95938491D01*
X122768509Y-96103885D01*
X122895096Y-96230472D01*
X123060490Y-96298980D01*
X123687500Y-96298980D01*
X123800000Y-96186480D01*
X123800000Y-94448980D01*
X122812500Y-94448980D01*
X122700000Y-94561480D01*
X120650000Y-94561480D01*
X120650000Y-92960000D01*
X120610113Y-92759469D01*
X122700000Y-92759469D01*
X122700000Y-94136480D01*
X122812500Y-94248980D01*
X123800000Y-94248980D01*
X123800000Y-92511480D01*
X123687500Y-92398980D01*
X123060490Y-92398980D01*
X122895096Y-92467488D01*
X122768509Y-92594075D01*
X122700000Y-92759469D01*
X120610113Y-92759469D01*
X120604328Y-92730390D01*
X120474264Y-92535736D01*
X119917070Y-91978542D01*
X119949791Y-91899742D01*
X119950207Y-91422353D01*
X119767903Y-90981143D01*
X119430633Y-90643283D01*
X118989742Y-90460209D01*
X118900000Y-90460131D01*
X118900000Y-89250000D01*
X120460050Y-89250000D01*
X122056045Y-90845995D01*
X122283141Y-90997736D01*
X122551020Y-91051020D01*
X122691184Y-91051020D01*
X122691184Y-91851020D01*
X122722562Y-92017780D01*
X122821117Y-92170939D01*
X122971495Y-92273688D01*
X123150000Y-92309836D01*
X124650000Y-92309836D01*
X124816760Y-92278458D01*
X124875000Y-92240982D01*
X124875000Y-92455101D01*
X124739510Y-92398980D01*
X124112500Y-92398980D01*
X124000000Y-92511480D01*
X124000000Y-94248980D01*
X124020000Y-94248980D01*
X124020000Y-94448980D01*
X124000000Y-94448980D01*
X124000000Y-96186480D01*
X124112500Y-96298980D01*
X124739510Y-96298980D01*
X124875000Y-96242859D01*
X124875000Y-96362030D01*
X124689655Y-96361868D01*
X123347642Y-96916376D01*
X122319985Y-97942241D01*
X121763135Y-99283285D01*
X121762968Y-99475000D01*
X117010300Y-99475000D01*
X117025000Y-99439511D01*
X117025000Y-98962500D01*
X116912500Y-98850000D01*
X116300000Y-98850000D01*
X116300000Y-98870000D01*
X116100000Y-98870000D01*
X116100000Y-98850000D01*
X115487500Y-98850000D01*
X115450000Y-98887500D01*
X115412500Y-98850000D01*
X114800000Y-98850000D01*
X114800000Y-98870000D01*
X114600000Y-98870000D01*
X114600000Y-98850000D01*
X113987500Y-98850000D01*
X113950000Y-98887500D01*
X113912500Y-98850000D01*
X113300000Y-98850000D01*
X113300000Y-98870000D01*
X113100000Y-98870000D01*
X113100000Y-98850000D01*
X112487500Y-98850000D01*
X112450000Y-98887500D01*
X112412500Y-98850000D01*
X111800000Y-98850000D01*
X111800000Y-98870000D01*
X111600000Y-98870000D01*
X111600000Y-98850000D01*
X110987500Y-98850000D01*
X110950000Y-98887500D01*
X110912500Y-98850000D01*
X110300000Y-98850000D01*
X110300000Y-98870000D01*
X110100000Y-98870000D01*
X110100000Y-98850000D01*
X109487500Y-98850000D01*
X109450000Y-98887500D01*
X109412500Y-98850000D01*
X108800000Y-98850000D01*
X108800000Y-98870000D01*
X108600000Y-98870000D01*
X108600000Y-98850000D01*
X107987500Y-98850000D01*
X107875000Y-98962500D01*
X107875000Y-99439511D01*
X107889700Y-99475000D01*
X103662970Y-99475000D01*
X103663132Y-99289655D01*
X103108624Y-97947642D01*
X102082759Y-96919985D01*
X100741715Y-96363135D01*
X100525000Y-96362946D01*
X100525000Y-94412500D01*
X104850000Y-94412500D01*
X104850000Y-95039511D01*
X104918509Y-95204905D01*
X105045096Y-95331492D01*
X105210490Y-95400000D01*
X105837500Y-95400000D01*
X105950000Y-95287500D01*
X105950000Y-94300000D01*
X104962500Y-94300000D01*
X104850000Y-94412500D01*
X100525000Y-94412500D01*
X100525000Y-93360489D01*
X104850000Y-93360489D01*
X104850000Y-93987500D01*
X104962500Y-94100000D01*
X105950000Y-94100000D01*
X105950000Y-93112500D01*
X105837500Y-93000000D01*
X105210490Y-93000000D01*
X105045096Y-93068508D01*
X104918509Y-93195095D01*
X104850000Y-93360489D01*
X100525000Y-93360489D01*
X100525000Y-84913528D01*
X100838705Y-85227233D01*
X100776491Y-85540000D01*
X100867836Y-85999220D01*
X101127963Y-86388528D01*
X101517271Y-86648655D01*
X101976491Y-86740000D01*
X102023509Y-86740000D01*
X102297059Y-86685587D01*
X102835736Y-87224264D01*
X103030390Y-87354328D01*
X103260000Y-87400000D01*
X103619408Y-87400000D01*
X103622562Y-87416760D01*
X103721117Y-87569919D01*
X103871495Y-87672668D01*
X104050000Y-87708816D01*
X105250000Y-87708816D01*
X105416760Y-87677438D01*
X105569919Y-87578883D01*
X105672668Y-87428505D01*
X105708816Y-87250000D01*
X105708816Y-86350000D01*
X105677438Y-86183240D01*
X105578883Y-86030081D01*
X105535946Y-86000744D01*
X105569919Y-85978883D01*
X105672668Y-85828505D01*
X105708816Y-85650000D01*
X105708816Y-84750000D01*
X105677438Y-84583240D01*
X105578883Y-84430081D01*
X105428505Y-84327332D01*
X105250000Y-84291184D01*
X104050000Y-84291184D01*
X103883240Y-84322562D01*
X103730081Y-84421117D01*
X103705549Y-84457021D01*
X103700000Y-84451472D01*
X103700000Y-84100000D01*
X103654328Y-83870390D01*
X103524264Y-83675736D01*
X103208816Y-83360288D01*
X103208816Y-83012500D01*
X106175000Y-83012500D01*
X106175000Y-83489511D01*
X106243509Y-83654905D01*
X106370096Y-83781492D01*
X106535490Y-83850000D01*
X106787500Y-83850000D01*
X106900000Y-83737500D01*
X106900000Y-82900000D01*
X107100000Y-82900000D01*
X107100000Y-83737500D01*
X107212500Y-83850000D01*
X107464510Y-83850000D01*
X107629904Y-83781492D01*
X107756491Y-83654905D01*
X107825000Y-83489511D01*
X107825000Y-83012500D01*
X108225000Y-83012500D01*
X108225000Y-83489511D01*
X108293509Y-83654905D01*
X108420096Y-83781492D01*
X108585490Y-83850000D01*
X108837500Y-83850000D01*
X108950000Y-83737500D01*
X108950000Y-82900000D01*
X109150000Y-82900000D01*
X109150000Y-83737500D01*
X109262500Y-83850000D01*
X109514510Y-83850000D01*
X109679904Y-83781492D01*
X109800000Y-83661396D01*
X109920096Y-83781492D01*
X110085490Y-83850000D01*
X110337500Y-83850000D01*
X110450000Y-83737500D01*
X110450000Y-82900000D01*
X110650000Y-82900000D01*
X110650000Y-83737500D01*
X110762500Y-83850000D01*
X111014510Y-83850000D01*
X111179904Y-83781492D01*
X111306491Y-83654905D01*
X111375000Y-83489511D01*
X111375000Y-83012500D01*
X111262500Y-82900000D01*
X110650000Y-82900000D01*
X110450000Y-82900000D01*
X109837500Y-82900000D01*
X109800000Y-82937500D01*
X109762500Y-82900000D01*
X109150000Y-82900000D01*
X108950000Y-82900000D01*
X108337500Y-82900000D01*
X108225000Y-83012500D01*
X107825000Y-83012500D01*
X107712500Y-82900000D01*
X107100000Y-82900000D01*
X106900000Y-82900000D01*
X106287500Y-82900000D01*
X106175000Y-83012500D01*
X103208816Y-83012500D01*
X103208816Y-82250000D01*
X103177438Y-82083240D01*
X103078883Y-81930081D01*
X102928505Y-81827332D01*
X102750000Y-81791184D01*
X102600000Y-81791184D01*
X102600000Y-81198528D01*
X103174264Y-80624264D01*
X103304328Y-80429610D01*
X103350000Y-80200000D01*
X103350000Y-76262500D01*
X104300000Y-76262500D01*
X104300000Y-76414510D01*
X104368508Y-76579904D01*
X104495095Y-76706491D01*
X104660489Y-76775000D01*
X105337500Y-76775000D01*
X105450000Y-76662500D01*
X105450000Y-76150000D01*
X104412500Y-76150000D01*
X104300000Y-76262500D01*
X103350000Y-76262500D01*
X103350000Y-75881486D01*
X103396245Y-75927812D01*
X103396245Y-75927812D01*
G37*
X103396245Y-75927812D02*
X103690172Y-76049861D01*
X104008432Y-76050139D01*
X104302572Y-75928603D01*
X104346876Y-75884376D01*
X104412500Y-75950000D01*
X104583011Y-75950000D01*
X104750000Y-75983816D01*
X105670000Y-75983816D01*
X105670000Y-76150000D01*
X105650000Y-76150000D01*
X105650000Y-76662500D01*
X105762500Y-76775000D01*
X106266184Y-76775000D01*
X106266184Y-78300000D01*
X106297562Y-78466760D01*
X106396117Y-78619919D01*
X106400000Y-78622572D01*
X106400000Y-79910038D01*
X106305081Y-79971117D01*
X106202332Y-80121495D01*
X106195268Y-80156379D01*
X106059828Y-80100139D01*
X105741568Y-80099861D01*
X105447428Y-80221397D01*
X105222188Y-80446245D01*
X105100139Y-80740172D01*
X105099861Y-81058432D01*
X105221397Y-81352572D01*
X105446245Y-81577812D01*
X105740172Y-81699861D01*
X106058432Y-81700139D01*
X106193353Y-81644391D01*
X106197562Y-81666760D01*
X106296117Y-81819919D01*
X106339228Y-81849376D01*
X106243509Y-81945095D01*
X106175000Y-82110489D01*
X106175000Y-82587500D01*
X106287500Y-82700000D01*
X106900000Y-82700000D01*
X106900000Y-82680000D01*
X107100000Y-82680000D01*
X107100000Y-82700000D01*
X112310050Y-82700000D01*
X114100000Y-84489949D01*
X114100000Y-85700000D01*
X107898691Y-85700000D01*
X107908816Y-85650000D01*
X107908816Y-84750000D01*
X107877438Y-84583240D01*
X107778883Y-84430081D01*
X107628505Y-84327332D01*
X107450000Y-84291184D01*
X106250000Y-84291184D01*
X106083240Y-84322562D01*
X105930081Y-84421117D01*
X105827332Y-84571495D01*
X105791184Y-84750000D01*
X105791184Y-85650000D01*
X105822562Y-85816760D01*
X105921117Y-85969919D01*
X105964054Y-85999256D01*
X105930081Y-86021117D01*
X105827332Y-86171495D01*
X105791184Y-86350000D01*
X105791184Y-87250000D01*
X105822562Y-87416760D01*
X105921117Y-87569919D01*
X106071495Y-87672668D01*
X106250000Y-87708816D01*
X107450000Y-87708816D01*
X107500000Y-87699408D01*
X107500000Y-88356465D01*
X107491184Y-88400000D01*
X107491184Y-89260288D01*
X106300288Y-90451184D01*
X105300000Y-90451184D01*
X105133240Y-90482562D01*
X104980081Y-90581117D01*
X104877332Y-90731495D01*
X104841184Y-90910000D01*
X104841184Y-92410000D01*
X104872562Y-92576760D01*
X104971117Y-92729919D01*
X105121495Y-92832668D01*
X105300000Y-92868816D01*
X106370288Y-92868816D01*
X106501472Y-93000000D01*
X106262500Y-93000000D01*
X106150000Y-93112500D01*
X106150000Y-94100000D01*
X106170000Y-94100000D01*
X106170000Y-94300000D01*
X106150000Y-94300000D01*
X106150000Y-95287500D01*
X106262500Y-95400000D01*
X106769891Y-95400000D01*
X106795672Y-95529610D01*
X106925736Y-95724264D01*
X107866184Y-96664712D01*
X107866184Y-97450000D01*
X107897562Y-97616760D01*
X107996117Y-97769919D01*
X108039228Y-97799376D01*
X107943509Y-97895095D01*
X107875000Y-98060489D01*
X107875000Y-98537500D01*
X107987500Y-98650000D01*
X108600000Y-98650000D01*
X108600000Y-98630000D01*
X108800000Y-98630000D01*
X108800000Y-98650000D01*
X109412500Y-98650000D01*
X109450000Y-98612500D01*
X109487500Y-98650000D01*
X110100000Y-98650000D01*
X110100000Y-98630000D01*
X110300000Y-98630000D01*
X110300000Y-98650000D01*
X110912500Y-98650000D01*
X110950000Y-98612500D01*
X110987500Y-98650000D01*
X111600000Y-98650000D01*
X111600000Y-98630000D01*
X111800000Y-98630000D01*
X111800000Y-98650000D01*
X112412500Y-98650000D01*
X112450000Y-98612500D01*
X112487500Y-98650000D01*
X113100000Y-98650000D01*
X113100000Y-98630000D01*
X113300000Y-98630000D01*
X113300000Y-98650000D01*
X113912500Y-98650000D01*
X113950000Y-98612500D01*
X113987500Y-98650000D01*
X114600000Y-98650000D01*
X114600000Y-98630000D01*
X114800000Y-98630000D01*
X114800000Y-98650000D01*
X115412500Y-98650000D01*
X115450000Y-98612500D01*
X115487500Y-98650000D01*
X116100000Y-98650000D01*
X116100000Y-98630000D01*
X116300000Y-98630000D01*
X116300000Y-98650000D01*
X116912500Y-98650000D01*
X117025000Y-98537500D01*
X117025000Y-98060489D01*
X116956491Y-97895095D01*
X116861673Y-97800277D01*
X116894919Y-97778883D01*
X116997668Y-97628505D01*
X117033816Y-97450000D01*
X117200000Y-97450000D01*
X117429610Y-97404328D01*
X117624264Y-97274264D01*
X118748528Y-96150000D01*
X119350000Y-96150000D01*
X119579610Y-96104328D01*
X119774264Y-95974264D01*
X120474264Y-95274264D01*
X120604328Y-95079611D01*
X120650000Y-94850000D01*
X120650000Y-94561480D01*
X122700000Y-94561480D01*
X122700000Y-95938491D01*
X122768509Y-96103885D01*
X122895096Y-96230472D01*
X123060490Y-96298980D01*
X123687500Y-96298980D01*
X123800000Y-96186480D01*
X123800000Y-94448980D01*
X122812500Y-94448980D01*
X122700000Y-94561480D01*
X120650000Y-94561480D01*
X120650000Y-92960000D01*
X120610113Y-92759469D01*
X122700000Y-92759469D01*
X122700000Y-94136480D01*
X122812500Y-94248980D01*
X123800000Y-94248980D01*
X123800000Y-92511480D01*
X123687500Y-92398980D01*
X123060490Y-92398980D01*
X122895096Y-92467488D01*
X122768509Y-92594075D01*
X122700000Y-92759469D01*
X120610113Y-92759469D01*
X120604328Y-92730390D01*
X120474264Y-92535736D01*
X119917070Y-91978542D01*
X119949791Y-91899742D01*
X119950207Y-91422353D01*
X119767903Y-90981143D01*
X119430633Y-90643283D01*
X118989742Y-90460209D01*
X118900000Y-90460131D01*
X118900000Y-89250000D01*
X120460050Y-89250000D01*
X122056045Y-90845995D01*
X122283141Y-90997736D01*
X122551020Y-91051020D01*
X122691184Y-91051020D01*
X122691184Y-91851020D01*
X122722562Y-92017780D01*
X122821117Y-92170939D01*
X122971495Y-92273688D01*
X123150000Y-92309836D01*
X124650000Y-92309836D01*
X124816760Y-92278458D01*
X124875000Y-92240982D01*
X124875000Y-92455101D01*
X124739510Y-92398980D01*
X124112500Y-92398980D01*
X124000000Y-92511480D01*
X124000000Y-94248980D01*
X124020000Y-94248980D01*
X124020000Y-94448980D01*
X124000000Y-94448980D01*
X124000000Y-96186480D01*
X124112500Y-96298980D01*
X124739510Y-96298980D01*
X124875000Y-96242859D01*
X124875000Y-96362030D01*
X124689655Y-96361868D01*
X123347642Y-96916376D01*
X122319985Y-97942241D01*
X121763135Y-99283285D01*
X121762968Y-99475000D01*
X117010300Y-99475000D01*
X117025000Y-99439511D01*
X117025000Y-98962500D01*
X116912500Y-98850000D01*
X116300000Y-98850000D01*
X116300000Y-98870000D01*
X116100000Y-98870000D01*
X116100000Y-98850000D01*
X115487500Y-98850000D01*
X115450000Y-98887500D01*
X115412500Y-98850000D01*
X114800000Y-98850000D01*
X114800000Y-98870000D01*
X114600000Y-98870000D01*
X114600000Y-98850000D01*
X113987500Y-98850000D01*
X113950000Y-98887500D01*
X113912500Y-98850000D01*
X113300000Y-98850000D01*
X113300000Y-98870000D01*
X113100000Y-98870000D01*
X113100000Y-98850000D01*
X112487500Y-98850000D01*
X112450000Y-98887500D01*
X112412500Y-98850000D01*
X111800000Y-98850000D01*
X111800000Y-98870000D01*
X111600000Y-98870000D01*
X111600000Y-98850000D01*
X110987500Y-98850000D01*
X110950000Y-98887500D01*
X110912500Y-98850000D01*
X110300000Y-98850000D01*
X110300000Y-98870000D01*
X110100000Y-98870000D01*
X110100000Y-98850000D01*
X109487500Y-98850000D01*
X109450000Y-98887500D01*
X109412500Y-98850000D01*
X108800000Y-98850000D01*
X108800000Y-98870000D01*
X108600000Y-98870000D01*
X108600000Y-98850000D01*
X107987500Y-98850000D01*
X107875000Y-98962500D01*
X107875000Y-99439511D01*
X107889700Y-99475000D01*
X103662970Y-99475000D01*
X103663132Y-99289655D01*
X103108624Y-97947642D01*
X102082759Y-96919985D01*
X100741715Y-96363135D01*
X100525000Y-96362946D01*
X100525000Y-94412500D01*
X104850000Y-94412500D01*
X104850000Y-95039511D01*
X104918509Y-95204905D01*
X105045096Y-95331492D01*
X105210490Y-95400000D01*
X105837500Y-95400000D01*
X105950000Y-95287500D01*
X105950000Y-94300000D01*
X104962500Y-94300000D01*
X104850000Y-94412500D01*
X100525000Y-94412500D01*
X100525000Y-93360489D01*
X104850000Y-93360489D01*
X104850000Y-93987500D01*
X104962500Y-94100000D01*
X105950000Y-94100000D01*
X105950000Y-93112500D01*
X105837500Y-93000000D01*
X105210490Y-93000000D01*
X105045096Y-93068508D01*
X104918509Y-93195095D01*
X104850000Y-93360489D01*
X100525000Y-93360489D01*
X100525000Y-84913528D01*
X100838705Y-85227233D01*
X100776491Y-85540000D01*
X100867836Y-85999220D01*
X101127963Y-86388528D01*
X101517271Y-86648655D01*
X101976491Y-86740000D01*
X102023509Y-86740000D01*
X102297059Y-86685587D01*
X102835736Y-87224264D01*
X103030390Y-87354328D01*
X103260000Y-87400000D01*
X103619408Y-87400000D01*
X103622562Y-87416760D01*
X103721117Y-87569919D01*
X103871495Y-87672668D01*
X104050000Y-87708816D01*
X105250000Y-87708816D01*
X105416760Y-87677438D01*
X105569919Y-87578883D01*
X105672668Y-87428505D01*
X105708816Y-87250000D01*
X105708816Y-86350000D01*
X105677438Y-86183240D01*
X105578883Y-86030081D01*
X105535946Y-86000744D01*
X105569919Y-85978883D01*
X105672668Y-85828505D01*
X105708816Y-85650000D01*
X105708816Y-84750000D01*
X105677438Y-84583240D01*
X105578883Y-84430081D01*
X105428505Y-84327332D01*
X105250000Y-84291184D01*
X104050000Y-84291184D01*
X103883240Y-84322562D01*
X103730081Y-84421117D01*
X103705549Y-84457021D01*
X103700000Y-84451472D01*
X103700000Y-84100000D01*
X103654328Y-83870390D01*
X103524264Y-83675736D01*
X103208816Y-83360288D01*
X103208816Y-83012500D01*
X106175000Y-83012500D01*
X106175000Y-83489511D01*
X106243509Y-83654905D01*
X106370096Y-83781492D01*
X106535490Y-83850000D01*
X106787500Y-83850000D01*
X106900000Y-83737500D01*
X106900000Y-82900000D01*
X107100000Y-82900000D01*
X107100000Y-83737500D01*
X107212500Y-83850000D01*
X107464510Y-83850000D01*
X107629904Y-83781492D01*
X107756491Y-83654905D01*
X107825000Y-83489511D01*
X107825000Y-83012500D01*
X108225000Y-83012500D01*
X108225000Y-83489511D01*
X108293509Y-83654905D01*
X108420096Y-83781492D01*
X108585490Y-83850000D01*
X108837500Y-83850000D01*
X108950000Y-83737500D01*
X108950000Y-82900000D01*
X109150000Y-82900000D01*
X109150000Y-83737500D01*
X109262500Y-83850000D01*
X109514510Y-83850000D01*
X109679904Y-83781492D01*
X109800000Y-83661396D01*
X109920096Y-83781492D01*
X110085490Y-83850000D01*
X110337500Y-83850000D01*
X110450000Y-83737500D01*
X110450000Y-82900000D01*
X110650000Y-82900000D01*
X110650000Y-83737500D01*
X110762500Y-83850000D01*
X111014510Y-83850000D01*
X111179904Y-83781492D01*
X111306491Y-83654905D01*
X111375000Y-83489511D01*
X111375000Y-83012500D01*
X111262500Y-82900000D01*
X110650000Y-82900000D01*
X110450000Y-82900000D01*
X109837500Y-82900000D01*
X109800000Y-82937500D01*
X109762500Y-82900000D01*
X109150000Y-82900000D01*
X108950000Y-82900000D01*
X108337500Y-82900000D01*
X108225000Y-83012500D01*
X107825000Y-83012500D01*
X107712500Y-82900000D01*
X107100000Y-82900000D01*
X106900000Y-82900000D01*
X106287500Y-82900000D01*
X106175000Y-83012500D01*
X103208816Y-83012500D01*
X103208816Y-82250000D01*
X103177438Y-82083240D01*
X103078883Y-81930081D01*
X102928505Y-81827332D01*
X102750000Y-81791184D01*
X102600000Y-81791184D01*
X102600000Y-81198528D01*
X103174264Y-80624264D01*
X103304328Y-80429610D01*
X103350000Y-80200000D01*
X103350000Y-76262500D01*
X104300000Y-76262500D01*
X104300000Y-76414510D01*
X104368508Y-76579904D01*
X104495095Y-76706491D01*
X104660489Y-76775000D01*
X105337500Y-76775000D01*
X105450000Y-76662500D01*
X105450000Y-76150000D01*
X104412500Y-76150000D01*
X104300000Y-76262500D01*
X103350000Y-76262500D01*
X103350000Y-75881486D01*
X103396245Y-75927812D01*
G36*
X118905564Y-94185858D02*
X118891421Y-94200000D01*
X118905564Y-94214142D01*
X118764142Y-94355564D01*
X118750000Y-94341421D01*
X118735858Y-94355564D01*
X118594436Y-94214142D01*
X118608579Y-94200000D01*
X118594436Y-94185858D01*
X118735858Y-94044436D01*
X118750000Y-94058579D01*
X118764142Y-94044436D01*
X118905564Y-94185858D01*
X118905564Y-94185858D01*
G37*
X118905564Y-94185858D02*
X118891421Y-94200000D01*
X118905564Y-94214142D01*
X118764142Y-94355564D01*
X118750000Y-94341421D01*
X118735858Y-94355564D01*
X118594436Y-94214142D01*
X118608579Y-94200000D01*
X118594436Y-94185858D01*
X118735858Y-94044436D01*
X118750000Y-94058579D01*
X118764142Y-94044436D01*
X118905564Y-94185858D01*
G36*
X111285564Y-94185858D02*
X111271421Y-94200000D01*
X111285564Y-94214142D01*
X111144142Y-94355564D01*
X111130000Y-94341421D01*
X111115858Y-94355564D01*
X110974436Y-94214142D01*
X110988579Y-94200000D01*
X110974436Y-94185858D01*
X111115858Y-94044436D01*
X111130000Y-94058579D01*
X111144142Y-94044436D01*
X111285564Y-94185858D01*
X111285564Y-94185858D01*
G37*
X111285564Y-94185858D02*
X111271421Y-94200000D01*
X111285564Y-94214142D01*
X111144142Y-94355564D01*
X111130000Y-94341421D01*
X111115858Y-94355564D01*
X110974436Y-94214142D01*
X110988579Y-94200000D01*
X110974436Y-94185858D01*
X111115858Y-94044436D01*
X111130000Y-94058579D01*
X111144142Y-94044436D01*
X111285564Y-94185858D01*
G36*
X108745564Y-94185858D02*
X108731421Y-94200000D01*
X108745564Y-94214142D01*
X108604142Y-94355564D01*
X108590000Y-94341421D01*
X108575858Y-94355564D01*
X108434436Y-94214142D01*
X108448579Y-94200000D01*
X108434436Y-94185858D01*
X108575858Y-94044436D01*
X108590000Y-94058579D01*
X108604142Y-94044436D01*
X108745564Y-94185858D01*
X108745564Y-94185858D01*
G37*
X108745564Y-94185858D02*
X108731421Y-94200000D01*
X108745564Y-94214142D01*
X108604142Y-94355564D01*
X108590000Y-94341421D01*
X108575858Y-94355564D01*
X108434436Y-94214142D01*
X108448579Y-94200000D01*
X108434436Y-94185858D01*
X108575858Y-94044436D01*
X108590000Y-94058579D01*
X108604142Y-94044436D01*
X108745564Y-94185858D01*
G36*
X113825564Y-94185858D02*
X113811421Y-94200000D01*
X113825564Y-94214142D01*
X113684142Y-94355564D01*
X113670000Y-94341421D01*
X113655858Y-94355564D01*
X113514436Y-94214142D01*
X113528579Y-94200000D01*
X113514436Y-94185858D01*
X113655858Y-94044436D01*
X113670000Y-94058579D01*
X113684142Y-94044436D01*
X113825564Y-94185858D01*
X113825564Y-94185858D01*
G37*
X113825564Y-94185858D02*
X113811421Y-94200000D01*
X113825564Y-94214142D01*
X113684142Y-94355564D01*
X113670000Y-94341421D01*
X113655858Y-94355564D01*
X113514436Y-94214142D01*
X113528579Y-94200000D01*
X113514436Y-94185858D01*
X113655858Y-94044436D01*
X113670000Y-94058579D01*
X113684142Y-94044436D01*
X113825564Y-94185858D01*
G36*
X116365564Y-94185858D02*
X116351421Y-94200000D01*
X116365564Y-94214142D01*
X116224142Y-94355564D01*
X116210000Y-94341421D01*
X116195858Y-94355564D01*
X116054436Y-94214142D01*
X116068579Y-94200000D01*
X116054436Y-94185858D01*
X116195858Y-94044436D01*
X116210000Y-94058579D01*
X116224142Y-94044436D01*
X116365564Y-94185858D01*
X116365564Y-94185858D01*
G37*
X116365564Y-94185858D02*
X116351421Y-94200000D01*
X116365564Y-94214142D01*
X116224142Y-94355564D01*
X116210000Y-94341421D01*
X116195858Y-94355564D01*
X116054436Y-94214142D01*
X116068579Y-94200000D01*
X116054436Y-94185858D01*
X116195858Y-94044436D01*
X116210000Y-94058579D01*
X116224142Y-94044436D01*
X116365564Y-94185858D01*
G36*
X101500000Y-76100000D02*
X101212500Y-76100000D01*
X101100000Y-76212500D01*
X101100000Y-77050000D01*
X101120000Y-77050000D01*
X101120000Y-77250000D01*
X101100000Y-77250000D01*
X101100000Y-78087500D01*
X101212500Y-78200000D01*
X101500000Y-78200000D01*
X101500000Y-79601472D01*
X100525000Y-80576472D01*
X100525000Y-78200000D01*
X100787500Y-78200000D01*
X100900000Y-78087500D01*
X100900000Y-77250000D01*
X100880000Y-77250000D01*
X100880000Y-77050000D01*
X100900000Y-77050000D01*
X100900000Y-76212500D01*
X100787500Y-76100000D01*
X100525000Y-76100000D01*
X100525000Y-76003753D01*
X100550000Y-76008816D01*
X101450000Y-76008816D01*
X101500000Y-75999408D01*
X101500000Y-76100000D01*
X101500000Y-76100000D01*
G37*
X101500000Y-76100000D02*
X101212500Y-76100000D01*
X101100000Y-76212500D01*
X101100000Y-77050000D01*
X101120000Y-77050000D01*
X101120000Y-77250000D01*
X101100000Y-77250000D01*
X101100000Y-78087500D01*
X101212500Y-78200000D01*
X101500000Y-78200000D01*
X101500000Y-79601472D01*
X100525000Y-80576472D01*
X100525000Y-78200000D01*
X100787500Y-78200000D01*
X100900000Y-78087500D01*
X100900000Y-77250000D01*
X100880000Y-77250000D01*
X100880000Y-77050000D01*
X100900000Y-77050000D01*
X100900000Y-76212500D01*
X100787500Y-76100000D01*
X100525000Y-76100000D01*
X100525000Y-76003753D01*
X100550000Y-76008816D01*
X101450000Y-76008816D01*
X101500000Y-75999408D01*
X101500000Y-76100000D01*
G36*
X116925736Y-62725736D02*
X116795672Y-62920390D01*
X116750000Y-63150000D01*
X116750000Y-64501472D01*
X116425736Y-64825736D01*
X116295672Y-65020390D01*
X116290550Y-65046141D01*
X116239511Y-65025000D01*
X115762500Y-65025000D01*
X115650000Y-65137500D01*
X115650000Y-65750000D01*
X115670000Y-65750000D01*
X115670000Y-65950000D01*
X115650000Y-65950000D01*
X115650000Y-66562500D01*
X115762500Y-66675000D01*
X116026472Y-66675000D01*
X115775736Y-66925736D01*
X115645672Y-67120390D01*
X115600000Y-67350000D01*
X115600000Y-68751472D01*
X115125736Y-69225736D01*
X114995672Y-69420390D01*
X114950000Y-69650000D01*
X114950000Y-69729345D01*
X114939511Y-69725000D01*
X114262500Y-69725000D01*
X114150000Y-69837500D01*
X114150000Y-70350000D01*
X114170000Y-70350000D01*
X114170000Y-70516184D01*
X113250000Y-70516184D01*
X113083240Y-70547562D01*
X113079451Y-70550000D01*
X112912500Y-70550000D01*
X112800000Y-70662500D01*
X112800000Y-70814510D01*
X112815907Y-70852913D01*
X112791184Y-70975000D01*
X112791184Y-71525000D01*
X112815568Y-71654589D01*
X112791184Y-71775000D01*
X112791184Y-72325000D01*
X112815568Y-72454589D01*
X112791184Y-72575000D01*
X112791184Y-73125000D01*
X112815568Y-73254589D01*
X112791184Y-73375000D01*
X112791184Y-73925000D01*
X112815568Y-74054589D01*
X112791184Y-74175000D01*
X112791184Y-74725000D01*
X112815568Y-74854589D01*
X112791184Y-74975000D01*
X112791184Y-75525000D01*
X112815568Y-75654589D01*
X112791184Y-75775000D01*
X112791184Y-76241184D01*
X112325000Y-76241184D01*
X112195411Y-76265568D01*
X112075000Y-76241184D01*
X111525000Y-76241184D01*
X111395411Y-76265568D01*
X111275000Y-76241184D01*
X110725000Y-76241184D01*
X110595411Y-76265568D01*
X110475000Y-76241184D01*
X110253794Y-76241184D01*
X110349861Y-76009828D01*
X110350139Y-75691568D01*
X110228603Y-75397428D01*
X110150000Y-75318688D01*
X110150000Y-72350000D01*
X110104328Y-72120390D01*
X109974264Y-71925736D01*
X108824264Y-70775736D01*
X108629610Y-70645672D01*
X108400000Y-70600000D01*
X106808816Y-70600000D01*
X106808816Y-70258816D01*
X107275000Y-70258816D01*
X107404589Y-70234432D01*
X107525000Y-70258816D01*
X108075000Y-70258816D01*
X108204589Y-70234432D01*
X108325000Y-70258816D01*
X108875000Y-70258816D01*
X109004589Y-70234432D01*
X109125000Y-70258816D01*
X109675000Y-70258816D01*
X109804589Y-70234432D01*
X109925000Y-70258816D01*
X110475000Y-70258816D01*
X110604589Y-70234432D01*
X110725000Y-70258816D01*
X111092656Y-70258816D01*
X110775736Y-70575736D01*
X110645672Y-70770390D01*
X110600000Y-71000000D01*
X110600000Y-74600000D01*
X110645672Y-74829610D01*
X110775736Y-75024264D01*
X110999957Y-75248485D01*
X110999861Y-75358432D01*
X111121397Y-75652572D01*
X111346245Y-75877812D01*
X111640172Y-75999861D01*
X111958432Y-76000139D01*
X112252572Y-75878603D01*
X112477812Y-75653755D01*
X112599861Y-75359828D01*
X112600139Y-75041568D01*
X112478603Y-74747428D01*
X112253755Y-74522188D01*
X111959828Y-74400139D01*
X111848570Y-74400042D01*
X111800000Y-74351472D01*
X111800000Y-71248528D01*
X112224264Y-70824264D01*
X112354328Y-70629610D01*
X112400000Y-70400000D01*
X112400000Y-70258816D01*
X112821316Y-70258816D01*
X112912500Y-70350000D01*
X113950000Y-70350000D01*
X113950000Y-69837500D01*
X113837500Y-69725000D01*
X113333816Y-69725000D01*
X113333816Y-68200000D01*
X113302438Y-68033240D01*
X113229162Y-67919366D01*
X114074264Y-67074264D01*
X114204328Y-66879610D01*
X114243274Y-66683816D01*
X114250000Y-66683816D01*
X114416760Y-66652438D01*
X114569919Y-66553883D01*
X114599376Y-66510772D01*
X114695095Y-66606491D01*
X114860489Y-66675000D01*
X115337500Y-66675000D01*
X115450000Y-66562500D01*
X115450000Y-65950000D01*
X115430000Y-65950000D01*
X115430000Y-65750000D01*
X115450000Y-65750000D01*
X115450000Y-65137500D01*
X115337500Y-65025000D01*
X114860489Y-65025000D01*
X114695095Y-65093509D01*
X114600277Y-65188327D01*
X114578883Y-65155081D01*
X114463623Y-65076327D01*
X114961906Y-64578044D01*
X115202572Y-64478603D01*
X115427812Y-64253755D01*
X115549861Y-63959828D01*
X115550139Y-63641568D01*
X115428603Y-63347428D01*
X115203755Y-63122188D01*
X114937075Y-63011453D01*
X115498528Y-62450000D01*
X117201472Y-62450000D01*
X116925736Y-62725736D01*
X116925736Y-62725736D01*
G37*
X116925736Y-62725736D02*
X116795672Y-62920390D01*
X116750000Y-63150000D01*
X116750000Y-64501472D01*
X116425736Y-64825736D01*
X116295672Y-65020390D01*
X116290550Y-65046141D01*
X116239511Y-65025000D01*
X115762500Y-65025000D01*
X115650000Y-65137500D01*
X115650000Y-65750000D01*
X115670000Y-65750000D01*
X115670000Y-65950000D01*
X115650000Y-65950000D01*
X115650000Y-66562500D01*
X115762500Y-66675000D01*
X116026472Y-66675000D01*
X115775736Y-66925736D01*
X115645672Y-67120390D01*
X115600000Y-67350000D01*
X115600000Y-68751472D01*
X115125736Y-69225736D01*
X114995672Y-69420390D01*
X114950000Y-69650000D01*
X114950000Y-69729345D01*
X114939511Y-69725000D01*
X114262500Y-69725000D01*
X114150000Y-69837500D01*
X114150000Y-70350000D01*
X114170000Y-70350000D01*
X114170000Y-70516184D01*
X113250000Y-70516184D01*
X113083240Y-70547562D01*
X113079451Y-70550000D01*
X112912500Y-70550000D01*
X112800000Y-70662500D01*
X112800000Y-70814510D01*
X112815907Y-70852913D01*
X112791184Y-70975000D01*
X112791184Y-71525000D01*
X112815568Y-71654589D01*
X112791184Y-71775000D01*
X112791184Y-72325000D01*
X112815568Y-72454589D01*
X112791184Y-72575000D01*
X112791184Y-73125000D01*
X112815568Y-73254589D01*
X112791184Y-73375000D01*
X112791184Y-73925000D01*
X112815568Y-74054589D01*
X112791184Y-74175000D01*
X112791184Y-74725000D01*
X112815568Y-74854589D01*
X112791184Y-74975000D01*
X112791184Y-75525000D01*
X112815568Y-75654589D01*
X112791184Y-75775000D01*
X112791184Y-76241184D01*
X112325000Y-76241184D01*
X112195411Y-76265568D01*
X112075000Y-76241184D01*
X111525000Y-76241184D01*
X111395411Y-76265568D01*
X111275000Y-76241184D01*
X110725000Y-76241184D01*
X110595411Y-76265568D01*
X110475000Y-76241184D01*
X110253794Y-76241184D01*
X110349861Y-76009828D01*
X110350139Y-75691568D01*
X110228603Y-75397428D01*
X110150000Y-75318688D01*
X110150000Y-72350000D01*
X110104328Y-72120390D01*
X109974264Y-71925736D01*
X108824264Y-70775736D01*
X108629610Y-70645672D01*
X108400000Y-70600000D01*
X106808816Y-70600000D01*
X106808816Y-70258816D01*
X107275000Y-70258816D01*
X107404589Y-70234432D01*
X107525000Y-70258816D01*
X108075000Y-70258816D01*
X108204589Y-70234432D01*
X108325000Y-70258816D01*
X108875000Y-70258816D01*
X109004589Y-70234432D01*
X109125000Y-70258816D01*
X109675000Y-70258816D01*
X109804589Y-70234432D01*
X109925000Y-70258816D01*
X110475000Y-70258816D01*
X110604589Y-70234432D01*
X110725000Y-70258816D01*
X111092656Y-70258816D01*
X110775736Y-70575736D01*
X110645672Y-70770390D01*
X110600000Y-71000000D01*
X110600000Y-74600000D01*
X110645672Y-74829610D01*
X110775736Y-75024264D01*
X110999957Y-75248485D01*
X110999861Y-75358432D01*
X111121397Y-75652572D01*
X111346245Y-75877812D01*
X111640172Y-75999861D01*
X111958432Y-76000139D01*
X112252572Y-75878603D01*
X112477812Y-75653755D01*
X112599861Y-75359828D01*
X112600139Y-75041568D01*
X112478603Y-74747428D01*
X112253755Y-74522188D01*
X111959828Y-74400139D01*
X111848570Y-74400042D01*
X111800000Y-74351472D01*
X111800000Y-71248528D01*
X112224264Y-70824264D01*
X112354328Y-70629610D01*
X112400000Y-70400000D01*
X112400000Y-70258816D01*
X112821316Y-70258816D01*
X112912500Y-70350000D01*
X113950000Y-70350000D01*
X113950000Y-69837500D01*
X113837500Y-69725000D01*
X113333816Y-69725000D01*
X113333816Y-68200000D01*
X113302438Y-68033240D01*
X113229162Y-67919366D01*
X114074264Y-67074264D01*
X114204328Y-66879610D01*
X114243274Y-66683816D01*
X114250000Y-66683816D01*
X114416760Y-66652438D01*
X114569919Y-66553883D01*
X114599376Y-66510772D01*
X114695095Y-66606491D01*
X114860489Y-66675000D01*
X115337500Y-66675000D01*
X115450000Y-66562500D01*
X115450000Y-65950000D01*
X115430000Y-65950000D01*
X115430000Y-65750000D01*
X115450000Y-65750000D01*
X115450000Y-65137500D01*
X115337500Y-65025000D01*
X114860489Y-65025000D01*
X114695095Y-65093509D01*
X114600277Y-65188327D01*
X114578883Y-65155081D01*
X114463623Y-65076327D01*
X114961906Y-64578044D01*
X115202572Y-64478603D01*
X115427812Y-64253755D01*
X115549861Y-63959828D01*
X115550139Y-63641568D01*
X115428603Y-63347428D01*
X115203755Y-63122188D01*
X114937075Y-63011453D01*
X115498528Y-62450000D01*
X117201472Y-62450000D01*
X116925736Y-62725736D01*
G36*
X116692633Y-49789914D02*
X116494531Y-50214161D01*
X116576665Y-50400000D01*
X117560000Y-50400000D01*
X117560000Y-50380000D01*
X117760000Y-50380000D01*
X117760000Y-50400000D01*
X118743335Y-50400000D01*
X118825469Y-50214161D01*
X118627367Y-49789914D01*
X118556451Y-49725000D01*
X118950000Y-49725000D01*
X118950000Y-52641184D01*
X118900000Y-52641184D01*
X118775007Y-52664703D01*
X118739510Y-52650000D01*
X118512500Y-52650000D01*
X118400000Y-52762500D01*
X118400000Y-53550000D01*
X118420000Y-53550000D01*
X118420000Y-53750000D01*
X118400000Y-53750000D01*
X118400000Y-53770000D01*
X118200000Y-53770000D01*
X118200000Y-53750000D01*
X118180000Y-53750000D01*
X118180000Y-53550000D01*
X118200000Y-53550000D01*
X118200000Y-52762500D01*
X118087500Y-52650000D01*
X117860490Y-52650000D01*
X117822087Y-52665907D01*
X117700000Y-52641184D01*
X117000000Y-52641184D01*
X116833240Y-52672562D01*
X116680081Y-52771117D01*
X116577332Y-52921495D01*
X116541184Y-53100000D01*
X116541184Y-54200000D01*
X116550592Y-54250000D01*
X115400000Y-54250000D01*
X115400000Y-54270000D01*
X115200000Y-54270000D01*
X115200000Y-54250000D01*
X114587500Y-54250000D01*
X114475000Y-54362500D01*
X114475000Y-54839511D01*
X114543509Y-55004905D01*
X114638327Y-55099723D01*
X114605081Y-55121117D01*
X114502332Y-55271495D01*
X114466184Y-55450000D01*
X114466184Y-56650000D01*
X114497562Y-56816760D01*
X114596117Y-56969919D01*
X114746495Y-57072668D01*
X114925000Y-57108816D01*
X115500000Y-57108816D01*
X115500000Y-58824725D01*
X115371345Y-59017271D01*
X115280000Y-59476491D01*
X115280000Y-59523509D01*
X115371345Y-59982729D01*
X115500000Y-60175275D01*
X115500000Y-60550000D01*
X114900000Y-60550000D01*
X114670390Y-60595672D01*
X114475736Y-60725736D01*
X111075736Y-64125736D01*
X110945672Y-64320390D01*
X110900000Y-64550000D01*
X110900000Y-65901472D01*
X110000000Y-66801472D01*
X110000000Y-66098528D01*
X110224264Y-65874264D01*
X110354328Y-65679611D01*
X110400000Y-65450000D01*
X110400000Y-65380592D01*
X110416760Y-65377438D01*
X110569919Y-65278883D01*
X110672668Y-65128505D01*
X110708816Y-64950000D01*
X110708816Y-63750000D01*
X110677438Y-63583240D01*
X110578883Y-63430081D01*
X110428505Y-63327332D01*
X110250000Y-63291184D01*
X109350000Y-63291184D01*
X109183240Y-63322562D01*
X109030081Y-63421117D01*
X109000744Y-63464054D01*
X108978883Y-63430081D01*
X108828505Y-63327332D01*
X108650000Y-63291184D01*
X107750000Y-63291184D01*
X107583240Y-63322562D01*
X107430081Y-63421117D01*
X107327332Y-63571495D01*
X107291184Y-63750000D01*
X107291184Y-64950000D01*
X107322562Y-65116760D01*
X107421117Y-65269919D01*
X107571495Y-65372668D01*
X107600000Y-65378440D01*
X107600000Y-65450000D01*
X107645672Y-65679610D01*
X107775736Y-65874264D01*
X108000000Y-66098528D01*
X108000000Y-66801472D01*
X107250000Y-66051472D01*
X107250000Y-65250000D01*
X107204328Y-65020390D01*
X107074264Y-64825736D01*
X106400000Y-64151472D01*
X106400000Y-62910000D01*
X106354328Y-62680390D01*
X106224264Y-62485736D01*
X105557070Y-61818542D01*
X105589791Y-61739742D01*
X105590207Y-61262353D01*
X105407903Y-60821143D01*
X105070633Y-60483283D01*
X104990000Y-60449801D01*
X104990000Y-59749494D01*
X105072668Y-59628505D01*
X105108816Y-59450000D01*
X105108816Y-58250000D01*
X105077438Y-58083240D01*
X104978883Y-57930081D01*
X104828505Y-57827332D01*
X104650000Y-57791184D01*
X103750000Y-57791184D01*
X103583240Y-57822562D01*
X103430081Y-57921117D01*
X103400744Y-57964054D01*
X103378883Y-57930081D01*
X103228505Y-57827332D01*
X103050000Y-57791184D01*
X102150000Y-57791184D01*
X101983240Y-57822562D01*
X101830081Y-57921117D01*
X101800744Y-57964054D01*
X101778883Y-57930081D01*
X101628505Y-57827332D01*
X101450000Y-57791184D01*
X100550000Y-57791184D01*
X100525000Y-57795888D01*
X100525000Y-57700000D01*
X100787500Y-57700000D01*
X100900000Y-57587500D01*
X100900000Y-56750000D01*
X101100000Y-56750000D01*
X101100000Y-57587500D01*
X101212500Y-57700000D01*
X101539510Y-57700000D01*
X101704904Y-57631492D01*
X101800000Y-57536396D01*
X101895096Y-57631492D01*
X102060490Y-57700000D01*
X102387500Y-57700000D01*
X102500000Y-57587500D01*
X102500000Y-56750000D01*
X102700000Y-56750000D01*
X102700000Y-57587500D01*
X102812500Y-57700000D01*
X103139510Y-57700000D01*
X103304904Y-57631492D01*
X103400000Y-57536396D01*
X103495096Y-57631492D01*
X103660490Y-57700000D01*
X103987500Y-57700000D01*
X104100000Y-57587500D01*
X104100000Y-56750000D01*
X104300000Y-56750000D01*
X104300000Y-57587500D01*
X104412500Y-57700000D01*
X104739510Y-57700000D01*
X104904904Y-57631492D01*
X105031491Y-57504905D01*
X105100000Y-57339511D01*
X105100000Y-56862500D01*
X104987500Y-56750000D01*
X104300000Y-56750000D01*
X104100000Y-56750000D01*
X103412500Y-56750000D01*
X103400000Y-56762500D01*
X103387500Y-56750000D01*
X102700000Y-56750000D01*
X102500000Y-56750000D01*
X101812500Y-56750000D01*
X101800000Y-56762500D01*
X101787500Y-56750000D01*
X101100000Y-56750000D01*
X100900000Y-56750000D01*
X100880000Y-56750000D01*
X100880000Y-56550000D01*
X100900000Y-56550000D01*
X100900000Y-55712500D01*
X101100000Y-55712500D01*
X101100000Y-56550000D01*
X101787500Y-56550000D01*
X101800000Y-56537500D01*
X101812500Y-56550000D01*
X102500000Y-56550000D01*
X102500000Y-55712500D01*
X102700000Y-55712500D01*
X102700000Y-56550000D01*
X103387500Y-56550000D01*
X103400000Y-56537500D01*
X103412500Y-56550000D01*
X104100000Y-56550000D01*
X104100000Y-55712500D01*
X103987500Y-55600000D01*
X103660490Y-55600000D01*
X103495096Y-55668508D01*
X103400000Y-55763604D01*
X103304904Y-55668508D01*
X103139510Y-55600000D01*
X102812500Y-55600000D01*
X102700000Y-55712500D01*
X102500000Y-55712500D01*
X102387500Y-55600000D01*
X102060490Y-55600000D01*
X101895096Y-55668508D01*
X101800000Y-55763604D01*
X101704904Y-55668508D01*
X101539510Y-55600000D01*
X101212500Y-55600000D01*
X101100000Y-55712500D01*
X100900000Y-55712500D01*
X100787500Y-55600000D01*
X100525000Y-55600000D01*
X100525000Y-54774300D01*
X104137000Y-54774300D01*
X104137000Y-55124300D01*
X104251389Y-55499371D01*
X104369567Y-55642933D01*
X104300000Y-55712500D01*
X104300000Y-56550000D01*
X104987500Y-56550000D01*
X105100000Y-56437500D01*
X105100000Y-55960489D01*
X105037000Y-55808395D01*
X105037000Y-54774300D01*
X105237000Y-54774300D01*
X105237000Y-55906148D01*
X105391419Y-55991394D01*
X105427296Y-55986447D01*
X105773396Y-55802117D01*
X106022611Y-55499371D01*
X106137000Y-55124300D01*
X106137000Y-54774300D01*
X105237000Y-54774300D01*
X105037000Y-54774300D01*
X104137000Y-54774300D01*
X100525000Y-54774300D01*
X100525000Y-54726800D01*
X106762000Y-54726800D01*
X106762000Y-55953810D01*
X106830508Y-56119204D01*
X106957095Y-56245791D01*
X107122489Y-56314300D01*
X107199500Y-56314300D01*
X107312000Y-56201800D01*
X107312000Y-54614300D01*
X106874500Y-54614300D01*
X106762000Y-54726800D01*
X100525000Y-54726800D01*
X100525000Y-54224300D01*
X104137000Y-54224300D01*
X104137000Y-54574300D01*
X105037000Y-54574300D01*
X105037000Y-53442452D01*
X105237000Y-53442452D01*
X105237000Y-54574300D01*
X106137000Y-54574300D01*
X106137000Y-54224300D01*
X106022611Y-53849229D01*
X105773396Y-53546483D01*
X105682137Y-53497879D01*
X105986874Y-53497879D01*
X106097016Y-53764443D01*
X106300784Y-53968567D01*
X106567156Y-54079174D01*
X106762000Y-54079344D01*
X106762000Y-54301800D01*
X106874500Y-54414300D01*
X107312000Y-54414300D01*
X107312000Y-53779758D01*
X107326267Y-53765516D01*
X107403184Y-53580279D01*
X107403184Y-55864300D01*
X107434562Y-56031060D01*
X107495043Y-56125051D01*
X107450000Y-56351500D01*
X107450000Y-56708299D01*
X107430081Y-56721117D01*
X107327332Y-56871495D01*
X107291184Y-57050000D01*
X107291184Y-58250000D01*
X107300000Y-58296853D01*
X107300000Y-59306465D01*
X107291184Y-59350000D01*
X107291184Y-60550000D01*
X107322562Y-60716760D01*
X107421117Y-60869919D01*
X107450000Y-60889654D01*
X107450000Y-61208299D01*
X107430081Y-61221117D01*
X107327332Y-61371495D01*
X107291184Y-61550000D01*
X107291184Y-62750000D01*
X107322562Y-62916760D01*
X107421117Y-63069919D01*
X107571495Y-63172668D01*
X107750000Y-63208816D01*
X108650000Y-63208816D01*
X108816760Y-63177438D01*
X108969919Y-63078883D01*
X108999256Y-63035946D01*
X109021117Y-63069919D01*
X109171495Y-63172668D01*
X109350000Y-63208816D01*
X110250000Y-63208816D01*
X110416760Y-63177438D01*
X110569919Y-63078883D01*
X110672668Y-62928505D01*
X110708816Y-62750000D01*
X110708816Y-61550000D01*
X110677438Y-61383240D01*
X110578883Y-61230081D01*
X110550000Y-61210346D01*
X110550000Y-60912500D01*
X111225000Y-60912500D01*
X111225000Y-61389511D01*
X111293509Y-61554905D01*
X111420096Y-61681492D01*
X111585490Y-61750000D01*
X111837500Y-61750000D01*
X111950000Y-61637500D01*
X111950000Y-60800000D01*
X112150000Y-60800000D01*
X112150000Y-61637500D01*
X112262500Y-61750000D01*
X112514510Y-61750000D01*
X112679904Y-61681492D01*
X112806491Y-61554905D01*
X112875000Y-61389511D01*
X112875000Y-60912500D01*
X112762500Y-60800000D01*
X112150000Y-60800000D01*
X111950000Y-60800000D01*
X111337500Y-60800000D01*
X111225000Y-60912500D01*
X110550000Y-60912500D01*
X110550000Y-60891701D01*
X110569919Y-60878883D01*
X110672668Y-60728505D01*
X110708816Y-60550000D01*
X110708816Y-59350000D01*
X111216184Y-59350000D01*
X111216184Y-59400000D01*
X111247562Y-59566760D01*
X111346117Y-59719919D01*
X111389228Y-59749376D01*
X111293509Y-59845095D01*
X111225000Y-60010489D01*
X111225000Y-60487500D01*
X111337500Y-60600000D01*
X111950000Y-60600000D01*
X111950000Y-60580000D01*
X112150000Y-60580000D01*
X112150000Y-60600000D01*
X112762500Y-60600000D01*
X112875000Y-60487500D01*
X112875000Y-60010489D01*
X112806491Y-59845095D01*
X112711673Y-59750277D01*
X112744919Y-59728883D01*
X112847668Y-59578505D01*
X112883816Y-59400000D01*
X112883816Y-58200000D01*
X112852438Y-58033240D01*
X112753883Y-57880081D01*
X112750000Y-57877428D01*
X112750000Y-57400320D01*
X112849861Y-57159828D01*
X112850139Y-56841568D01*
X112728603Y-56547428D01*
X112503755Y-56322188D01*
X112261577Y-56221627D01*
X112031146Y-55991196D01*
X112032581Y-55991394D01*
X112187000Y-55906148D01*
X112187000Y-54774300D01*
X112387000Y-54774300D01*
X112387000Y-55906148D01*
X112541419Y-55991394D01*
X112577296Y-55986447D01*
X112923396Y-55802117D01*
X113172611Y-55499371D01*
X113287000Y-55124300D01*
X113287000Y-54774300D01*
X112387000Y-54774300D01*
X112187000Y-54774300D01*
X111287000Y-54774300D01*
X111287000Y-55124300D01*
X111401389Y-55499371D01*
X111417637Y-55519109D01*
X110670816Y-54772288D01*
X110670816Y-54224300D01*
X111287000Y-54224300D01*
X111287000Y-54574300D01*
X112187000Y-54574300D01*
X112187000Y-53442452D01*
X112387000Y-53442452D01*
X112387000Y-54574300D01*
X113287000Y-54574300D01*
X113287000Y-54224300D01*
X113172611Y-53849229D01*
X112923396Y-53546483D01*
X112761933Y-53460489D01*
X114475000Y-53460489D01*
X114475000Y-53937500D01*
X114587500Y-54050000D01*
X115200000Y-54050000D01*
X115200000Y-53212500D01*
X115400000Y-53212500D01*
X115400000Y-54050000D01*
X116012500Y-54050000D01*
X116125000Y-53937500D01*
X116125000Y-53460489D01*
X116056491Y-53295095D01*
X115929904Y-53168508D01*
X115764510Y-53100000D01*
X115512500Y-53100000D01*
X115400000Y-53212500D01*
X115200000Y-53212500D01*
X115087500Y-53100000D01*
X114835490Y-53100000D01*
X114670096Y-53168508D01*
X114543509Y-53295095D01*
X114475000Y-53460489D01*
X112761933Y-53460489D01*
X112577296Y-53362153D01*
X112541419Y-53357206D01*
X112387000Y-53442452D01*
X112187000Y-53442452D01*
X112032581Y-53357206D01*
X111996704Y-53362153D01*
X111650604Y-53546483D01*
X111401389Y-53849229D01*
X111287000Y-54224300D01*
X110670816Y-54224300D01*
X110670816Y-54079265D01*
X110855579Y-54079426D01*
X111122143Y-53969284D01*
X111326267Y-53765516D01*
X111436874Y-53499144D01*
X111437126Y-53210721D01*
X111326984Y-52944157D01*
X111123216Y-52740033D01*
X110856844Y-52629426D01*
X110568421Y-52629174D01*
X110327252Y-52728823D01*
X110212000Y-52705484D01*
X109812000Y-52705484D01*
X109682411Y-52729868D01*
X109562000Y-52705484D01*
X109162000Y-52705484D01*
X109032411Y-52729868D01*
X108912000Y-52705484D01*
X108512000Y-52705484D01*
X108382411Y-52729868D01*
X108262000Y-52705484D01*
X107862000Y-52705484D01*
X107737007Y-52729003D01*
X107701511Y-52714300D01*
X107624500Y-52714300D01*
X107512000Y-52826800D01*
X107512000Y-52879442D01*
X107439332Y-52985795D01*
X107408039Y-53140325D01*
X107326984Y-52944157D01*
X107312000Y-52929147D01*
X107312000Y-52826800D01*
X107199500Y-52714300D01*
X107122489Y-52714300D01*
X107091829Y-52727000D01*
X106856844Y-52629426D01*
X106568421Y-52629174D01*
X106301857Y-52739316D01*
X106097733Y-52943084D01*
X105987126Y-53209456D01*
X105986874Y-53497879D01*
X105682137Y-53497879D01*
X105427296Y-53362153D01*
X105391419Y-53357206D01*
X105237000Y-53442452D01*
X105037000Y-53442452D01*
X104882581Y-53357206D01*
X104846704Y-53362153D01*
X104500604Y-53546483D01*
X104251389Y-53849229D01*
X104137000Y-54224300D01*
X100525000Y-54224300D01*
X100525000Y-52862948D01*
X100735345Y-52863132D01*
X102077358Y-52308624D01*
X103083436Y-51304300D01*
X104137000Y-51304300D01*
X104137000Y-51654300D01*
X104251389Y-52029371D01*
X104500604Y-52332117D01*
X104846704Y-52516447D01*
X104882581Y-52521394D01*
X105037000Y-52436148D01*
X105037000Y-51304300D01*
X105237000Y-51304300D01*
X105237000Y-52436148D01*
X105391419Y-52521394D01*
X105427296Y-52516447D01*
X105773396Y-52332117D01*
X106022611Y-52029371D01*
X106137000Y-51654300D01*
X106137000Y-51304300D01*
X111287000Y-51304300D01*
X111287000Y-51654300D01*
X111401389Y-52029371D01*
X111650604Y-52332117D01*
X111996704Y-52516447D01*
X112032581Y-52521394D01*
X112187000Y-52436148D01*
X112187000Y-51304300D01*
X112387000Y-51304300D01*
X112387000Y-52436148D01*
X112541419Y-52521394D01*
X112577296Y-52516447D01*
X112923396Y-52332117D01*
X113172611Y-52029371D01*
X113287000Y-51654300D01*
X113287000Y-51304300D01*
X112387000Y-51304300D01*
X112187000Y-51304300D01*
X111287000Y-51304300D01*
X106137000Y-51304300D01*
X105237000Y-51304300D01*
X105037000Y-51304300D01*
X104137000Y-51304300D01*
X103083436Y-51304300D01*
X103105015Y-51282759D01*
X103324450Y-50754300D01*
X104137000Y-50754300D01*
X104137000Y-51104300D01*
X105037000Y-51104300D01*
X105037000Y-49972452D01*
X105237000Y-49972452D01*
X105237000Y-51104300D01*
X106137000Y-51104300D01*
X106137000Y-50754300D01*
X111287000Y-50754300D01*
X111287000Y-51104300D01*
X112187000Y-51104300D01*
X112187000Y-49972452D01*
X112387000Y-49972452D01*
X112387000Y-51104300D01*
X113287000Y-51104300D01*
X113287000Y-50785839D01*
X116494531Y-50785839D01*
X116692633Y-51210086D01*
X117038008Y-51526229D01*
X117374163Y-51665460D01*
X117560000Y-51582893D01*
X117560000Y-50600000D01*
X117760000Y-50600000D01*
X117760000Y-51582893D01*
X117945837Y-51665460D01*
X118281992Y-51526229D01*
X118627367Y-51210086D01*
X118825469Y-50785839D01*
X118743335Y-50600000D01*
X117760000Y-50600000D01*
X117560000Y-50600000D01*
X116576665Y-50600000D01*
X116494531Y-50785839D01*
X113287000Y-50785839D01*
X113287000Y-50754300D01*
X113172611Y-50379229D01*
X112923396Y-50076483D01*
X112577296Y-49892153D01*
X112541419Y-49887206D01*
X112387000Y-49972452D01*
X112187000Y-49972452D01*
X112032581Y-49887206D01*
X111996704Y-49892153D01*
X111650604Y-50076483D01*
X111401389Y-50379229D01*
X111287000Y-50754300D01*
X106137000Y-50754300D01*
X106022611Y-50379229D01*
X105773396Y-50076483D01*
X105427296Y-49892153D01*
X105391419Y-49887206D01*
X105237000Y-49972452D01*
X105037000Y-49972452D01*
X104882581Y-49887206D01*
X104846704Y-49892153D01*
X104500604Y-50076483D01*
X104251389Y-50379229D01*
X104137000Y-50754300D01*
X103324450Y-50754300D01*
X103661865Y-49941715D01*
X103662054Y-49725000D01*
X116763549Y-49725000D01*
X116692633Y-49789914D01*
X116692633Y-49789914D01*
G37*
X116692633Y-49789914D02*
X116494531Y-50214161D01*
X116576665Y-50400000D01*
X117560000Y-50400000D01*
X117560000Y-50380000D01*
X117760000Y-50380000D01*
X117760000Y-50400000D01*
X118743335Y-50400000D01*
X118825469Y-50214161D01*
X118627367Y-49789914D01*
X118556451Y-49725000D01*
X118950000Y-49725000D01*
X118950000Y-52641184D01*
X118900000Y-52641184D01*
X118775007Y-52664703D01*
X118739510Y-52650000D01*
X118512500Y-52650000D01*
X118400000Y-52762500D01*
X118400000Y-53550000D01*
X118420000Y-53550000D01*
X118420000Y-53750000D01*
X118400000Y-53750000D01*
X118400000Y-53770000D01*
X118200000Y-53770000D01*
X118200000Y-53750000D01*
X118180000Y-53750000D01*
X118180000Y-53550000D01*
X118200000Y-53550000D01*
X118200000Y-52762500D01*
X118087500Y-52650000D01*
X117860490Y-52650000D01*
X117822087Y-52665907D01*
X117700000Y-52641184D01*
X117000000Y-52641184D01*
X116833240Y-52672562D01*
X116680081Y-52771117D01*
X116577332Y-52921495D01*
X116541184Y-53100000D01*
X116541184Y-54200000D01*
X116550592Y-54250000D01*
X115400000Y-54250000D01*
X115400000Y-54270000D01*
X115200000Y-54270000D01*
X115200000Y-54250000D01*
X114587500Y-54250000D01*
X114475000Y-54362500D01*
X114475000Y-54839511D01*
X114543509Y-55004905D01*
X114638327Y-55099723D01*
X114605081Y-55121117D01*
X114502332Y-55271495D01*
X114466184Y-55450000D01*
X114466184Y-56650000D01*
X114497562Y-56816760D01*
X114596117Y-56969919D01*
X114746495Y-57072668D01*
X114925000Y-57108816D01*
X115500000Y-57108816D01*
X115500000Y-58824725D01*
X115371345Y-59017271D01*
X115280000Y-59476491D01*
X115280000Y-59523509D01*
X115371345Y-59982729D01*
X115500000Y-60175275D01*
X115500000Y-60550000D01*
X114900000Y-60550000D01*
X114670390Y-60595672D01*
X114475736Y-60725736D01*
X111075736Y-64125736D01*
X110945672Y-64320390D01*
X110900000Y-64550000D01*
X110900000Y-65901472D01*
X110000000Y-66801472D01*
X110000000Y-66098528D01*
X110224264Y-65874264D01*
X110354328Y-65679611D01*
X110400000Y-65450000D01*
X110400000Y-65380592D01*
X110416760Y-65377438D01*
X110569919Y-65278883D01*
X110672668Y-65128505D01*
X110708816Y-64950000D01*
X110708816Y-63750000D01*
X110677438Y-63583240D01*
X110578883Y-63430081D01*
X110428505Y-63327332D01*
X110250000Y-63291184D01*
X109350000Y-63291184D01*
X109183240Y-63322562D01*
X109030081Y-63421117D01*
X109000744Y-63464054D01*
X108978883Y-63430081D01*
X108828505Y-63327332D01*
X108650000Y-63291184D01*
X107750000Y-63291184D01*
X107583240Y-63322562D01*
X107430081Y-63421117D01*
X107327332Y-63571495D01*
X107291184Y-63750000D01*
X107291184Y-64950000D01*
X107322562Y-65116760D01*
X107421117Y-65269919D01*
X107571495Y-65372668D01*
X107600000Y-65378440D01*
X107600000Y-65450000D01*
X107645672Y-65679610D01*
X107775736Y-65874264D01*
X108000000Y-66098528D01*
X108000000Y-66801472D01*
X107250000Y-66051472D01*
X107250000Y-65250000D01*
X107204328Y-65020390D01*
X107074264Y-64825736D01*
X106400000Y-64151472D01*
X106400000Y-62910000D01*
X106354328Y-62680390D01*
X106224264Y-62485736D01*
X105557070Y-61818542D01*
X105589791Y-61739742D01*
X105590207Y-61262353D01*
X105407903Y-60821143D01*
X105070633Y-60483283D01*
X104990000Y-60449801D01*
X104990000Y-59749494D01*
X105072668Y-59628505D01*
X105108816Y-59450000D01*
X105108816Y-58250000D01*
X105077438Y-58083240D01*
X104978883Y-57930081D01*
X104828505Y-57827332D01*
X104650000Y-57791184D01*
X103750000Y-57791184D01*
X103583240Y-57822562D01*
X103430081Y-57921117D01*
X103400744Y-57964054D01*
X103378883Y-57930081D01*
X103228505Y-57827332D01*
X103050000Y-57791184D01*
X102150000Y-57791184D01*
X101983240Y-57822562D01*
X101830081Y-57921117D01*
X101800744Y-57964054D01*
X101778883Y-57930081D01*
X101628505Y-57827332D01*
X101450000Y-57791184D01*
X100550000Y-57791184D01*
X100525000Y-57795888D01*
X100525000Y-57700000D01*
X100787500Y-57700000D01*
X100900000Y-57587500D01*
X100900000Y-56750000D01*
X101100000Y-56750000D01*
X101100000Y-57587500D01*
X101212500Y-57700000D01*
X101539510Y-57700000D01*
X101704904Y-57631492D01*
X101800000Y-57536396D01*
X101895096Y-57631492D01*
X102060490Y-57700000D01*
X102387500Y-57700000D01*
X102500000Y-57587500D01*
X102500000Y-56750000D01*
X102700000Y-56750000D01*
X102700000Y-57587500D01*
X102812500Y-57700000D01*
X103139510Y-57700000D01*
X103304904Y-57631492D01*
X103400000Y-57536396D01*
X103495096Y-57631492D01*
X103660490Y-57700000D01*
X103987500Y-57700000D01*
X104100000Y-57587500D01*
X104100000Y-56750000D01*
X104300000Y-56750000D01*
X104300000Y-57587500D01*
X104412500Y-57700000D01*
X104739510Y-57700000D01*
X104904904Y-57631492D01*
X105031491Y-57504905D01*
X105100000Y-57339511D01*
X105100000Y-56862500D01*
X104987500Y-56750000D01*
X104300000Y-56750000D01*
X104100000Y-56750000D01*
X103412500Y-56750000D01*
X103400000Y-56762500D01*
X103387500Y-56750000D01*
X102700000Y-56750000D01*
X102500000Y-56750000D01*
X101812500Y-56750000D01*
X101800000Y-56762500D01*
X101787500Y-56750000D01*
X101100000Y-56750000D01*
X100900000Y-56750000D01*
X100880000Y-56750000D01*
X100880000Y-56550000D01*
X100900000Y-56550000D01*
X100900000Y-55712500D01*
X101100000Y-55712500D01*
X101100000Y-56550000D01*
X101787500Y-56550000D01*
X101800000Y-56537500D01*
X101812500Y-56550000D01*
X102500000Y-56550000D01*
X102500000Y-55712500D01*
X102700000Y-55712500D01*
X102700000Y-56550000D01*
X103387500Y-56550000D01*
X103400000Y-56537500D01*
X103412500Y-56550000D01*
X104100000Y-56550000D01*
X104100000Y-55712500D01*
X103987500Y-55600000D01*
X103660490Y-55600000D01*
X103495096Y-55668508D01*
X103400000Y-55763604D01*
X103304904Y-55668508D01*
X103139510Y-55600000D01*
X102812500Y-55600000D01*
X102700000Y-55712500D01*
X102500000Y-55712500D01*
X102387500Y-55600000D01*
X102060490Y-55600000D01*
X101895096Y-55668508D01*
X101800000Y-55763604D01*
X101704904Y-55668508D01*
X101539510Y-55600000D01*
X101212500Y-55600000D01*
X101100000Y-55712500D01*
X100900000Y-55712500D01*
X100787500Y-55600000D01*
X100525000Y-55600000D01*
X100525000Y-54774300D01*
X104137000Y-54774300D01*
X104137000Y-55124300D01*
X104251389Y-55499371D01*
X104369567Y-55642933D01*
X104300000Y-55712500D01*
X104300000Y-56550000D01*
X104987500Y-56550000D01*
X105100000Y-56437500D01*
X105100000Y-55960489D01*
X105037000Y-55808395D01*
X105037000Y-54774300D01*
X105237000Y-54774300D01*
X105237000Y-55906148D01*
X105391419Y-55991394D01*
X105427296Y-55986447D01*
X105773396Y-55802117D01*
X106022611Y-55499371D01*
X106137000Y-55124300D01*
X106137000Y-54774300D01*
X105237000Y-54774300D01*
X105037000Y-54774300D01*
X104137000Y-54774300D01*
X100525000Y-54774300D01*
X100525000Y-54726800D01*
X106762000Y-54726800D01*
X106762000Y-55953810D01*
X106830508Y-56119204D01*
X106957095Y-56245791D01*
X107122489Y-56314300D01*
X107199500Y-56314300D01*
X107312000Y-56201800D01*
X107312000Y-54614300D01*
X106874500Y-54614300D01*
X106762000Y-54726800D01*
X100525000Y-54726800D01*
X100525000Y-54224300D01*
X104137000Y-54224300D01*
X104137000Y-54574300D01*
X105037000Y-54574300D01*
X105037000Y-53442452D01*
X105237000Y-53442452D01*
X105237000Y-54574300D01*
X106137000Y-54574300D01*
X106137000Y-54224300D01*
X106022611Y-53849229D01*
X105773396Y-53546483D01*
X105682137Y-53497879D01*
X105986874Y-53497879D01*
X106097016Y-53764443D01*
X106300784Y-53968567D01*
X106567156Y-54079174D01*
X106762000Y-54079344D01*
X106762000Y-54301800D01*
X106874500Y-54414300D01*
X107312000Y-54414300D01*
X107312000Y-53779758D01*
X107326267Y-53765516D01*
X107403184Y-53580279D01*
X107403184Y-55864300D01*
X107434562Y-56031060D01*
X107495043Y-56125051D01*
X107450000Y-56351500D01*
X107450000Y-56708299D01*
X107430081Y-56721117D01*
X107327332Y-56871495D01*
X107291184Y-57050000D01*
X107291184Y-58250000D01*
X107300000Y-58296853D01*
X107300000Y-59306465D01*
X107291184Y-59350000D01*
X107291184Y-60550000D01*
X107322562Y-60716760D01*
X107421117Y-60869919D01*
X107450000Y-60889654D01*
X107450000Y-61208299D01*
X107430081Y-61221117D01*
X107327332Y-61371495D01*
X107291184Y-61550000D01*
X107291184Y-62750000D01*
X107322562Y-62916760D01*
X107421117Y-63069919D01*
X107571495Y-63172668D01*
X107750000Y-63208816D01*
X108650000Y-63208816D01*
X108816760Y-63177438D01*
X108969919Y-63078883D01*
X108999256Y-63035946D01*
X109021117Y-63069919D01*
X109171495Y-63172668D01*
X109350000Y-63208816D01*
X110250000Y-63208816D01*
X110416760Y-63177438D01*
X110569919Y-63078883D01*
X110672668Y-62928505D01*
X110708816Y-62750000D01*
X110708816Y-61550000D01*
X110677438Y-61383240D01*
X110578883Y-61230081D01*
X110550000Y-61210346D01*
X110550000Y-60912500D01*
X111225000Y-60912500D01*
X111225000Y-61389511D01*
X111293509Y-61554905D01*
X111420096Y-61681492D01*
X111585490Y-61750000D01*
X111837500Y-61750000D01*
X111950000Y-61637500D01*
X111950000Y-60800000D01*
X112150000Y-60800000D01*
X112150000Y-61637500D01*
X112262500Y-61750000D01*
X112514510Y-61750000D01*
X112679904Y-61681492D01*
X112806491Y-61554905D01*
X112875000Y-61389511D01*
X112875000Y-60912500D01*
X112762500Y-60800000D01*
X112150000Y-60800000D01*
X111950000Y-60800000D01*
X111337500Y-60800000D01*
X111225000Y-60912500D01*
X110550000Y-60912500D01*
X110550000Y-60891701D01*
X110569919Y-60878883D01*
X110672668Y-60728505D01*
X110708816Y-60550000D01*
X110708816Y-59350000D01*
X111216184Y-59350000D01*
X111216184Y-59400000D01*
X111247562Y-59566760D01*
X111346117Y-59719919D01*
X111389228Y-59749376D01*
X111293509Y-59845095D01*
X111225000Y-60010489D01*
X111225000Y-60487500D01*
X111337500Y-60600000D01*
X111950000Y-60600000D01*
X111950000Y-60580000D01*
X112150000Y-60580000D01*
X112150000Y-60600000D01*
X112762500Y-60600000D01*
X112875000Y-60487500D01*
X112875000Y-60010489D01*
X112806491Y-59845095D01*
X112711673Y-59750277D01*
X112744919Y-59728883D01*
X112847668Y-59578505D01*
X112883816Y-59400000D01*
X112883816Y-58200000D01*
X112852438Y-58033240D01*
X112753883Y-57880081D01*
X112750000Y-57877428D01*
X112750000Y-57400320D01*
X112849861Y-57159828D01*
X112850139Y-56841568D01*
X112728603Y-56547428D01*
X112503755Y-56322188D01*
X112261577Y-56221627D01*
X112031146Y-55991196D01*
X112032581Y-55991394D01*
X112187000Y-55906148D01*
X112187000Y-54774300D01*
X112387000Y-54774300D01*
X112387000Y-55906148D01*
X112541419Y-55991394D01*
X112577296Y-55986447D01*
X112923396Y-55802117D01*
X113172611Y-55499371D01*
X113287000Y-55124300D01*
X113287000Y-54774300D01*
X112387000Y-54774300D01*
X112187000Y-54774300D01*
X111287000Y-54774300D01*
X111287000Y-55124300D01*
X111401389Y-55499371D01*
X111417637Y-55519109D01*
X110670816Y-54772288D01*
X110670816Y-54224300D01*
X111287000Y-54224300D01*
X111287000Y-54574300D01*
X112187000Y-54574300D01*
X112187000Y-53442452D01*
X112387000Y-53442452D01*
X112387000Y-54574300D01*
X113287000Y-54574300D01*
X113287000Y-54224300D01*
X113172611Y-53849229D01*
X112923396Y-53546483D01*
X112761933Y-53460489D01*
X114475000Y-53460489D01*
X114475000Y-53937500D01*
X114587500Y-54050000D01*
X115200000Y-54050000D01*
X115200000Y-53212500D01*
X115400000Y-53212500D01*
X115400000Y-54050000D01*
X116012500Y-54050000D01*
X116125000Y-53937500D01*
X116125000Y-53460489D01*
X116056491Y-53295095D01*
X115929904Y-53168508D01*
X115764510Y-53100000D01*
X115512500Y-53100000D01*
X115400000Y-53212500D01*
X115200000Y-53212500D01*
X115087500Y-53100000D01*
X114835490Y-53100000D01*
X114670096Y-53168508D01*
X114543509Y-53295095D01*
X114475000Y-53460489D01*
X112761933Y-53460489D01*
X112577296Y-53362153D01*
X112541419Y-53357206D01*
X112387000Y-53442452D01*
X112187000Y-53442452D01*
X112032581Y-53357206D01*
X111996704Y-53362153D01*
X111650604Y-53546483D01*
X111401389Y-53849229D01*
X111287000Y-54224300D01*
X110670816Y-54224300D01*
X110670816Y-54079265D01*
X110855579Y-54079426D01*
X111122143Y-53969284D01*
X111326267Y-53765516D01*
X111436874Y-53499144D01*
X111437126Y-53210721D01*
X111326984Y-52944157D01*
X111123216Y-52740033D01*
X110856844Y-52629426D01*
X110568421Y-52629174D01*
X110327252Y-52728823D01*
X110212000Y-52705484D01*
X109812000Y-52705484D01*
X109682411Y-52729868D01*
X109562000Y-52705484D01*
X109162000Y-52705484D01*
X109032411Y-52729868D01*
X108912000Y-52705484D01*
X108512000Y-52705484D01*
X108382411Y-52729868D01*
X108262000Y-52705484D01*
X107862000Y-52705484D01*
X107737007Y-52729003D01*
X107701511Y-52714300D01*
X107624500Y-52714300D01*
X107512000Y-52826800D01*
X107512000Y-52879442D01*
X107439332Y-52985795D01*
X107408039Y-53140325D01*
X107326984Y-52944157D01*
X107312000Y-52929147D01*
X107312000Y-52826800D01*
X107199500Y-52714300D01*
X107122489Y-52714300D01*
X107091829Y-52727000D01*
X106856844Y-52629426D01*
X106568421Y-52629174D01*
X106301857Y-52739316D01*
X106097733Y-52943084D01*
X105987126Y-53209456D01*
X105986874Y-53497879D01*
X105682137Y-53497879D01*
X105427296Y-53362153D01*
X105391419Y-53357206D01*
X105237000Y-53442452D01*
X105037000Y-53442452D01*
X104882581Y-53357206D01*
X104846704Y-53362153D01*
X104500604Y-53546483D01*
X104251389Y-53849229D01*
X104137000Y-54224300D01*
X100525000Y-54224300D01*
X100525000Y-52862948D01*
X100735345Y-52863132D01*
X102077358Y-52308624D01*
X103083436Y-51304300D01*
X104137000Y-51304300D01*
X104137000Y-51654300D01*
X104251389Y-52029371D01*
X104500604Y-52332117D01*
X104846704Y-52516447D01*
X104882581Y-52521394D01*
X105037000Y-52436148D01*
X105037000Y-51304300D01*
X105237000Y-51304300D01*
X105237000Y-52436148D01*
X105391419Y-52521394D01*
X105427296Y-52516447D01*
X105773396Y-52332117D01*
X106022611Y-52029371D01*
X106137000Y-51654300D01*
X106137000Y-51304300D01*
X111287000Y-51304300D01*
X111287000Y-51654300D01*
X111401389Y-52029371D01*
X111650604Y-52332117D01*
X111996704Y-52516447D01*
X112032581Y-52521394D01*
X112187000Y-52436148D01*
X112187000Y-51304300D01*
X112387000Y-51304300D01*
X112387000Y-52436148D01*
X112541419Y-52521394D01*
X112577296Y-52516447D01*
X112923396Y-52332117D01*
X113172611Y-52029371D01*
X113287000Y-51654300D01*
X113287000Y-51304300D01*
X112387000Y-51304300D01*
X112187000Y-51304300D01*
X111287000Y-51304300D01*
X106137000Y-51304300D01*
X105237000Y-51304300D01*
X105037000Y-51304300D01*
X104137000Y-51304300D01*
X103083436Y-51304300D01*
X103105015Y-51282759D01*
X103324450Y-50754300D01*
X104137000Y-50754300D01*
X104137000Y-51104300D01*
X105037000Y-51104300D01*
X105037000Y-49972452D01*
X105237000Y-49972452D01*
X105237000Y-51104300D01*
X106137000Y-51104300D01*
X106137000Y-50754300D01*
X111287000Y-50754300D01*
X111287000Y-51104300D01*
X112187000Y-51104300D01*
X112187000Y-49972452D01*
X112387000Y-49972452D01*
X112387000Y-51104300D01*
X113287000Y-51104300D01*
X113287000Y-50785839D01*
X116494531Y-50785839D01*
X116692633Y-51210086D01*
X117038008Y-51526229D01*
X117374163Y-51665460D01*
X117560000Y-51582893D01*
X117560000Y-50600000D01*
X117760000Y-50600000D01*
X117760000Y-51582893D01*
X117945837Y-51665460D01*
X118281992Y-51526229D01*
X118627367Y-51210086D01*
X118825469Y-50785839D01*
X118743335Y-50600000D01*
X117760000Y-50600000D01*
X117560000Y-50600000D01*
X116576665Y-50600000D01*
X116494531Y-50785839D01*
X113287000Y-50785839D01*
X113287000Y-50754300D01*
X113172611Y-50379229D01*
X112923396Y-50076483D01*
X112577296Y-49892153D01*
X112541419Y-49887206D01*
X112387000Y-49972452D01*
X112187000Y-49972452D01*
X112032581Y-49887206D01*
X111996704Y-49892153D01*
X111650604Y-50076483D01*
X111401389Y-50379229D01*
X111287000Y-50754300D01*
X106137000Y-50754300D01*
X106022611Y-50379229D01*
X105773396Y-50076483D01*
X105427296Y-49892153D01*
X105391419Y-49887206D01*
X105237000Y-49972452D01*
X105037000Y-49972452D01*
X104882581Y-49887206D01*
X104846704Y-49892153D01*
X104500604Y-50076483D01*
X104251389Y-50379229D01*
X104137000Y-50754300D01*
X103324450Y-50754300D01*
X103661865Y-49941715D01*
X103662054Y-49725000D01*
X116763549Y-49725000D01*
X116692633Y-49789914D01*
G36*
X109113886Y-56698614D02*
X109100000Y-56712500D01*
X109100000Y-57550000D01*
X109120000Y-57550000D01*
X109120000Y-57750000D01*
X109100000Y-57750000D01*
X109100000Y-57770000D01*
X108900000Y-57770000D01*
X108900000Y-57750000D01*
X108880000Y-57750000D01*
X108880000Y-57550000D01*
X108900000Y-57550000D01*
X108900000Y-56712500D01*
X108852114Y-56664614D01*
X108966000Y-56550728D01*
X109113886Y-56698614D01*
X109113886Y-56698614D01*
G37*
X109113886Y-56698614D02*
X109100000Y-56712500D01*
X109100000Y-57550000D01*
X109120000Y-57550000D01*
X109120000Y-57750000D01*
X109100000Y-57750000D01*
X109100000Y-57770000D01*
X108900000Y-57770000D01*
X108900000Y-57750000D01*
X108880000Y-57750000D01*
X108880000Y-57550000D01*
X108900000Y-57550000D01*
X108900000Y-56712500D01*
X108852114Y-56664614D01*
X108966000Y-56550728D01*
X109113886Y-56698614D01*
G36*
X124875000Y-58296247D02*
X124850000Y-58291184D01*
X123350000Y-58291184D01*
X123183240Y-58322562D01*
X123030081Y-58421117D01*
X122927332Y-58571495D01*
X122891184Y-58750000D01*
X122891184Y-59600000D01*
X122744785Y-59600000D01*
X122760000Y-59523509D01*
X122760000Y-59476491D01*
X122668655Y-59017271D01*
X122408528Y-58627963D01*
X122019220Y-58367836D01*
X121560000Y-58276491D01*
X121100780Y-58367836D01*
X120711472Y-58627963D01*
X120451345Y-59017271D01*
X120360000Y-59476491D01*
X120360000Y-59523509D01*
X120375215Y-59600000D01*
X119120000Y-59600000D01*
X119120000Y-59620000D01*
X118950000Y-59620000D01*
X118950000Y-58417107D01*
X119120000Y-58417107D01*
X119120000Y-59400000D01*
X120103335Y-59400000D01*
X120185469Y-59214161D01*
X119987367Y-58789914D01*
X119641992Y-58473771D01*
X119305837Y-58334540D01*
X119120000Y-58417107D01*
X118950000Y-58417107D01*
X118950000Y-58250000D01*
X121100000Y-58250000D01*
X121367879Y-58196716D01*
X121594975Y-58044975D01*
X122194975Y-57444975D01*
X122346716Y-57217879D01*
X122400000Y-56950000D01*
X122400000Y-56865000D01*
X122466760Y-56852438D01*
X122619919Y-56753883D01*
X122649376Y-56710772D01*
X122745095Y-56806491D01*
X122910489Y-56875000D01*
X123387500Y-56875000D01*
X123500000Y-56762500D01*
X123500000Y-56150000D01*
X123700000Y-56150000D01*
X123700000Y-56762500D01*
X123812500Y-56875000D01*
X124289511Y-56875000D01*
X124454905Y-56806491D01*
X124581492Y-56679904D01*
X124650000Y-56514510D01*
X124650000Y-56262500D01*
X124537500Y-56150000D01*
X123700000Y-56150000D01*
X123500000Y-56150000D01*
X123480000Y-56150000D01*
X123480000Y-55950000D01*
X123500000Y-55950000D01*
X123500000Y-55337500D01*
X123700000Y-55337500D01*
X123700000Y-55950000D01*
X124537500Y-55950000D01*
X124650000Y-55837500D01*
X124650000Y-55585490D01*
X124581492Y-55420096D01*
X124454905Y-55293509D01*
X124289511Y-55225000D01*
X123812500Y-55225000D01*
X123700000Y-55337500D01*
X123500000Y-55337500D01*
X123387500Y-55225000D01*
X123300000Y-55225000D01*
X123300000Y-54475000D01*
X123387500Y-54475000D01*
X123500000Y-54362500D01*
X123500000Y-53750000D01*
X123700000Y-53750000D01*
X123700000Y-54362500D01*
X123812500Y-54475000D01*
X124289511Y-54475000D01*
X124454905Y-54406491D01*
X124581492Y-54279904D01*
X124650000Y-54114510D01*
X124650000Y-53862500D01*
X124537500Y-53750000D01*
X123700000Y-53750000D01*
X123500000Y-53750000D01*
X123480000Y-53750000D01*
X123480000Y-53550000D01*
X123500000Y-53550000D01*
X123500000Y-53530000D01*
X123700000Y-53530000D01*
X123700000Y-53550000D01*
X124537500Y-53550000D01*
X124650000Y-53437500D01*
X124650000Y-53250000D01*
X124875000Y-53250000D01*
X124875000Y-58296247D01*
X124875000Y-58296247D01*
G37*
X124875000Y-58296247D02*
X124850000Y-58291184D01*
X123350000Y-58291184D01*
X123183240Y-58322562D01*
X123030081Y-58421117D01*
X122927332Y-58571495D01*
X122891184Y-58750000D01*
X122891184Y-59600000D01*
X122744785Y-59600000D01*
X122760000Y-59523509D01*
X122760000Y-59476491D01*
X122668655Y-59017271D01*
X122408528Y-58627963D01*
X122019220Y-58367836D01*
X121560000Y-58276491D01*
X121100780Y-58367836D01*
X120711472Y-58627963D01*
X120451345Y-59017271D01*
X120360000Y-59476491D01*
X120360000Y-59523509D01*
X120375215Y-59600000D01*
X119120000Y-59600000D01*
X119120000Y-59620000D01*
X118950000Y-59620000D01*
X118950000Y-58417107D01*
X119120000Y-58417107D01*
X119120000Y-59400000D01*
X120103335Y-59400000D01*
X120185469Y-59214161D01*
X119987367Y-58789914D01*
X119641992Y-58473771D01*
X119305837Y-58334540D01*
X119120000Y-58417107D01*
X118950000Y-58417107D01*
X118950000Y-58250000D01*
X121100000Y-58250000D01*
X121367879Y-58196716D01*
X121594975Y-58044975D01*
X122194975Y-57444975D01*
X122346716Y-57217879D01*
X122400000Y-56950000D01*
X122400000Y-56865000D01*
X122466760Y-56852438D01*
X122619919Y-56753883D01*
X122649376Y-56710772D01*
X122745095Y-56806491D01*
X122910489Y-56875000D01*
X123387500Y-56875000D01*
X123500000Y-56762500D01*
X123500000Y-56150000D01*
X123700000Y-56150000D01*
X123700000Y-56762500D01*
X123812500Y-56875000D01*
X124289511Y-56875000D01*
X124454905Y-56806491D01*
X124581492Y-56679904D01*
X124650000Y-56514510D01*
X124650000Y-56262500D01*
X124537500Y-56150000D01*
X123700000Y-56150000D01*
X123500000Y-56150000D01*
X123480000Y-56150000D01*
X123480000Y-55950000D01*
X123500000Y-55950000D01*
X123500000Y-55337500D01*
X123700000Y-55337500D01*
X123700000Y-55950000D01*
X124537500Y-55950000D01*
X124650000Y-55837500D01*
X124650000Y-55585490D01*
X124581492Y-55420096D01*
X124454905Y-55293509D01*
X124289511Y-55225000D01*
X123812500Y-55225000D01*
X123700000Y-55337500D01*
X123500000Y-55337500D01*
X123387500Y-55225000D01*
X123300000Y-55225000D01*
X123300000Y-54475000D01*
X123387500Y-54475000D01*
X123500000Y-54362500D01*
X123500000Y-53750000D01*
X123700000Y-53750000D01*
X123700000Y-54362500D01*
X123812500Y-54475000D01*
X124289511Y-54475000D01*
X124454905Y-54406491D01*
X124581492Y-54279904D01*
X124650000Y-54114510D01*
X124650000Y-53862500D01*
X124537500Y-53750000D01*
X123700000Y-53750000D01*
X123500000Y-53750000D01*
X123480000Y-53750000D01*
X123480000Y-53550000D01*
X123500000Y-53550000D01*
X123500000Y-53530000D01*
X123700000Y-53530000D01*
X123700000Y-53550000D01*
X124537500Y-53550000D01*
X124650000Y-53437500D01*
X124650000Y-53250000D01*
X124875000Y-53250000D01*
X124875000Y-58296247D01*
M02*
